<?xml version="1.0" encoding="UTF-8"?>
<svg version="1.1" xmlns="http://www.w3.org/2000/svg" width="500" height="500">
<path d="M0 0 C3.2715439 1.63577195 4.80211734 2.55160589 7.25238037 4.99841309 C7.87211227 5.61250534 8.49184418 6.2265976 9.13035583 6.85929871 C9.79857864 7.53156998 10.46680145 8.20384125 11.15527344 8.89648438 C11.86786819 9.60557449 12.58046295 10.31466461 13.31465149 11.04524231 C15.66794864 13.38973859 18.01385713 15.74147292 20.359375 18.09375 C21.99004327 19.72307145 23.62100836 21.35209587 25.2522583 22.98083496 C28.66834407 26.39397195 32.08078503 29.81070142 35.49072266 33.22998047 C39.87133734 37.62200752 44.26089228 42.00497218 48.65319443 46.38530731 C52.02127101 49.74617415 55.38459077 53.1117686 58.74646759 56.47883606 C60.3638025 58.09750899 61.98263498 59.71468696 63.60295868 61.33036804 C65.86093659 63.58329338 68.11244811 65.84248402 70.36230469 68.10351562 C71.37678429 69.11192253 71.37678429 69.11192253 72.41175842 70.14070129 C73.32443733 71.06183968 73.32443733 71.06183968 74.2555542 72.00158691 C74.78868603 72.53547279 75.32181786 73.06935867 75.87110519 73.61942291 C77 75 77 75 77 77 C77.59401611 77.26949463 78.18803223 77.53898926 78.80004883 77.81665039 C80.99350722 78.99650755 82.44231273 80.18434906 84.19921875 81.93359375 C84.76833984 82.50013672 85.33746094 83.06667969 85.92382812 83.65039062 C86.50583984 84.24013672 87.08785156 84.82988281 87.6875 85.4375 C88.57791992 86.31631836 88.57791992 86.31631836 89.48632812 87.21289062 C90.33420898 88.06463867 90.33420898 88.06463867 91.19921875 88.93359375 C91.71315186 89.44978271 92.22708496 89.96597168 92.7565918 90.49780273 C94 92 94 92 95 95 C93.12641196 96.87358804 90.42268426 96.12281958 87.92962164 96.12908131 C87.04928922 96.12616847 86.16895679 96.12325563 85.26194763 96.12025452 C84.33412682 96.12110894 83.40630601 96.12196337 82.45036942 96.12284368 C79.31642179 96.12450133 76.18252675 96.11897248 73.04858398 96.11352539 C70.81201173 96.11324355 68.57543939 96.11340118 66.33886719 96.1139679 C60.24613747 96.11425601 54.15342725 96.10835707 48.06070209 96.10139394 C41.70120005 96.09516267 35.34169761 96.09455678 28.98219299 96.09336853 C18.30135723 96.09060883 7.6205292 96.0843533 -3.06030273 96.07543945 C-14.06355758 96.06626605 -25.06681047 96.05918487 -36.07006836 96.05493164 C-37.08674627 96.05453756 -37.08674627 96.05453756 -38.12396313 96.05413551 C-41.52407665 96.05283051 -44.9241902 96.05156679 -48.32430375 96.05032361 C-76.549541 96.03995013 -104.77476968 96.02205663 -133 96 C-133 102.27 -133 108.54 -133 115 C-137.53408905 113.86647774 -138.74125522 112.63328264 -141.984375 109.37890625 C-142.67506073 108.68896828 -142.67506073 108.68896828 -143.37969971 107.98509216 C-144.34805383 107.01440344 -145.31273083 106.04003424 -146.27392578 105.06225586 C-147.75005487 103.56244425 -149.23914838 102.07648806 -150.73046875 100.59179688 C-158 93.2668115 -158 93.2668115 -158 91 C-158.66 91 -159.32 91 -160 91 C-160 90.34 -160 89.68 -160 89 C-160.66 89 -161.32 89 -162 89 C-162 88.34 -162 87.68 -162 87 C-162.8813562 86.60760132 -162.8813562 86.60760132 -163.78051758 86.20727539 C-166.12725861 84.93077837 -167.64398578 83.58487727 -169.51171875 81.68359375 C-170.51295776 80.67244507 -170.51295776 80.67244507 -171.53442383 79.64086914 C-172.24493896 78.91375732 -172.9554541 78.18664551 -173.6875 77.4375 C-174.42701904 76.69040771 -175.16653809 75.94331543 -175.9284668 75.17358398 C-179.09040906 71.97894463 -182.24040775 68.77261914 -185.39160156 65.56738281 C-187.69450086 63.22836706 -190.00332756 60.89532014 -192.3125 58.5625 C-193.02301514 57.83538818 -193.73353027 57.10827637 -194.46557617 56.35913086 C-195.13306885 55.68503174 -195.80056152 55.01093262 -196.48828125 54.31640625 C-197.07134033 53.72287354 -197.65439941 53.12934082 -198.25512695 52.51782227 C-199.95182336 50.91277087 -199.95182336 50.91277087 -202.11694336 49.95019531 C-204.50246113 48.7464568 -205.26106041 47.09196884 -206.63867188 44.87255859 C-210.48183639 39.58613969 -215.74444214 35.24092102 -220.44140625 30.72460938 C-221.28058594 29.90412109 -222.11976563 29.08363281 -222.984375 28.23828125 C-223.75491211 27.49618408 -224.52544922 26.75408691 -225.31933594 25.98950195 C-227 24 -227 24 -227 21 C-222.59474477 21.49435412 -220.69213574 22.83601183 -217.64453125 26 C-216.85755859 26.804375 -216.07058594 27.60875 -215.25976562 28.4375 C-214.45216797 29.283125 -213.64457031 30.12875 -212.8125 31 C-211.19602435 32.66862002 -209.57763043 34.33538455 -207.95703125 36 C-207.24522705 36.7425 -206.53342285 37.485 -205.80004883 38.25 C-204.10703344 40.07265956 -204.10703344 40.07265956 -202 41 C-202 41.66 -202 42.32 -202 43 C-201.34 43 -200.68 43 -200 43 C-200 43.66 -200 44.32 -200 45 C-199.34 45 -198.68 45 -198 45 C-198 45.66 -198 46.32 -198 47 C-197.34 47 -196.68 47 -196 47 C-194.27375161 48.62591109 -192.64131545 50.29054506 -191 52 C-189.65122575 53.34460267 -188.29892328 54.68567078 -186.9440918 56.02416992 C-182.75378589 60.17890292 -178.56957416 64.33971674 -174.38745117 68.50268555 C-172.58029627 70.29970901 -170.7713613 72.09494404 -168.96069336 73.88842773 C-166.34803553 76.47696217 -163.74177011 79.07178235 -161.13671875 81.66796875 C-160.32120041 82.47316452 -159.50568207 83.27836029 -158.66545105 84.10795593 C-157.92080093 84.85245499 -157.17615082 85.59695404 -156.40893555 86.36401367 C-155.74895065 87.01955734 -155.08896576 87.67510101 -154.40898132 88.35050964 C-153 90 -153 90 -153 92 C-152.34 92 -151.68 92 -151 92 C-149.375 93.375 -149.375 93.375 -148 95 C-148 95.66 -148 96.32 -148 97 C-147.34 97 -146.68 97 -146 97 C-146 97.66 -146 98.32 -146 99 C-145.34 99 -144.68 99 -144 99 C-144 99.66 -144 100.32 -144 101 C-143.34 101 -142.68 101 -142 101 C-140.68 102.65 -139.36 104.3 -138 106 C-137.67 101.38 -137.34 96.76 -137 92 C-115.75004507 91.82739181 -94.50004634 91.660943 -73.25 91.5 C-72.46558312 91.49405146 -71.68116625 91.48810292 -70.87297916 91.48197412 C-30.04030627 91.17269427 10.79085514 90.89775874 51.625 90.9375 C52.51132614 90.93835602 53.39765228 90.93921204 54.31083679 90.94009399 C64.54058412 90.95076923 74.77029126 90.96954581 85 91 C84.34 89.68 83.68 88.36 83 87 C82.34 87 81.68 87 81 87 C81 86.34 81 85.68 81 85 C80.34 85 79.68 85 79 85 C76.875 83.125 76.875 83.125 75 81 C75 80.34 75 79.68 75 79 C74.01 78.67 73.02 78.34 72 78 C72 77.34 72 76.68 72 76 C71.34 76 70.68 76 70 76 C70 75.34 70 74.68 70 74 C69.34 74 68.68 74 68 74 C68 73.34 68 72.68 68 72 C67.34 72 66.68 72 66 72 C66 71.34 66 70.68 66 70 C65.34 70 64.68 70 64 70 C64 69.34 64 68.68 64 68 C63.34 68 62.68 68 62 68 C62 67.34 62 66.68 62 66 C61.34 66 60.68 66 60 66 C60 65.34 60 64.68 60 64 C59.34 64 58.68 64 58 64 C55.375 61.625 55.375 61.625 53 59 C53 58.34 53 57.68 53 57 C52.34 57 51.68 57 51 57 C51 56.34 51 55.68 51 55 C50.34 55 49.68 55 49 55 C49 54.34 49 53.68 49 53 C48.34 53 47.68 53 47 53 C47 52.34 47 51.68 47 51 C46.34 51 45.68 51 45 51 C42.375 48.625 42.375 48.625 40 46 C40 45.34 40 44.68 40 44 C39.34 44 38.68 44 38 44 C38 43.34 38 42.68 38 42 C37.34 42 36.68 42 36 42 C36 41.34 36 40.68 36 40 C35.34 40 34.68 40 34 40 C31.375 37.625 31.375 37.625 29 35 C29 34.34 29 33.68 29 33 C28.34 33 27.68 33 27 33 C27 32.34 27 31.68 27 31 C26.34 31 25.68 31 25 31 C25 30.34 25 29.68 25 29 C24.34 29 23.68 29 23 29 C23 28.34 23 27.68 23 27 C22.34 27 21.68 27 21 27 C21 26.34 21 25.68 21 25 C20.34 25 19.68 25 19 25 C19 24.34 19 23.68 19 23 C18.34 23 17.68 23 17 23 C17 22.34 17 21.68 17 21 C16.34 21 15.68 21 15 21 C13.4140625 19.390625 13.4140625 19.390625 11.625 17.25 C9.18382134 14.3756268 6.72350008 11.61456008 4 9 C3.67 11.97 3.34 14.94 3 18 C2.01 17.67 1.02 17.34 0 17 C0 11.39 0 5.78 0 0 Z " fill="#B1B0B4" transform="translate(320,171)"/>
<path d="M0 0 C8.09835853 6.64229003 11.45470568 14.13494246 13.5625 24.1875 C14.575488 35.2643036 10.27370318 42.78352944 3.5 51.0625 C-5.51418555 58.43774272 -14.84919549 60.20261629 -26.25 59.3125 C-32.14615871 57.79724217 -37.47849697 55.07947608 -42.25 51.3125 C-42.25 50.6525 -42.25 49.9925 -42.25 49.3125 C-42.91 49.3125 -43.57 49.3125 -44.25 49.3125 C-49.54182713 43.13870168 -51.6194502 34.72634861 -52.75 26.8125 C-51.04721243 14.89298702 -47.06320873 6.33654959 -37.390625 -1.12109375 C-26.12780486 -8.17327242 -10.79648621 -7.53290958 0 0 Z M-33.0625 12.5 C-37.28115268 17.92398202 -38.98942316 23.41121716 -38.25 30.3125 C-36.8753181 35.8751663 -34.81889984 39.67814785 -30.25 43.3125 C-25.17904581 46.08717305 -20.91873605 47.10791553 -15.25 46.3125 C-9.15012899 44.52460677 -5.71467375 41.48183752 -2.25 36.3125 C0.06659225 31.25811691 0.67463365 26.47950865 -0.90234375 21.078125 C-3.06944033 15.53482216 -5.86086463 11.10649822 -11.25 8.3125 C-19.55175566 6.11934962 -26.33599042 7.26827033 -33.0625 12.5 Z " fill="#222442" transform="translate(229.25,200.6875)"/>
<path d="M0 0 C1.42407227 2.23461914 1.42407227 2.23461914 2.81640625 5.16015625 C3.33356201 6.24466064 3.85071777 7.32916504 4.38354492 8.4465332 C7.14148203 14.50932954 9.78208654 20.61550739 12.375 26.75 C12.92543602 28.04441769 13.47621565 29.33868932 14.02734375 30.6328125 C15.35492718 33.75379811 16.67907847 36.87619043 18 40 C20.29268035 37.14764682 21.84127375 34.39948913 23.26953125 31.03515625 C23.88634766 29.5958374 23.88634766 29.5958374 24.515625 28.12744141 C24.94359375 27.11601074 25.3715625 26.10458008 25.8125 25.0625 C26.70351988 22.98789138 27.59544263 20.9136703 28.48828125 18.83984375 C28.91834473 17.83808105 29.3484082 16.83631836 29.79150391 15.80419922 C31.33169186 12.23034087 32.89856183 8.67188898 34.5 5.125 C35.16515625 3.64386719 35.16515625 3.64386719 35.84375 2.1328125 C37 0 37 0 39 -1 C40.87379605 -1.07033769 42.75001102 -1.0843022 44.625 -1.0625 C46.12933594 -1.04896484 46.12933594 -1.04896484 47.6640625 -1.03515625 C48.43492187 -1.02355469 49.20578125 -1.01195312 50 -1 C51.08458333 2.22727484 50.97478322 3.82846365 49.55859375 6.90625 C49.22545166 7.64351318 48.89230957 8.38077637 48.54907227 9.14038086 C48.18225342 9.91905518 47.81543457 10.69772949 47.4375 11.5 C47.06616943 12.31025635 46.69483887 13.1205127 46.31225586 13.95532227 C43.86060113 19.26926672 41.29461787 24.52052357 38.63671875 29.734375 C36.48725857 34.02303541 34.42850204 38.35223595 32.375 42.6875 C32.0025415 43.47181396 31.63008301 44.25612793 31.24633789 45.06420898 C30.88403076 45.83063721 30.52172363 46.59706543 30.1484375 47.38671875 C29.61041504 48.52052979 29.61041504 48.52052979 29.06152344 49.67724609 C28.33179609 51.27398619 27.63890265 52.8879132 26.97753906 54.51416016 C26.6472168 55.32030762 26.31689453 56.12645508 25.9765625 56.95703125 C25.69119629 57.68510986 25.40583008 58.41318848 25.11181641 59.16333008 C23.71267924 61.47464077 22.5086427 62.07092813 20 63 C17.0625 63.25 17.0625 63.25 14 62 C12.78076172 60.05078125 12.78076172 60.05078125 11.6171875 57.5625 C11.18704346 56.65790039 10.75689941 55.75330078 10.3137207 54.82128906 C9.88019287 53.89026367 9.44666504 52.95923828 9 52 C8.17989183 50.3065613 7.35830449 48.61383806 6.53515625 46.921875 C5.70921675 45.19874041 4.88503449 43.47476256 4.0625 41.75 C3.62574951 40.83468506 3.18899902 39.91937012 2.73901367 38.97631836 C-0.18614899 32.80880673 -2.92111579 26.59601634 -5.55078125 20.296875 C-7.71441869 15.37474561 -10.18771718 10.62607301 -12.6796875 5.86328125 C-14 3 -14 3 -14 0 C-4.54724409 -1.73622047 -4.54724409 -1.73622047 0 0 Z " fill="#262845" transform="translate(254,197)"/>
<path d="M0 0 C2.0078125 0.1328125 2.0078125 0.1328125 5.0078125 1.1328125 C5.0078125 1.7928125 5.0078125 2.4528125 5.0078125 3.1328125 C5.6678125 3.1328125 6.3278125 3.1328125 7.0078125 3.1328125 C7.0078125 3.7928125 7.0078125 4.4528125 7.0078125 5.1328125 C7.6678125 5.1328125 8.3278125 5.1328125 9.0078125 5.1328125 C10.3828125 6.49609375 10.3828125 6.49609375 12.0078125 8.4453125 C15.8897432 13.03304878 19.96419722 17.42295293 24.06640625 21.8125 C26.0078125 24.1328125 26.0078125 24.1328125 26.0078125 26.1328125 C26.6678125 26.1328125 27.3278125 26.1328125 28.0078125 26.1328125 C29.734375 27.8828125 29.734375 27.8828125 31.6328125 30.1328125 C32.26445312 30.8753125 32.89609375 31.6178125 33.546875 32.3828125 C34.27003906 33.2490625 34.27003906 33.2490625 35.0078125 34.1328125 C35.04539673 32.64116577 35.04539673 32.64116577 35.08374023 31.11938477 C35.17766132 27.44232503 35.27791869 23.765461 35.38012695 20.08862305 C35.42353396 18.4949195 35.46520469 16.9011677 35.50512695 15.30737305 C35.56269057 13.02117342 35.62642399 10.73521801 35.69140625 8.44921875 C35.70811874 7.73254532 35.72483124 7.01587189 35.74205017 6.27748108 C35.89394079 1.24668421 35.89394079 1.24668421 37.0078125 0.1328125 C39.00580822 0.03407434 41.00738408 0.00309451 43.0078125 0.0078125 C44.1009375 0.00523437 45.1940625 0.00265625 46.3203125 0 C49.0078125 0.1328125 49.0078125 0.1328125 50.0078125 1.1328125 C50.1018192 3.09650403 50.12524631 5.06360449 50.12133789 7.02954102 C50.12126236 8.29077286 50.12118683 9.5520047 50.12110901 10.85145569 C50.1160016 12.23821044 50.11078559 13.62496479 50.10546875 15.01171875 C50.10360451 16.42276459 50.10218064 17.83381107 50.10118103 19.24485779 C50.09735629 22.96521785 50.0875264 26.6855391 50.07647705 30.40588379 C50.06626198 34.19962031 50.06168321 37.99336308 50.05664062 41.78710938 C50.04590408 49.23569481 50.0288282 56.68424822 50.0078125 64.1328125 C46.59999158 62.52298452 44.39598796 60.74298848 41.75 58.03515625 C40.95980469 57.23400391 40.16960937 56.43285156 39.35546875 55.60742188 C38.53949219 54.77017578 37.72351563 53.93292969 36.8828125 53.0703125 C35.25742544 51.41058628 33.62992623 49.75292503 32 48.09765625 C31.28183105 47.361521 30.56366211 46.62538574 29.82373047 45.86694336 C28.11259705 44.06258243 28.11259705 44.06258243 26.0078125 43.1328125 C26.0078125 42.4728125 26.0078125 41.8128125 26.0078125 41.1328125 C25.3478125 41.1328125 24.6878125 41.1328125 24.0078125 41.1328125 C21.8828125 39.2578125 21.8828125 39.2578125 20.0078125 37.1328125 C20.0078125 36.4728125 20.0078125 35.8128125 20.0078125 35.1328125 C19.3478125 35.1328125 18.6878125 35.1328125 18.0078125 35.1328125 C18.0078125 34.4728125 18.0078125 33.8128125 18.0078125 33.1328125 C17.3478125 33.1328125 16.6878125 33.1328125 16.0078125 33.1328125 C16.0078125 32.4728125 16.0078125 31.8128125 16.0078125 31.1328125 C15.3478125 31.1328125 14.6878125 31.1328125 14.0078125 31.1328125 C14.0078125 30.4728125 14.0078125 29.8128125 14.0078125 29.1328125 C13.3478125 29.1328125 12.6878125 29.1328125 12.0078125 29.1328125 C12.0078125 28.4728125 12.0078125 27.8128125 12.0078125 27.1328125 C11.3478125 27.1328125 10.6878125 27.1328125 10.0078125 27.1328125 C10.0078125 26.4728125 10.0078125 25.8128125 10.0078125 25.1328125 C9.3478125 25.1328125 8.6878125 25.1328125 8.0078125 25.1328125 C8.0078125 24.4728125 8.0078125 23.8128125 8.0078125 23.1328125 C7.3478125 23.1328125 6.6878125 23.1328125 6.0078125 23.1328125 C4.32048973 21.15020824 2.65415193 19.1495783 1.0078125 17.1328125 C0.3478125 16.8028125 -0.3121875 16.4728125 -0.9921875 16.1328125 C-0.9921875 15.4728125 -0.9921875 14.8128125 -0.9921875 14.1328125 C-1.9203125 13.6996875 -1.9203125 13.6996875 -2.8671875 13.2578125 C-4.9921875 12.1328125 -4.9921875 12.1328125 -6.9921875 10.1328125 C-7.22265625 8.00390625 -7.22265625 8.00390625 -7.1796875 5.5703125 C-7.17324219 4.76464844 -7.16679688 3.95898438 -7.16015625 3.12890625 C-6.79549621 -1.20461193 -3.65751528 0.01349637 0 0 Z " fill="#292B49" transform="translate(119.9921875,195.8671875)"/>
<path d="M0 0 C3.23585361 1.61792681 4.83246068 2.55804109 7.25 5 C8.03117187 5.7734375 8.03117187 5.7734375 8.828125 6.5625 C10 8 10 8 10 10 C10.81210937 10.32484375 10.81210937 10.32484375 11.640625 10.65625 C14.81645344 12.46499997 17.20728081 14.91723799 19.75 17.5 C20.25660156 17.99886719 20.76320313 18.49773437 21.28515625 19.01171875 C25 22.74658861 25 22.74658861 25 25 C25.56203125 25.2371875 26.1240625 25.474375 26.703125 25.71875 C29.51894042 27.28947697 31.47955416 29.21471464 33.75 31.5 C34.54921875 32.2940625 35.3484375 33.088125 36.171875 33.90625 C38 36 38 36 38 38 C38.66 38 39.32 38 40 38 C40 38.66 40 39.32 40 40 C40.87398438 40.38671875 40.87398438 40.38671875 41.765625 40.78125 C44.1802903 42.09834017 45.81740177 43.55088384 47.75 45.5 C48.67039062 46.41265625 48.67039062 46.41265625 49.609375 47.34375 C51 49 51 49 51 51 C51.66 51 52.32 51 53 51 C53 51.66 53 52.32 53 53 C53.66 53 54.32 53 55 53 C56.36623674 55.73247348 56.128426 57.98198902 56 61 C53.8882464 63.1117536 50.74297634 62.81198854 47.921875 62.82421875 C41.73017452 61.07762944 37.66409116 55.02941791 34 50 C34 49.34 34 48.68 34 48 C33.34 48 32.68 48 32 48 C30.52483679 46.34191655 29.119287 44.62153953 27.75 42.875 C25.10704701 39.55743219 22.5028587 36.37117264 19.4375 33.4375 C18.633125 32.633125 17.82875 31.82875 17 31 C17 30.34 17 29.68 17 29 C16.34 29 15.68 29 15 29 C14.67 28.34 14.34 27.68 14 27 C13.97494385 28.02472412 13.9498877 29.04944824 13.92407227 30.10522461 C13.83015516 33.89409676 13.72989683 37.68277881 13.62768555 41.47143555 C13.58427703 43.11364303 13.54260642 44.75589739 13.50268555 46.39819336 C13.4451256 48.75388745 13.38139108 51.10934428 13.31640625 53.46484375 C13.29133751 54.57266457 13.29133751 54.57266457 13.26576233 55.7028656 C13.11387171 60.88612829 13.11387171 60.88612829 12 62 C8.04 62 4.08 62 0 62 C0 41.54 0 21.08 0 0 Z " fill="#171937" transform="translate(337,197)"/>
<path d="M0 0 C4.40525523 0.49435412 6.30786426 1.83601183 9.35546875 5 C10.14244141 5.804375 10.92941406 6.60875 11.74023438 7.4375 C12.95163086 8.7059375 12.95163086 8.7059375 14.1875 10 C15.80397565 11.66862002 17.42236957 13.33538455 19.04296875 15 C19.75477295 15.7425 20.46657715 16.485 21.19995117 17.25 C22.89296656 19.07265956 22.89296656 19.07265956 25 20 C25 20.66 25 21.32 25 22 C25.66 22 26.32 22 27 22 C27 22.66 27 23.32 27 24 C27.66 24 28.32 24 29 24 C29 24.66 29 25.32 29 26 C29.66 26 30.32 26 31 26 C32.72624839 27.62591109 34.35868455 29.29054506 36 31 C37.34877425 32.34460267 38.70107672 33.68567078 40.0559082 35.02416992 C44.24621411 39.17890292 48.43042584 43.33971674 52.61254883 47.50268555 C54.41970373 49.29970901 56.2286387 51.09494404 58.03930664 52.88842773 C60.65196447 55.47696217 63.25822989 58.07178235 65.86328125 60.66796875 C66.67879959 61.47316452 67.49431793 62.27836029 68.33454895 63.10795593 C69.07919907 63.85245499 69.82384918 64.59695404 70.59106445 65.36401367 C71.25104935 66.01955734 71.91103424 66.67510101 72.59101868 67.35050964 C74 69 74 69 74 71 C74.66 71 75.32 71 76 71 C77.625 72.375 77.625 72.375 79 74 C79 74.66 79 75.32 79 76 C79.66 76 80.32 76 81 76 C81 76.66 81 77.32 81 78 C81.66 78 82.32 78 83 78 C83 78.66 83 79.32 83 80 C83.66 80 84.32 80 85 80 C86.32 81.65 87.64 83.3 89 85 C89.33 80.38 89.66 75.76 90 71 C110.59098128 70.9022913 131.16729523 70.84859071 151.75 71.5 C166.75187671 71.97175713 181.73154442 72.04231288 196.74014282 71.98974609 C220.16836797 71.91563931 243.57989882 72.42703116 267 73 C267 73.33 267 73.66 267 74 C209.58 74 152.16 74 93 74 C93 80.6 93 87.2 93 94 C89.18884012 92.09442006 87.20484314 90.46226566 84.234375 87.5 C83.34492188 86.613125 82.45546875 85.72625 81.5390625 84.8125 C80.61867188 83.884375 79.69828125 82.95625 78.75 82 C77.81414062 81.071875 76.87828125 80.14375 75.9140625 79.1875 C75.02976562 78.300625 74.14546875 77.41375 73.234375 76.5 C72.42194336 75.6853125 71.60951172 74.870625 70.77246094 74.03125 C69 72 69 72 69 70 C68.34 70 67.68 70 67 70 C67 69.34 67 68.68 67 68 C66.34 68 65.68 68 65 68 C65 67.34 65 66.68 65 66 C64.1186438 65.60760132 64.1186438 65.60760132 63.21948242 65.20727539 C60.87274139 63.93077837 59.35601422 62.58487727 57.48828125 60.68359375 C56.82078857 60.00949463 56.1532959 59.33539551 55.46557617 58.64086914 C54.75506104 57.91375732 54.0445459 57.18664551 53.3125 56.4375 C52.57298096 55.69040771 51.83346191 54.94331543 51.0715332 54.17358398 C47.90959094 50.97894463 44.75959225 47.77261914 41.60839844 44.56738281 C39.30549914 42.22836706 36.99667244 39.89532014 34.6875 37.5625 C33.97698486 36.83538818 33.26646973 36.10827637 32.53442383 35.35913086 C31.86693115 34.68503174 31.19943848 34.01093262 30.51171875 33.31640625 C29.92865967 32.72287354 29.34560059 32.12934082 28.74487305 31.51782227 C27.04817664 29.91277087 27.04817664 29.91277087 24.88305664 28.95019531 C22.49753887 27.7464568 21.73893959 26.09196884 20.36132812 23.87255859 C16.51816361 18.58613969 11.25555786 14.24092102 6.55859375 9.72460938 C5.71941406 8.90412109 4.88023438 8.08363281 4.015625 7.23828125 C3.24508789 6.49618408 2.47455078 5.75408691 1.68066406 4.98950195 C0 3 0 3 0 0 Z " fill="#C5C5C6" transform="translate(93,192)"/>
<path d="M0 0 C1.50046875 0.00386719 1.50046875 0.00386719 3.03125 0.0078125 C4.0315625 0.00523437 5.031875 0.00265625 6.0625 0 C8.53125 0.1328125 8.53125 0.1328125 9.53125 1.1328125 C9.63040795 3.02980099 9.65924314 4.93050037 9.66064453 6.83007812 C9.66379669 8.04804077 9.66694885 9.26600342 9.67019653 10.52087402 C9.66840675 11.86027055 9.6663558 13.19966674 9.6640625 14.5390625 C9.6647356 15.9028729 9.66570567 17.26668318 9.66696167 18.63049316 C9.66843838 21.49211771 9.66628497 24.3537111 9.66162109 27.21533203 C9.65592381 30.89099864 9.65920296 34.56659224 9.66519356 38.24225616 C9.66879991 41.05943354 9.66766025 43.87659348 9.66506577 46.69377136 C9.6643967 48.04941313 9.66522421 49.40505646 9.66754532 50.76069641 C9.67007301 52.65231294 9.66554014 54.54393499 9.66064453 56.43554688 C9.65984894 57.51396851 9.65905334 58.59239014 9.65823364 59.70349121 C9.53125 62.1328125 9.53125 62.1328125 8.53125 63.1328125 C6.51160801 63.20525303 4.48957876 63.21658438 2.46875 63.1953125 C1.36402344 63.18628906 0.25929688 63.17726563 -0.87890625 63.16796875 C-2.16087891 63.15056641 -2.16087891 63.15056641 -3.46875 63.1328125 C-3.49187737 55.06629076 -3.50966709 46.99978278 -3.52056217 38.93323612 C-3.52579014 35.18798213 -3.53288622 31.44275074 -3.54418945 27.69750977 C-3.55502141 24.08599563 -3.56102749 20.47450329 -3.56362724 16.86297417 C-3.56548094 15.48220921 -3.56910049 14.1014455 -3.57448006 12.72068977 C-3.58169447 10.79305298 -3.58215809 8.86539443 -3.58227539 6.93774414 C-3.584496 5.83854141 -3.58671661 4.73933868 -3.58900452 3.60682678 C-3.42709651 0.27586898 -3.32883894 0.17908311 0 0 Z " fill="#131635" transform="translate(314.46875,195.8671875)"/>
<path d="M0 0 C4.37477474 -0.11651725 8.74914827 -0.18736 13.125 -0.25 C14.3625 -0.28351563 15.6 -0.31703125 16.875 -0.3515625 C25.09653402 -0.43996609 28.9007038 0.04205885 34.8125 5.75 C37.56103931 10.9577587 37.4535314 16.62788653 35.87109375 22.171875 C34.05853624 25.97580735 30.71130198 28.14434901 27 30 C25.47851674 30.08372659 23.95344222 30.10730027 22.4296875 30.09765625 C21.53378906 30.09443359 20.63789063 30.09121094 19.71484375 30.08789062 C18.77769531 30.07951172 17.84054688 30.07113281 16.875 30.0625 C15.93011719 30.05798828 14.98523438 30.05347656 14.01171875 30.04882812 C11.67441613 30.03702357 9.33723939 30.02055759 7 30 C7.01160156 30.91523438 7.02320313 31.83046875 7.03515625 32.7734375 C7.04417969 33.96195312 7.05320313 35.15046875 7.0625 36.375 C7.07410156 37.55835938 7.08570313 38.74171875 7.09765625 39.9609375 C7 43 7 43 6 45 C4.33388095 45.042721 2.66617115 45.04063832 1 45 C0 44 0 44 -0.12025452 42.20933533 C-0.11803391 41.42990067 -0.11581329 40.650466 -0.11352539 39.84741211 C-0.11341209 38.52615578 -0.11341209 38.52615578 -0.11329651 37.1782074 C-0.10555458 35.74227989 -0.10555458 35.74227989 -0.09765625 34.27734375 C-0.0962413 33.30213272 -0.09482635 32.32692169 -0.09336853 31.32215881 C-0.08775133 28.19390857 -0.07519593 25.06572877 -0.0625 21.9375 C-0.05748722 19.82226666 -0.05292393 17.70703219 -0.04882812 15.59179688 C-0.03777631 10.39450704 -0.02102146 5.19725855 0 0 Z M6 5 C6.33 11.6 6.66 18.2 7 25 C11.021875 25.1546875 11.021875 25.1546875 15.125 25.3125 C15.95789551 25.35802002 16.79079102 25.40354004 17.64892578 25.45043945 C21.69150479 25.52519485 24.27139767 25.23516734 27.4921875 22.66796875 C30.37334064 19.60281673 31 18.17274053 31 14 C29.92447279 9.4827857 27.9028361 7.43227595 24 5 C20.87418983 4.52129201 17.84007997 4.6216131 14.6875 4.75 C11.820625 4.8325 8.95375 4.915 6 5 Z " fill="#BCBCBE" transform="translate(201,275)"/>
<path d="M0 0 C2.0078125 0.1328125 2.0078125 0.1328125 5.0078125 1.1328125 C5.0078125 1.7928125 5.0078125 2.4528125 5.0078125 3.1328125 C5.6678125 3.1328125 6.3278125 3.1328125 7.0078125 3.1328125 C7.0078125 3.7928125 7.0078125 4.4528125 7.0078125 5.1328125 C7.6678125 5.1328125 8.3278125 5.1328125 9.0078125 5.1328125 C10.3828125 6.49609375 10.3828125 6.49609375 12.0078125 8.4453125 C15.8897432 13.03304878 19.96419722 17.42295293 24.06640625 21.8125 C26.0078125 24.1328125 26.0078125 24.1328125 26.0078125 26.1328125 C26.6678125 26.1328125 27.3278125 26.1328125 28.0078125 26.1328125 C30.3178125 28.7728125 32.6278125 31.4128125 35.0078125 34.1328125 C35.3378125 23.2428125 35.6678125 12.3528125 36.0078125 1.1328125 C36.3378125 1.1328125 36.6678125 1.1328125 37.0078125 1.1328125 C37.0078125 13.3428125 37.0078125 25.5528125 37.0078125 38.1328125 C34.6978125 37.8028125 32.3878125 37.4728125 30.0078125 37.1328125 C29.5128125 38.1228125 29.5128125 38.1228125 29.0078125 39.1328125 C27.36418116 39.85440674 25.69730864 40.52632671 24.0078125 41.1328125 C22.63218396 39.84316074 21.30014857 38.50591957 20.0078125 37.1328125 C20.0078125 36.4728125 20.0078125 35.8128125 20.0078125 35.1328125 C19.3478125 35.1328125 18.6878125 35.1328125 18.0078125 35.1328125 C18.0078125 34.4728125 18.0078125 33.8128125 18.0078125 33.1328125 C17.3478125 33.1328125 16.6878125 33.1328125 16.0078125 33.1328125 C16.0078125 32.4728125 16.0078125 31.8128125 16.0078125 31.1328125 C15.3478125 31.1328125 14.6878125 31.1328125 14.0078125 31.1328125 C14.0078125 30.4728125 14.0078125 29.8128125 14.0078125 29.1328125 C13.3478125 29.1328125 12.6878125 29.1328125 12.0078125 29.1328125 C12.0078125 28.4728125 12.0078125 27.8128125 12.0078125 27.1328125 C11.3478125 27.1328125 10.6878125 27.1328125 10.0078125 27.1328125 C10.0078125 26.4728125 10.0078125 25.8128125 10.0078125 25.1328125 C9.3478125 25.1328125 8.6878125 25.1328125 8.0078125 25.1328125 C8.0078125 24.4728125 8.0078125 23.8128125 8.0078125 23.1328125 C7.3478125 23.1328125 6.6878125 23.1328125 6.0078125 23.1328125 C4.32048973 21.15020824 2.65415193 19.1495783 1.0078125 17.1328125 C0.3478125 16.8028125 -0.3121875 16.4728125 -0.9921875 16.1328125 C-0.9921875 15.4728125 -0.9921875 14.8128125 -0.9921875 14.1328125 C-1.9203125 13.6996875 -1.9203125 13.6996875 -2.8671875 13.2578125 C-4.9921875 12.1328125 -4.9921875 12.1328125 -6.9921875 10.1328125 C-7.22265625 8.00390625 -7.22265625 8.00390625 -7.1796875 5.5703125 C-7.17324219 4.76464844 -7.16679688 3.95898438 -7.16015625 3.12890625 C-6.79549621 -1.20461193 -3.65751528 0.01349637 0 0 Z " fill="#30314B" transform="translate(119.9921875,195.8671875)"/>
<path d="M0 0 C3.85575257 1.37267024 5.59503778 4.11856996 7.88671875 7.3359375 C8.32435547 7.92632812 8.76199219 8.51671875 9.21289062 9.125 C11.10887329 11.69543145 12.92745813 14.30329657 14.69921875 16.9609375 C15.24191406 16.14109375 15.78460938 15.32125 16.34375 14.4765625 C17.05917969 13.39890625 17.77460938 12.32125 18.51171875 11.2109375 C19.21941406 10.14359375 19.92710937 9.07625 20.65625 7.9765625 C21.66751953 6.48382813 21.66751953 6.48382813 22.69921875 4.9609375 C23.20453125 4.1771875 23.70984375 3.3934375 24.23046875 2.5859375 C25.69921875 0.9609375 25.69921875 0.9609375 29.38671875 0.7109375 C30.47984375 0.7934375 31.57296875 0.8759375 32.69921875 0.9609375 C31.38728279 5.76900552 29.4955334 8.81580876 26.26171875 12.5859375 C23.65091378 15.65696675 21.07656909 18.70450263 18.69921875 21.9609375 C19.69775541 23.39945437 20.69817151 24.83666658 21.69921875 26.2734375 C22.64474609 27.63082031 22.64474609 27.63082031 23.609375 29.015625 C26.39377778 32.93981135 29.28815174 36.77935956 32.1953125 40.61328125 C33.69921875 42.9609375 33.69921875 42.9609375 33.69921875 45.9609375 C30.94921875 46.2109375 30.94921875 46.2109375 27.69921875 45.9609375 C24.07093742 42.92745639 21.57223258 39.09846614 18.94921875 35.2109375 C18.33240234 34.30794922 18.33240234 34.30794922 17.703125 33.38671875 C16.69798443 31.91407093 15.69806397 30.43786248 14.69921875 28.9609375 C11.37189067 32.04207315 9.01640673 35.33658136 6.57421875 39.1484375 C2.91985932 44.85061722 2.91985932 44.85061722 0.69921875 45.9609375 C-1.30038137 46.0009295 -3.30125367 46.00440549 -5.30078125 45.9609375 C-4.68577383 42.55591977 -3.42614264 40.49905006 -1.32421875 37.7734375 C-0.4425 36.60167969 -0.4425 36.60167969 0.45703125 35.40625 C1.70470602 33.77226589 2.95734431 32.14206023 4.21484375 30.515625 C4.80007813 29.73445313 5.3853125 28.95328125 5.98828125 28.1484375 C6.53178223 27.44074219 7.0752832 26.73304688 7.63525391 26.00390625 C8.8927271 24.03889611 8.8927271 24.03889611 8.51147461 21.91064453 C7.66935623 19.88925668 6.72495753 18.32989943 5.4140625 16.578125 C4.96611328 15.96839844 4.51816406 15.35867188 4.05664062 14.73046875 C3.58806641 14.10527344 3.11949219 13.48007812 2.63671875 12.8359375 C-2.30078125 6.22116942 -2.30078125 6.22116942 -2.30078125 3.9609375 C-2.96078125 3.9609375 -3.62078125 3.9609375 -4.30078125 3.9609375 C-4.30078125 2.9709375 -4.30078125 1.9809375 -4.30078125 0.9609375 C-2.30078125 -0.0390625 -2.30078125 -0.0390625 0 0 Z " fill="#BBBBBC" transform="translate(343.30078125,274.0390625)"/>
<path d="M0 0 C2 3 2 3 2 5 C4.31 5.33 6.62 5.66 9 6 C9 6.66 9 7.32 9 8 C9.56203125 8.2371875 10.1240625 8.474375 10.703125 8.71875 C13.51894042 10.28947697 15.47955416 12.21471464 17.75 14.5 C18.54921875 15.2940625 19.3484375 16.088125 20.171875 16.90625 C22 19 22 19 22 21 C20.68 21 19.36 21 18 21 C18 21.66 18 22.32 18 23 C17.01 23.33 16.02 23.66 15 24 C12.8125 22.5625 12.8125 22.5625 11 21 C9.78922299 24.63233102 9.87555836 27.95121987 9.90234375 31.73046875 C9.90446617 32.85609978 9.90446617 32.85609978 9.90663147 34.00447083 C9.9122244 36.3988546 9.92477556 38.79314453 9.9375 41.1875 C9.94251592 42.81184761 9.94707866 44.43619668 9.95117188 46.06054688 C9.96219152 50.04040069 9.97945127 54.02018444 10 58 C8 59 8 59 0 59 C0 39.53 0 20.06 0 0 Z " fill="#191B3A" transform="translate(338,199)"/>
<path d="M0 0 C3.2715439 1.63577195 4.80211734 2.55160589 7.25238037 4.99841309 C7.87211227 5.61250534 8.49184418 6.2265976 9.13035583 6.85929871 C9.79857864 7.53156998 10.46680145 8.20384125 11.15527344 8.89648438 C11.86786819 9.60557449 12.58046295 10.31466461 13.31465149 11.04524231 C15.66794864 13.38973859 18.01385713 15.74147292 20.359375 18.09375 C21.99004327 19.72307145 23.62100836 21.35209587 25.2522583 22.98083496 C28.66834407 26.39397195 32.08078503 29.81070142 35.49072266 33.22998047 C39.87133734 37.62200752 44.26089228 42.00497218 48.65319443 46.38530731 C52.02127101 49.74617415 55.38459077 53.1117686 58.74646759 56.47883606 C60.3638025 58.09750899 61.98263498 59.71468696 63.60295868 61.33036804 C65.86093659 63.58329338 68.11244811 65.84248402 70.36230469 68.10351562 C71.03862442 68.7757869 71.71494415 69.44805817 72.41175842 70.14070129 C73.02021103 70.75479355 73.62866364 71.3688858 74.2555542 72.00158691 C74.78868603 72.53547279 75.32181786 73.06935867 75.87110519 73.61942291 C77 75 77 75 77 77 C77.87398437 77.38285156 77.87398437 77.38285156 78.765625 77.7734375 C81.21388223 79.11741087 82.81743248 80.61810296 84.75 82.625 C85.36359375 83.25664062 85.9771875 83.88828125 86.609375 84.5390625 C87.06828125 85.02117187 87.5271875 85.50328125 88 86 C87.34 86.66 86.68 87.32 86 88 C86 88.99 86 89.98 86 91 C84.515 90.01 84.515 90.01 83 89 C83 88.34 83 87.68 83 87 C82.34 87 81.68 87 81 87 C81 86.34 81 85.68 81 85 C80.34 85 79.68 85 79 85 C76.875 83.125 76.875 83.125 75 81 C75 80.34 75 79.68 75 79 C73.515 78.505 73.515 78.505 72 78 C72 77.34 72 76.68 72 76 C71.34 76 70.68 76 70 76 C70 75.34 70 74.68 70 74 C69.34 74 68.68 74 68 74 C68 73.34 68 72.68 68 72 C67.34 72 66.68 72 66 72 C66 71.34 66 70.68 66 70 C65.34 70 64.68 70 64 70 C64 69.34 64 68.68 64 68 C63.34 68 62.68 68 62 68 C62 67.34 62 66.68 62 66 C61.34 66 60.68 66 60 66 C60 65.34 60 64.68 60 64 C59.34 64 58.68 64 58 64 C55.375 61.625 55.375 61.625 53 59 C53 58.34 53 57.68 53 57 C52.34 57 51.68 57 51 57 C51 56.34 51 55.68 51 55 C50.34 55 49.68 55 49 55 C49 54.34 49 53.68 49 53 C48.34 53 47.68 53 47 53 C47 52.34 47 51.68 47 51 C46.34 51 45.68 51 45 51 C42.375 48.625 42.375 48.625 40 46 C40 45.34 40 44.68 40 44 C39.34 44 38.68 44 38 44 C38 43.34 38 42.68 38 42 C37.34 42 36.68 42 36 42 C36 41.34 36 40.68 36 40 C35.34 40 34.68 40 34 40 C31.375 37.625 31.375 37.625 29 35 C29 34.34 29 33.68 29 33 C28.34 33 27.68 33 27 33 C27 32.34 27 31.68 27 31 C26.34 31 25.68 31 25 31 C25 30.34 25 29.68 25 29 C24.34 29 23.68 29 23 29 C23 28.34 23 27.68 23 27 C22.34 27 21.68 27 21 27 C21 26.34 21 25.68 21 25 C20.34 25 19.68 25 19 25 C19 24.34 19 23.68 19 23 C18.34 23 17.68 23 17 23 C17 22.34 17 21.68 17 21 C16.34 21 15.68 21 15 21 C13.4140625 19.390625 13.4140625 19.390625 11.625 17.25 C9.18382134 14.3756268 6.72350008 11.61456008 4 9 C3.67 11.97 3.34 14.94 3 18 C2.01 17.67 1.02 17.34 0 17 C0 11.39 0 5.78 0 0 Z " fill="#C8C8C7" transform="translate(320,171)"/>
<path d="M0 0 C2.10546875 0.1328125 2.10546875 0.1328125 6.10546875 1.1328125 C6.10546875 14.9928125 6.10546875 28.8528125 6.10546875 43.1328125 C4.45546875 42.1428125 2.80546875 41.1528125 1.10546875 40.1328125 C1.10546875 39.4728125 1.10546875 38.8128125 1.10546875 38.1328125 C0.44546875 38.1328125 -0.21453125 38.1328125 -0.89453125 38.1328125 C-0.89453125 37.4728125 -0.89453125 36.8128125 -0.89453125 36.1328125 C-1.55453125 36.1328125 -2.21453125 36.1328125 -2.89453125 36.1328125 C-2.89453125 35.4728125 -2.89453125 34.8128125 -2.89453125 34.1328125 C-4.21453125 33.4728125 -5.53453125 32.8128125 -6.89453125 32.1328125 C-6.91918629 27.73625077 -6.93736967 23.3397253 -6.94946289 18.94311523 C-6.95450246 17.44636332 -6.96133412 15.94961634 -6.9699707 14.45288086 C-6.98205284 12.30581443 -6.98776316 10.15881288 -6.9921875 8.01171875 C-6.99742432 6.7182251 -7.00266113 5.42473145 -7.00805664 4.09204102 C-6.80901866 -1.09621575 -4.67119476 0.01752794 0 0 Z " fill="#232640" transform="translate(386.89453125,195.8671875)"/>
<path d="M0 0 C3.42448724 1.65070421 6.12850202 3.4786847 9 6 C9.87011719 6.75152344 10.74023438 7.50304687 11.63671875 8.27734375 C15.67981268 13.20178858 14.55722974 19.8020606 14.375 25.8125 C14.35373047 27.69098633 14.35373047 27.69098633 14.33203125 29.60742188 C14.18210494 38.81789506 14.18210494 38.81789506 13 40 C11.00200428 40.09873816 9.00042842 40.12971799 7 40.125 C5.906875 40.12757813 4.81375 40.13015625 3.6875 40.1328125 C1 40 1 40 0 39 C-0.08865208 36.1156618 -0.11521296 33.25537842 -0.09765625 30.37109375 C-0.0962413 29.50686295 -0.09482635 28.64263214 -0.09336853 27.75221252 C-0.08775239 24.98060708 -0.07519719 22.2090812 -0.0625 19.4375 C-0.05748708 17.5631522 -0.05292381 15.68880315 -0.04882812 13.81445312 C-0.03777772 9.20960456 -0.0205023 4.60481579 0 0 Z " fill="#232643" transform="translate(113,219)"/>
<path d="M0 0 C9.57 0 19.14 0 29 0 C29.33 1.32 29.66 2.64 30 4 C27.43863779 6.56136221 26.33438669 6.29666857 22.7734375 6.4140625 C21.7421875 6.45273437 20.7109375 6.49140625 19.6484375 6.53125 C18.56820313 6.5621875 17.48796875 6.593125 16.375 6.625 C14.74304688 6.68300781 14.74304688 6.68300781 13.078125 6.7421875 C10.38558835 6.83666247 7.69306243 6.92222431 5 7 C5.33 7.99 5.66 8.98 6 10 C6.0685495 11.89470816 6.08480372 13.7916834 6.0625 15.6875 C6.05347656 16.68136719 6.04445313 17.67523438 6.03515625 18.69921875 C6.02355469 19.45847656 6.01195312 20.21773438 6 21 C7.1281311 20.94670532 7.1281311 20.94670532 8.27905273 20.89233398 C11.66497853 20.73536707 15.05120711 20.58632785 18.4375 20.4375 C19.62150391 20.38142578 20.80550781 20.32535156 22.02539062 20.26757812 C23.15009766 20.21923828 24.27480469 20.17089844 25.43359375 20.12109375 C26.47572021 20.0739624 27.51784668 20.02683105 28.59155273 19.97827148 C31 20 31 20 32 21 C32 22.65 32 24.3 32 26 C21.11 26 10.22 26 -1 26 C-1 5 -1 5 0 0 Z " fill="#B8B7B9" transform="translate(295,294)"/>
<path d="M0 0 C1.98 0 3.96 0 6 0 C6.02505615 1.11036621 6.0501123 2.22073242 6.07592773 3.36474609 C6.16994915 7.47603319 6.27018257 11.58714923 6.37231445 15.69824219 C6.4156833 17.47912603 6.45735694 19.26005198 6.49731445 21.04101562 C6.5549699 23.59778548 6.6186777 26.15434298 6.68359375 28.7109375 C6.70030624 29.50994476 6.71701874 30.30895203 6.73423767 31.13217163 C6.75392991 35.19806368 6.75392991 35.19806368 8 39 C15.59 39.33 23.18 39.66 31 40 C31 41.65 31 43.3 31 45 C26.93763598 45.08729047 22.87551411 45.14048992 18.8125 45.1875 C17.66201172 45.21263672 16.51152344 45.23777344 15.32617188 45.26367188 C14.21435547 45.27333984 13.10253906 45.28300781 11.95703125 45.29296875 C10.42526245 45.31653442 10.42526245 45.31653442 8.86254883 45.34057617 C5.53922541 44.94517863 3.68257842 43.96790197 1 42 C-0.69196504 38.61606992 -0.11986549 34.77522209 -0.09765625 31.0546875 C-0.0962413 30.1696756 -0.09482635 29.2846637 -0.09336853 28.37283325 C-0.0877614 25.54018809 -0.07520771 22.70762136 -0.0625 19.875 C-0.05748592 17.95703239 -0.05292285 16.03906354 -0.04882812 14.12109375 C-0.03778966 9.41403218 -0.02052025 4.7070294 0 0 Z " fill="#B5B5B7" transform="translate(251,275)"/>
<path d="M0 0 C0.33 0 0.66 0 1 0 C1 12.21 1 24.42 1 37 C-2.465 36.505 -2.465 36.505 -6 36 C-6.33 36.66 -6.66 37.32 -7 38 C-8.64363134 38.72159424 -10.31050386 39.39351421 -12 40 C-13.37562854 38.71034824 -14.70766393 37.37310707 -16 36 C-16 35.34 -16 34.68 -16 34 C-16.66 34 -17.32 34 -18 34 C-18 33.34 -18 32.68 -18 32 C-18.66 32 -19.32 32 -20 32 C-20 31.34 -20 30.68 -20 30 C-20.66 30 -21.32 30 -22 30 C-22 29.34 -22 28.68 -22 28 C-22.66 28 -23.32 28 -24 28 C-23.8125 25.625 -23.8125 25.625 -23 23 C-20.4375 21.6875 -20.4375 21.6875 -18 21 C-18.18828772 18.55519921 -18.18828772 18.55519921 -19 16 C-20.96758273 14.63979849 -20.96758273 14.63979849 -23 14 C-22.34 14 -21.68 14 -21 14 C-20.67 13.34 -20.34 12.68 -20 12 C-18.32722165 13.78628831 -16.66175557 15.5785075 -15 17.375 C-14.52304688 17.88289063 -14.04609375 18.39078125 -13.5546875 18.9140625 C-10 22.7734375 -10 22.7734375 -10 25 C-9.34 25 -8.68 25 -8 25 C-5.69 27.64 -3.38 30.28 -1 33 C-0.67 22.11 -0.34 11.22 0 0 Z " fill="#1D1F3D" transform="translate(156,197)"/>
<path d="M0 0 C4.19653803 5.61383847 5.79571912 12.21223503 7 19 C5.68 18.34 4.36 17.68 3 17 C1.33378575 18.1645201 1.33378575 18.1645201 0 20 C0.23043864 22.65466049 0.23043864 22.65466049 1 25 C-0.98 25.99 -0.98 25.99 -3 27 C-3.31130859 26.16082031 -3.31130859 26.16082031 -3.62890625 25.3046875 C-5.96017711 19.23753071 -8.68487033 13.4791794 -11.71313477 7.73583984 C-13.16355809 4.93297875 -14 3.20738332 -14 0 C-9.04864089 -0.90943331 -4.8013187 -1.68935288 0 0 Z " fill="#2A2C46" transform="translate(254,197)"/>
<path d="M0 0 C1.98 0 3.96 0 6 0 C6 14.85 6 29.7 6 45 C4.35 45 2.7 45 1 45 C0 44 0 44 -0.12025452 42.20933533 C-0.11803391 41.42990067 -0.11581329 40.650466 -0.11352539 39.84741211 C-0.11341209 38.52615578 -0.11341209 38.52615578 -0.11329651 37.1782074 C-0.10555458 35.74227989 -0.10555458 35.74227989 -0.09765625 34.27734375 C-0.0962413 33.30213272 -0.09482635 32.32692169 -0.09336853 31.32215881 C-0.08775133 28.19390857 -0.07519593 25.06572877 -0.0625 21.9375 C-0.05748722 19.82226666 -0.05292393 17.70703219 -0.04882812 15.59179688 C-0.03777631 10.39450704 -0.02102146 5.19725855 0 0 Z " fill="#B8B9BB" transform="translate(390,275)"/>
<path d="M0 0 C5.875 4.625 5.875 4.625 7 8 C5.12641196 9.87358804 2.42268426 9.12281958 -0.07037836 9.12908131 C-0.95071078 9.12616847 -1.83104321 9.12325563 -2.73805237 9.12025452 C-3.66587318 9.12110894 -4.59369399 9.12196337 -5.54963058 9.12284368 C-8.68357821 9.12450133 -11.81747325 9.11897248 -14.95141602 9.11352539 C-17.18798827 9.11324355 -19.42456061 9.11340118 -21.66113281 9.1139679 C-27.75386253 9.11425601 -33.84657275 9.10835707 -39.93929791 9.10139394 C-46.29879995 9.09516267 -52.65830239 9.09455678 -59.01780701 9.09336853 C-69.69864277 9.09060883 -80.3794708 9.0843533 -91.06030273 9.07543945 C-102.06355758 9.06626605 -113.06681047 9.05918487 -124.07006836 9.05493164 C-125.08674627 9.05453756 -125.08674627 9.05453756 -126.12396313 9.05413551 C-129.52407665 9.05283051 -132.9241902 9.05156679 -136.32430375 9.05032361 C-164.549541 9.03995013 -192.77476968 9.02205663 -221 9 C-221 15.27 -221 21.54 -221 28 C-221.33 28 -221.66 28 -222 28 C-222 21.4 -222 14.8 -222 8 C-147.42 7.67 -72.84 7.34 4 7 C4 6.34 4 5.68 4 5 C3.01 5 2.02 5 1 5 C0.67 3.35 0.34 1.7 0 0 Z " fill="#DFDEE3" transform="translate(408,258)"/>
<path d="M0 0 C1.75349476 0.04899262 3.50699436 0.09781228 5.26049805 0.14648438 C6.1959848 0.17427979 7.13147156 0.2020752 8.0953064 0.23071289 C25.07386095 0.72826334 42.0342866 0.94524643 59.01953125 0.87890625 C83.29996557 0.7902709 107.5598138 1.28509053 131.83203125 1.87890625 C131.83203125 2.20890625 131.83203125 2.53890625 131.83203125 2.87890625 C75.73203125 2.87890625 19.63203125 2.87890625 -38.16796875 2.87890625 C-38.16796875 2.54890625 -38.16796875 2.21890625 -38.16796875 1.87890625 C-37.33023926 1.8538501 -36.49250977 1.82879395 -35.62939453 1.80297852 C-32.52444619 1.70790268 -29.41966694 1.608666 -26.31494141 1.5065918 C-24.30902068 1.44192374 -22.30294647 1.38207519 -20.296875 1.32226562 C-18.41162109 1.25942383 -18.41162109 1.25942383 -16.48828125 1.1953125 C-15.32570801 1.15865479 -14.16313477 1.12199707 -12.96533203 1.08422852 C-8.5152791 0.75760131 -4.65561404 -0.15678939 0 0 Z " fill="#ACACAF" transform="translate(228.16796875,263.12109375)"/>
<path d="M0 0 C4.53786224 2.26893112 5.94678157 4.09866534 9 8 C6.0625 7.625 6.0625 7.625 3 7 C2.67 6.34 2.34 5.68 2 5 C1.67 23.48 1.34 41.96 1 61 C5.95 60.505 5.95 60.505 11 60 C10.67 47.79 10.34 35.58 10 23 C10.99 22.67 11.98 22.34 13 22 C14.36733028 22.95298777 15.70264493 23.95374591 17 25 C17.66 25 18.32 25 19 25 C19 24.34 19 23.68 19 23 C20.65 22.67 22.3 22.34 24 22 C24.33 22.99 24.66 23.98 25 25 C25.99 25.33 26.98 25.66 28 26 C27.401875 26.28875 26.80375 26.5775 26.1875 26.875 C22.36322376 28.66893173 22.36322376 28.66893173 20.3125 32.125 C20.209375 32.74375 20.10625 33.3625 20 34 C18.5 32.625 18.5 32.625 17 31 C17 30.34 17 29.68 17 29 C16.34 29 15.68 29 15 29 C14.67 28.34 14.34 27.68 14 27 C13.97494385 28.02472412 13.9498877 29.04944824 13.92407227 30.10522461 C13.83015516 33.89409676 13.72989683 37.68277881 13.62768555 41.47143555 C13.58427703 43.11364303 13.54260642 44.75589739 13.50268555 46.39819336 C13.4451256 48.75388745 13.38139108 51.10934428 13.31640625 53.46484375 C13.29133751 54.57266457 13.29133751 54.57266457 13.26576233 55.7028656 C13.11387171 60.88612829 13.11387171 60.88612829 12 62 C8.04 62 4.08 62 0 62 C0 41.54 0 21.08 0 0 Z " fill="#3A3A52" transform="translate(337,197)"/>
<path d="M0 0 C10.89 0 21.78 0 33 0 C33 1.65 33 3.3 33 5 C24.09 5 15.18 5 6 5 C6 9.29 6 13.58 6 18 C4.02 18 2.04 18 0 18 C0 12.06 0 6.12 0 0 Z " fill="#B3B3B5" transform="translate(294,275)"/>
<path d="M0 0 C2.89232584 1.43548225 4.70755375 3.00795055 6.95703125 5.3125 C7.65441406 6.01375 8.35179687 6.715 9.0703125 7.4375 C10.64453125 9.3125 10.64453125 9.3125 10.64453125 11.3125 C11.30453125 11.3125 11.96453125 11.3125 12.64453125 11.3125 C13.30453125 12.9625 13.96453125 14.6125 14.64453125 16.3125 C9.89453125 19.3125 9.89453125 19.3125 7.64453125 19.3125 C7.97453125 20.3025 8.30453125 21.2925 8.64453125 22.3125 C5.47784254 22.0160748 4.58386767 21.24800613 2.35546875 18.87890625 C1.58460938 17.88761719 0.81375 16.89632812 0.01953125 15.875 C-3.01830747 11.96076276 -3.01830747 11.96076276 -6.35546875 8.3125 C-6.75311138 6.32428687 -7.09322224 4.32305661 -7.35546875 2.3125 C-6.69546875 2.3125 -6.03546875 2.3125 -5.35546875 2.3125 C-5.02546875 1.6525 -4.69546875 0.9925 -4.35546875 0.3125 C-2.35546875 -0.6875 -2.35546875 -0.6875 0 0 Z " fill="#333550" transform="translate(364.35546875,223.6875)"/>
<path d="M0 0 C12.21 0 24.42 0 37 0 C34.20787489 2.79212511 31.54695711 2.35138075 27.8046875 2.4140625 C27.09724396 2.43342865 26.38980042 2.4527948 25.66091919 2.4727478 C23.39906915 2.53257652 21.1371683 2.57894101 18.875 2.625 C17.3424256 2.66317686 15.80987272 2.70222842 14.27734375 2.7421875 C10.51834053 2.83992973 6.75956932 2.91946808 3 3 C3 9.6 3 16.2 3 23 C-0.51558692 21.24220654 -2.49058372 19.86004577 -5.25 17.1875 C-5.95640625 16.52105469 -6.6628125 15.85460937 -7.390625 15.16796875 C-9.32336245 12.56440252 -9.33183276 11.16900284 -9 8 C-7.25 8.1875 -7.25 8.1875 -5 9 C-3.68 10.65 -2.36 12.3 -1 14 C-0.67 9.38 -0.34 4.76 0 0 Z " fill="#B4B4B4" transform="translate(183,263)"/>
<path d="M0 0 C0 0.99 0 1.98 0 3 C-10.16556356 3.02362639 -20.33112014 3.04116199 -30.49670601 3.05181217 C-35.2217725 3.05693489 -39.94681965 3.06382741 -44.671875 3.07543945 C-70.13271334 3.13637425 -95.55191786 2.82764888 -121 2 C-121 1.67 -121 1.34 -121 1 C-109.65321802 0.86757173 -98.30641548 0.73707412 -86.95958519 0.60884857 C-81.68723868 0.54921154 -76.41490053 0.48898046 -71.14257812 0.42724609 C-47.42749832 0.14999842 -23.71701609 -0.0939932 0 0 Z " fill="#D2D1D3" transform="translate(347,262)"/>
<path d="M0 0 C1.20970459 0.00523682 2.41940918 0.01047363 3.66577148 0.01586914 C4.97094727 0.0190918 6.27612305 0.02231445 7.62084961 0.02563477 C9.00952213 0.03399138 10.39819401 0.04245634 11.78686523 0.05102539 C13.17944179 0.05603873 14.57202005 0.06060193 15.96459961 0.06469727 C19.38456394 0.07653105 22.80444367 0.09301659 26.22436523 0.11352539 C26.84936523 1.98852539 26.84936523 1.98852539 27.22436523 4.11352539 C24.46997008 6.86792055 22.75833321 6.42341815 18.90405273 6.52758789 C17.01879883 6.5855957 17.01879883 6.5855957 15.09545898 6.64477539 C13.11739258 6.69118164 13.11739258 6.69118164 11.09936523 6.73852539 C9.75949605 6.77670568 8.4196514 6.81575745 7.07983398 6.85571289 C3.79481905 6.95024569 0.50981386 7.03579695 -2.77563477 7.11352539 C-3.15696775 5.12211979 -3.48889059 3.12073462 -3.77563477 1.11352539 C-2.77563477 0.11352539 -2.77563477 0.11352539 0 0 Z " fill="#BABABC" transform="translate(297.775634765625,293.886474609375)"/>
<path d="M0 0 C5.24284116 4.3690343 10.51941304 8.83277764 15 14 C15 14.66 15 15.32 15 16 C15.87398438 16.38285156 15.87398438 16.38285156 16.765625 16.7734375 C19.21388223 18.11741087 20.81743248 19.61810296 22.75 21.625 C23.36359375 22.25664062 23.9771875 22.88828125 24.609375 23.5390625 C25.06828125 24.02117187 25.5271875 24.50328125 26 25 C25.34 25.66 24.68 26.32 24 27 C24 27.99 24 28.98 24 30 C23.01 29.34 22.02 28.68 21 28 C21 27.34 21 26.68 21 26 C20.34 26 19.68 26 19 26 C19 25.34 19 24.68 19 24 C18.34 24 17.68 24 17 24 C14.875 22.125 14.875 22.125 13 20 C13 19.34 13 18.68 13 18 C12.01 17.67 11.02 17.34 10 17 C10 16.34 10 15.68 10 15 C9.34 15 8.68 15 8 15 C8 14.34 8 13.68 8 13 C7.34 13 6.68 13 6 13 C6 12.34 6 11.68 6 11 C5.34 11 4.68 11 4 11 C4 10.34 4 9.68 4 9 C3.34 9 2.68 9 2 9 C2 8.34 2 7.68 2 7 C1.34 7 0.68 7 0 7 C0 6.34 0 5.68 0 5 C-0.66 5 -1.32 5 -2 5 C-2 4.34 -2 3.68 -2 3 C-2.66 2.67 -3.32 2.34 -4 2 C-2.68 2 -1.36 2 0 2 C0 1.34 0 0.68 0 0 Z " fill="#CECDCC" transform="translate(382,232)"/>
<path d="M0 0 C0.33 0 0.66 0 1 0 C1 5.94 1 11.88 1 18 C3.701875 17.9175 6.40375 17.835 9.1875 17.75 C10.02949951 17.73420898 10.87149902 17.71841797 11.73901367 17.70214844 C16.69055127 17.47849644 19.40884488 16.7016522 23 13 C24.31165257 10.88339573 24.31165257 10.88339573 25 9 C25 9.99 25 10.98 25 12 C25.66 12 26.32 12 27 12 C27 14 27 14 25.75 15.5 C23.92986218 17.06011813 22.18022066 18.0226597 20 19 C20.33 20.32 20.66 21.64 21 23 C14.4 23 7.8 23 1 23 C1 27.29 1 31.58 1 36 C0.67 36 0.34 36 0 36 C-0.09087891 34.66195312 -0.09087891 34.66195312 -0.18359375 33.296875 C-0.26738281 32.12640625 -0.35117188 30.9559375 -0.4375 29.75 C-0.51871094 28.58984375 -0.59992188 27.4296875 -0.68359375 26.234375 C-0.93247787 23.69022624 -1.28114942 21.44046752 -2 19 C-1.34 19 -0.68 19 0 19 C0 12.73 0 6.46 0 0 Z " fill="#C7C7C8" transform="translate(207,282)"/>
<path d="M0 0 C1.50046875 0.00386719 1.50046875 0.00386719 3.03125 0.0078125 C4.0315625 0.00523437 5.031875 0.00265625 6.0625 0 C8.53125 0.1328125 8.53125 0.1328125 9.53125 1.1328125 C9.63040795 3.02980099 9.65924314 4.93050037 9.66064453 6.83007812 C9.66379669 8.04804077 9.66694885 9.26600342 9.67019653 10.52087402 C9.66840675 11.86027055 9.6663558 13.19966674 9.6640625 14.5390625 C9.6647356 15.9028729 9.66570567 17.26668318 9.66696167 18.63049316 C9.66843838 21.49211771 9.66628497 24.3537111 9.66162109 27.21533203 C9.65592381 30.89099864 9.65920296 34.56659224 9.66519356 38.24225616 C9.66879991 41.05943354 9.66766025 43.87659348 9.66506577 46.69377136 C9.6643967 48.04941313 9.66522421 49.40505646 9.66754532 50.76069641 C9.67007301 52.65231294 9.66554014 54.54393499 9.66064453 56.43554688 C9.65984894 57.51396851 9.65905334 58.59239014 9.65823364 59.70349121 C9.53125 62.1328125 9.53125 62.1328125 8.53125 63.1328125 C6.51160801 63.20525303 4.48957876 63.21658438 2.46875 63.1953125 C1.36402344 63.18628906 0.25929688 63.17726563 -0.87890625 63.16796875 C-2.16087891 63.15056641 -2.16087891 63.15056641 -3.46875 63.1328125 C-3.49187737 55.06629076 -3.50966709 46.99978278 -3.52056217 38.93323612 C-3.52579014 35.18798213 -3.53288622 31.44275074 -3.54418945 27.69750977 C-3.55502141 24.08599563 -3.56102749 20.47450329 -3.56362724 16.86297417 C-3.56548094 15.48220921 -3.56910049 14.1014455 -3.57448006 12.72068977 C-3.58169447 10.79305298 -3.58215809 8.86539443 -3.58227539 6.93774414 C-3.584496 5.83854141 -3.58671661 4.73933868 -3.58900452 3.60682678 C-3.42709651 0.27586898 -3.32883894 0.17908311 0 0 Z M-2.46875 2.1328125 C-2.46875 21.9328125 -2.46875 41.7328125 -2.46875 62.1328125 C1.16125 62.1328125 4.79125 62.1328125 8.53125 62.1328125 C8.55380523 54.45744273 8.57216753 46.78208521 8.58306217 39.10669041 C8.58828995 35.54303828 8.59538569 31.97940993 8.60668945 28.41577148 C8.61959176 24.32275153 8.62447906 20.2297567 8.62890625 16.13671875 C8.63406754 14.85132706 8.63922882 13.56593536 8.64454651 12.24159241 C8.64462204 11.06044357 8.64469757 9.87929474 8.64477539 8.66235352 C8.646996 7.61644547 8.64921661 6.57053741 8.65150452 5.49293518 C8.79775985 3.17591955 8.79775985 3.17591955 7.53125 2.1328125 C4.23125 2.1328125 0.93125 2.1328125 -2.46875 2.1328125 Z " fill="#646675" transform="translate(314.46875,195.8671875)"/>
<path d="M0 0 C0.33 0 0.66 0 1 0 C1.33 1.65 1.66 3.3 2 5 C2.66 4.67 3.32 4.34 4 4 C4 14.89 4 25.78 4 37 C2.68 36.67 1.36 36.34 0 36 C0 24.12 0 12.24 0 0 Z " fill="#B0B0B1" transform="translate(252,281)"/>
<path d="M0 0 C0.66 0.33 1.32 0.66 2 1 C1.67 1.99 1.34 2.98 1 4 C-5.6 4 -12.2 4 -19 4 C-19 5.48113281 -19 6.96226562 -19 8.48828125 C-19 20.32552083 -19 32.16276042 -19 44 C-20.65 44 -22.3 44 -24 44 C-23.67 36.74 -23.34 29.48 -23 22 C-22.34 21.67 -21.68 21.34 -21 21 C-20.505 12.09 -20.505 12.09 -20 3 C-11.125 2.625 -11.125 2.625 -8.33251953 2.52197266 C-7.24366455 2.46855713 -7.24366455 2.46855713 -6.1328125 2.4140625 C-5.38918457 2.3826416 -4.64555664 2.3512207 -3.87939453 2.31884766 C-1.75989026 2.14580449 -1.75989026 2.14580449 0 0 Z " fill="#ADADAF" transform="translate(226,276)"/>
<path d="M0 0 C6.84063292 3.42031646 13.41851265 9.30310185 16.125 16.625 C16.41375 17.73875 16.7025 18.8525 17 20 C13.31930113 18.46356148 11.01224796 16.21849055 8.25 13.375 C7.45078125 12.55773437 6.6515625 11.74046875 5.828125 10.8984375 C5.22484375 10.27195313 4.6215625 9.64546875 4 9 C3.67 11.97 3.34 14.94 3 18 C2.01 17.67 1.02 17.34 0 17 C0 11.39 0 5.78 0 0 Z " fill="#B9B9B9" transform="translate(320,171)"/>
<path d="M0 0 C1.98 0 3.96 0 6 0 C6 12.21 6 24.42 6 37 C5.67 37 5.34 37 5 37 C4.67 28.42 4.34 19.84 4 11 C3.01 11.495 3.01 11.495 2 12 C1.67 21.24 1.34 30.48 1 40 C0.67 40 0.34 40 0 40 C0 26.8 0 13.6 0 0 Z " fill="#CFCFCF" transform="translate(251,275)"/>
<path d="M0 0 C0.66 0.33 1.32 0.66 2 1 C1.67 2.98 1.34 4.96 1 7 C1.66 7.33 2.32 7.66 3 8 C3.99 7.67 4.98 7.34 6 7 C6.33 8.98 6.66 10.96 7 13 C6.01 13.495 6.01 13.495 5 14 C3.86649466 16.01669827 3.86649466 16.01669827 3 18 C2.67 18 2.34 18 2 18 C1.67 16.35 1.34 14.7 1 13 C-0.65 13 -2.3 13 -4 13 C-5.0625 11.25 -5.0625 11.25 -6 9 C-5.66666667 7.66666667 -5.33333333 6.33333333 -5 5 C-5.85790183 2.78228936 -5.85790183 2.78228936 -7 1 C-4.69 1.33 -2.38 1.66 0 2 C0 1.34 0 0.68 0 0 Z M-8 4 C-6 5 -6 5 -6 5 Z " fill="#141637" transform="translate(192,238)"/>
<path d="M0 0 C3.63 0 7.26 0 11 0 C12.08644535 4.3457814 11.90680911 4.94960548 10.0625 8.75 C9.68222656 9.54921875 9.30195313 10.3484375 8.91015625 11.171875 C8.60980469 11.77515625 8.30945313 12.3784375 8 13 C7.67 12.34 7.34 11.68 7 11 C6.01 11.33 5.02 11.66 4 12 C3.01 11.67 2.02 11.34 1 11 C1 9.35 1 7.7 1 6 C1.66 6 2.32 6 3 6 C2.67 5.34 2.34 4.68 2 4 C1.34 4 0.68 4 0 4 C0 2.68 0 1.36 0 0 Z " fill="#1C1E3C" transform="translate(293,196)"/>
<path d="M0 0 C1.98 0 3.96 0 6 0 C7.14229879 3.42689636 6.90861076 5.61102218 6.5625 9.1875 C6.46066406 10.27417969 6.35882813 11.36085938 6.25390625 12.48046875 C6.12822266 13.72763672 6.12822266 13.72763672 6 15 C5.01 15 4.02 15 3 15 C2.67 15.99 2.34 16.98 2 18 C1.34 18 0.68 18 0 18 C0 12.06 0 6.12 0 0 Z " fill="#AFAFB2" transform="translate(294,301)"/>
<path d="M0 0 C1.98 1.65 3.96 3.3 6 5 C5.38125 5.268125 4.7625 5.53625 4.125 5.8125 C1.7004767 6.95556848 1.7004767 6.95556848 0 10 C0.3121764 12.64632287 0.3121764 12.64632287 1 15 C1.99 14.34 2.98 13.68 4 13 C4.6875 14.8125 4.6875 14.8125 5 17 C3.51953125 18.63671875 3.51953125 18.63671875 2 20 C0.4641556 18.43122326 -1.05331331 16.84443846 -2.5625 15.25 C-3.40941406 14.36828125 -4.25632812 13.4865625 -5.12890625 12.578125 C-7 10 -7 10 -6.96875 7.8046875 C-5.42376888 4.9265372 -2.70240945 3.7249422 0 2 C0 1.34 0 0.68 0 0 Z " fill="#232444" transform="translate(378,237)"/>
<path d="M0 0 C4.53786224 2.26893112 5.94678157 4.09866534 9 8 C6.0625 7.625 6.0625 7.625 3 7 C2.67 6.34 2.34 5.68 2 5 C1.67 23.48 1.34 41.96 1 61 C4.63 61 8.26 61 12 61 C12 61.33 12 61.66 12 62 C8.04 62 4.08 62 0 62 C0 41.54 0 21.08 0 0 Z " fill="#656375" transform="translate(337,197)"/>
<path d="M0 0 C12.21 0 24.42 0 37 0 C34.27714167 2.72285833 32.69963371 2.29402507 28.890625 2.37890625 C27.66085938 2.41306641 26.43109375 2.44722656 25.1640625 2.48242188 C23.22660156 2.52206055 23.22660156 2.52206055 21.25 2.5625 C18.71345388 2.62271094 16.17698728 2.68639348 13.640625 2.75390625 C12.51172852 2.77783447 11.38283203 2.8017627 10.21972656 2.82641602 C7.0782839 2.99577951 4.08971312 3.42075174 1 4 C1 7.96 1 11.92 1 16 C0.34 15.67 -0.32 15.34 -1 15 C-0.67 10.05 -0.34 5.1 0 0 Z " fill="#CAC8CC" transform="translate(183,263)"/>
<path d="M0 0 C0.33 0 0.66 0 1 0 C1 12.21 1 24.42 1 37 C-1.31 36.67 -3.62 36.34 -6 36 C-6.33 36.66 -6.66 37.32 -7 38 C-8.64363134 38.72159424 -10.31050386 39.39351421 -12 40 C-12.495 38.515 -12.495 38.515 -13 37 C-12.34 37 -11.68 37 -11 37 C-10.67 36.01 -10.34 35.02 -10 34 C-8.66666667 33.33333333 -7.33333333 32.66666667 -6 32 C-5.67 31.01 -5.34 30.02 -5 29 C-3.68 30.32 -2.36 31.64 -1 33 C-0.67 22.11 -0.34 11.22 0 0 Z " fill="#878999" transform="translate(156,197)"/>
<path d="M0 0 C0.33 0 0.66 0 1 0 C1 12.87 1 25.74 1 39 C-2.59454845 37.20272577 -4.50111529 36.03436 -7 33 C-7 31.68 -7 30.36 -7 29 C-6.38125 28.87625 -5.7625 28.7525 -5.125 28.625 C-2.80879168 28.12802644 -2.80879168 28.12802644 -1 26 C-0.62792646 23.28384136 -0.62792646 23.28384136 -0.5859375 20.1171875 C-0.54726562 18.95058594 -0.50859375 17.78398437 -0.46875 16.58203125 C-0.4378125 15.35871094 -0.406875 14.13539063 -0.375 12.875 C-0.31699219 11.02841797 -0.31699219 11.02841797 -0.2578125 9.14453125 C-0.1633001 6.09650624 -0.07774506 3.04849138 0 0 Z " fill="#13142C" transform="translate(168,220)"/>
<path d="M0 0 C0 0.66 0 1.32 0 2 C-6.67759741 3.22471219 -13.28918679 3.15069124 -20.0625 3.125 C-21.90279785 3.12209961 -21.90279785 3.12209961 -23.78027344 3.11914062 C-34.87209354 3.06743051 -45.92766099 2.63270509 -57 2 C-57 1.67 -57 1.34 -57 1 C-51.29327043 0.85518456 -45.58648514 0.71288694 -39.87963867 0.57275391 C-37.94505183 0.52491498 -36.01048082 0.47643105 -34.07592773 0.42724609 C-22.71446532 0.13886917 -11.36551408 -0.07959508 0 0 Z " fill="#CDCCCF" transform="translate(407,262)"/>
<path d="M0 0 C0.66 0 1.32 0 2 0 C3.31134718 3.90313437 3.03043509 7.77542704 2.87890625 11.828125 C2.85529526 12.57713074 2.83168427 13.32613647 2.80735779 14.09783936 C2.73099344 16.48209888 2.64685283 18.86601105 2.5625 21.25 C2.50925201 22.86977486 2.4565118 24.48956651 2.40429688 26.109375 C2.27541537 30.07313521 2.13956072 34.03660201 2 38 C2.66 38.33 3.32 38.66 4 39 C2.68 39 1.36 39 0 39 C0 26.13 0 13.26 0 0 Z " fill="#757781" transform="translate(113,219)"/>
<path d="M0 0 C-0.99 0.33 -1.98 0.66 -3 1 C-3.80212628 2.87387216 -3.80212628 2.87387216 -4.1875 5.0625 C-4.34605469 5.79597656 -4.50460938 6.52945313 -4.66796875 7.28515625 C-4.77753906 7.85105469 -4.88710937 8.41695312 -5 9 C-5.825 8.79375 -6.65 8.5875 -7.5 8.375 C-11.87818732 7.9059085 -14.79269734 8.76682508 -19 10 C-14.95582105 4.6077614 -11.20250443 1.51757104 -4.75 -0.8125 C-3 -1 -3 -1 0 0 Z " fill="#31334E" transform="translate(204,197)"/>
<path d="M0 0 C3.63 0 7.26 0 11 0 C11 0.33 11 0.66 11 1 C9.329375 1.12375 9.329375 1.12375 7.625 1.25 C4.03418527 1.57310518 4.03418527 1.57310518 2.78564453 3.63964844 C1.76913868 6.69358833 1.77542711 9.29698163 1.8046875 12.515625 C1.81113281 13.76601562 1.81757813 15.01640625 1.82421875 16.3046875 C1.84097656 17.60664063 1.85773438 18.90859375 1.875 20.25 C1.88402344 21.56742188 1.89304688 22.88484375 1.90234375 24.2421875 C1.92591467 27.49497462 1.95881978 30.74739589 2 34 C1.34 34 0.68 34 0 34 C0 22.78 0 11.56 0 0 Z " fill="#12142A" transform="translate(157,197)"/>
<path d="M0 0 C1.98 0.495 1.98 0.495 4 1 C4 1.66 4 2.32 4 3 C4.66 3 5.32 3 6 3 C9.61980085 6.09007389 11.58682778 8.17965738 12 13 C7.35026146 12.55212676 5.62972532 10.97814403 2.6875 7.4375 C1.64142578 6.19806641 1.64142578 6.19806641 0.57421875 4.93359375 C0.05472656 4.29550781 -0.46476562 3.65742188 -1 3 C-0.67 2.01 -0.34 1.02 0 0 Z " fill="#C0C0C1" transform="translate(118,215)"/>
<path d="M0 0 C0.66 1.32 1.32 2.64 2 4 C3.65 4 5.3 4 7 4 C7 7 7 7 4.6875 9.6875 C2 12 2 12 -1 12 C-1.268125 11.195625 -1.53625 10.39125 -1.8125 9.5625 C-2.204375 8.716875 -2.59625 7.87125 -3 7 C-3.99 6.67 -4.98 6.34 -6 6 C-5.67 5.01 -5.34 4.02 -5 3 C-3.67696283 2.6278958 -2.34262065 2.29369827 -1 2 C-0.67 1.34 -0.34 0.68 0 0 Z " fill="#151835" transform="translate(143,222)"/>
<path d="M0 0 C3.43752007 1.5277867 6.18953688 3.50181056 9 6 C9 6.66 9 7.32 9 8 C9.66 8 10.32 8 11 8 C10.67 8.66 10.34 9.32 10 10 C10 10.99 10 11.98 10 13 C9.67 13.66 9.34 14.32 9 15 C6.70598233 12.72722324 4.44799051 10.42851871 2.25 8.0625 C1.61578125 7.39347656 0.9815625 6.72445312 0.328125 6.03515625 C-1 4 -1 4 -0.703125 1.74609375 C-0.47109375 1.16988281 -0.2390625 0.59367188 0 0 Z " fill="#C4C3C4" transform="translate(109,206)"/>
<path d="M0 0 C2 1.375 2 1.375 4 3 C4 3.66 4 4.32 4 5 C4.66 5 5.32 5 6 5 C6 5.66 6 6.32 6 7 C6.66 7 7.32 7 8 7 C9.36623674 9.73247348 9.128426 11.98198902 9 15 C8 16 8 16 5.71484375 16.09765625 C4.34005859 16.08025391 4.34005859 16.08025391 2.9375 16.0625 C2.01839844 16.05347656 1.09929687 16.04445313 0.15234375 16.03515625 C-0.55792969 16.02355469 -1.26820313 16.01195312 -2 16 C0 14 0 14 3.125 13.875 C4.07375 13.91625 5.0225 13.9575 6 14 C6.33 12.02 6.66 10.04 7 8 C5.35 8 3.7 8 2 8 C2.33 7.01 2.66 6.02 3 5 C2.34 5 1.68 5 1 5 C0.67 3.35 0.34 1.7 0 0 Z " fill="#525163" transform="translate(384,243)"/>
<path d="M0 0 C7.48291572 6.15034169 7.48291572 6.15034169 10 10 C9.01 10.495 9.01 10.495 8 11 C8 11.99 8 12.98 8 14 C7.01 13.34 6.02 12.68 5 12 C5 11.34 5 10.68 5 10 C4.34 10 3.68 10 3 10 C3 9.34 3 8.68 3 8 C2.34 7.67 1.68 7.34 1 7 C1.66 7 2.32 7 3 7 C2.505 6.401875 2.01 5.80375 1.5 5.1875 C0 3 0 3 0 0 Z " fill="#CDCDCD" transform="translate(398,248)"/>
<path d="M0 0 C1.32 0 2.64 0 4 0 C3.125 3.875 3.125 3.875 2 5 C-0.0708472 5.1584265 -2.14678029 5.25124422 -4.22265625 5.31640625 C-5.48271484 5.35830078 -6.74277344 5.40019531 -8.04101562 5.44335938 C-9.38150736 5.48317596 -10.7220022 5.52288814 -12.0625 5.5625 C-13.40691523 5.60568042 -14.7513166 5.64929456 -16.09570312 5.69335938 C-19.3970234 5.79985358 -22.69842236 5.9018646 -26 6 C-22.66196309 3.77464206 -21.37180289 3.71021596 -17.45703125 3.5859375 C-16.38388672 3.54726563 -15.31074219 3.50859375 -14.20507812 3.46875 C-13.08552734 3.4378125 -11.96597656 3.406875 -10.8125 3.375 C-9.11577148 3.31699219 -9.11577148 3.31699219 -7.38476562 3.2578125 C-4.5900075 3.16347467 -1.79525722 3.07788348 1 3 C0.67 2.01 0.34 1.02 0 0 Z " fill="#C5C5CD" transform="translate(321,295)"/>
<path d="M0 0 C2.97 0 5.94 0 9 0 C9 0.66 9 1.32 9 2 C8.34 2 7.68 2 7 2 C7 2.66 7 3.32 7 4 C2.38 4 -2.24 4 -7 4 C-7 3.34 -7 2.68 -7 2 C-7.66 1.67 -8.32 1.34 -9 1 C-6.03 1 -3.06 1 0 1 C0 0.67 0 0.34 0 0 Z " fill="#3E3C52" transform="translate(210,256)"/>
<path d="M0 0 C0.99 0.33 1.98 0.66 3 1 C3.6875 3.0625 3.6875 3.0625 4 5 C3.34 5 2.68 5 2 5 C1.67 5.99 1.34 6.98 1 8 C-0.65 8 -2.3 8 -4 8 C-4.33 6.35 -4.66 4.7 -5 3 C-4.34 3 -3.68 3 -3 3 C-2.67 2.34 -2.34 1.68 -2 1 C-1.34 0.67 -0.68 0.34 0 0 Z " fill="#151836" transform="translate(362,223)"/>
<path d="M0 0 C0.33 0.99 0.66 1.98 1 3 C1.66 3.33 2.32 3.66 3 4 C1.71034824 5.37562854 0.37310707 6.70766393 -1 8 C-1.66 8 -2.32 8 -3 8 C-3.33 8.99 -3.66 9.98 -4 11 C-7 5.375 -7 5.375 -7 2 C-5 3 -5 3 -4 4 C-3.67 3.01 -3.34 2.02 -3 1 C-2.34 1.33 -1.68 1.66 -1 2 C-0.67 1.34 -0.34 0.68 0 0 Z " fill="#2F304E" transform="translate(249,199)"/>
<path d="M0 0 C2.91517292 1.07401108 4.77810176 1.77810176 7 4 C7.125 6.625 7.125 6.625 7 9 C3.2273236 8.46104623 1.31787009 7.00464642 -1 4 C-0.75 1.75 -0.75 1.75 0 0 Z " fill="#C3C3C3" transform="translate(148,245)"/>
<path d="M0 0 C1.65 0.33 3.3 0.66 5 1 C5.6875 3.3125 5.6875 3.3125 6 6 C4.5625 7.8125 4.5625 7.8125 3 9 C1.68 8.34 0.36 7.68 -1 7 C-0.67 4.69 -0.34 2.38 0 0 Z " fill="#141637" transform="translate(133,212)"/>
<path d="M0 0 C1.32 0.99 2.64 1.98 4 3 C3.360625 3.78375 2.72125 4.5675 2.0625 5.375 C0.01857687 7.79539281 0.01857687 7.79539281 -1 10 C-1.99 9.34 -2.98 8.68 -4 8 C-4.1875 4.875 -4.1875 4.875 -4 2 C-2.68 2 -1.36 2 0 2 C0 1.34 0 0.68 0 0 Z " fill="#131635" transform="translate(229,207)"/>
<path d="M0 0 C2.31 0 4.62 0 7 0 C5.75 3.4375 5.75 3.4375 4 7 C1.8125 7.9375 1.8125 7.9375 0 8 C0 5.36 0 2.72 0 0 Z " fill="#0F1229" transform="translate(114,197)"/>
<path d="M0 0 C0.33 1.32 0.66 2.64 1 4 C1.66 4 2.32 4 3 4 C2.67 4.66 2.34 5.32 2 6 C1.34 5.67 0.68 5.34 0 5 C0 6.65 0 8.3 0 10 C0.99 10.33 1.98 10.66 3 11 C3.33 12.65 3.66 14.3 4 16 C3.34 16 2.68 16 2 16 C1.67 16.99 1.34 17.98 1 19 C-0.80181481 12.58103475 -2.09835343 6.55735447 0 0 Z " fill="#5D5E71" transform="translate(178,220)"/>
<path d="M0 0 C3.66666667 3.66666667 7.33333333 7.33333333 11 11 C10.67 11.66 10.34 12.32 10 13 C7.125 11.875 7.125 11.875 4 10 C3.27306096 8.02111039 2.60183749 6.02045442 2 4 C-0.00136244 2.57944932 -0.00136244 2.57944932 -2 2 C-1.34 2 -0.68 2 0 2 C0 1.34 0 0.68 0 0 Z " fill="#525365" transform="translate(135,209)"/>
<path d="M0 0 C2.97 0.495 2.97 0.495 6 1 C6 1.66 6 2.32 6 3 C7.32 2.67 8.64 2.34 10 2 C9.835 2.763125 9.67 3.52625 9.5 4.3125 C8.90854604 7.03596236 8.90854604 7.03596236 9 10 C8.34 8.68 7.68 7.36 7 6 C6.34 6 5.68 6 5 6 C5 5.34 5 4.68 5 4 C4.34 4 3.68 4 3 4 C3 3.34 3 2.68 3 2 C2.01 1.67 1.02 1.34 0 1 C0 0.67 0 0.34 0 0 Z " fill="#525366" transform="translate(381,228)"/>
<path d="M0 0 C8.25 0 16.5 0 25 0 C23.35 1.32 21.7 2.64 20 4 C19.34 3.34 18.68 2.68 18 2 C16.06742145 1.63168919 16.06742145 1.63168919 13.8671875 1.5859375 C13.06152344 1.54726563 12.25585938 1.50859375 11.42578125 1.46875 C10.58402344 1.4378125 9.74226562 1.406875 8.875 1.375 C8.02550781 1.33632813 7.17601562 1.29765625 6.30078125 1.2578125 C4.20088316 1.16343506 2.10047109 1.08062414 0 1 C0 0.67 0 0.34 0 0 Z " fill="#BEBEBF" transform="translate(203,275)"/>
<path d="M0 0 C7.92 0 15.84 0 24 0 C24 1.65 24 3.3 24 5 C23.01 4.67 22.02 4.34 21 4 C21.33 3.01 21.66 2.02 22 1 C14.74 1 7.48 1 0 1 C0 0.67 0 0.34 0 0 Z " fill="#BEBEBF" transform="translate(303,275)"/>
<path d="M0 0 C0.66 0.33 1.32 0.66 2 1 C2 1.66 2 2.32 2 3 C3.2065625 3.433125 3.2065625 3.433125 4.4375 3.875 C7 5 7 5 8 7 C5.10765685 7.82638376 3.11257569 8 0 8 C-0.66 7.34 -1.32 6.68 -2 6 C-1.34 4.02 -0.68 2.04 0 0 Z " fill="#3D3F56" transform="translate(194,239)"/>
<path d="M0 0 C0.99 0.33 1.98 0.66 3 1 C3.33 1.99 3.66 2.98 4 4 C-0.75 7 -0.75 7 -3 7 C-2.67 7.99 -2.34 8.98 -2 10 C-2.66 10 -3.32 10 -4 10 C-5 7 -5 7 -3.6875 3.875 C-2 1 -2 1 0 0 Z " fill="#151834" transform="translate(375,236)"/>
<path d="M0 0 C1.2065625 0.0309375 1.2065625 0.0309375 2.4375 0.0625 C0.96057692 5.72403846 0.96057692 5.72403846 -1.6875 7.4375 C-2.615625 7.746875 -2.615625 7.746875 -3.5625 8.0625 C-3.60491723 5.72955225 -3.60342937 3.39547433 -3.5625 1.0625 C-2.5625 0.0625 -2.5625 0.0625 0 0 Z " fill="#B7B7B9" transform="translate(373.5625,274.9375)"/>
<path d="M0 0 C1.76462683 3.08809695 2 4.23312136 2 8 C-1.7952131 6.50902342 -3.61042731 4.24299151 -6 1 C-3.92446352 0.4465236 -2.15634036 0 0 0 Z " fill="#2C2D41" transform="translate(167,251)"/>
<path d="M0 0 C1.32 0 2.64 0 4 0 C4 0.66 4 1.32 4 2 C4.66 2 5.32 2 6 2 C5.67 2.66 5.34 3.32 5 4 C5 4.99 5 5.98 5 7 C4.67 7.66 4.34 8.32 4 9 C1.27573689 6.64722731 0.1858237 4.37503669 -1 1 C-0.67 0.67 -0.34 0.34 0 0 Z " fill="#CECFCE" transform="translate(114,212)"/>
<path d="M0 0 C4.0084034 2.0042017 5.41409657 3.49055963 8 7 C5.50907189 8.24546405 4.58919267 7.7767578 2 7 C2 5.68 2 4.36 2 3 C1.67 4.98 1.34 6.96 1 9 C0.67 9 0.34 9 0 9 C0 6.03 0 3.06 0 0 Z " fill="#CECECE" transform="translate(320,171)"/>
<path d="M0 0 C1.485 0.99 1.485 0.99 3 2 C3 2.99 3 3.98 3 5 C4.2065625 4.7215625 4.2065625 4.7215625 5.4375 4.4375 C6.7059375 4.2209375 6.7059375 4.2209375 8 4 C9 5 9 5 9.0625 7.5625 C9.041875 8.366875 9.02125 9.17125 9 10 C5.535 8.02 5.535 8.02 2 6 C2 5.34 2 4.68 2 4 C1.34 4 0.68 4 0 4 C0 2.68 0 1.36 0 0 Z " fill="#3C3B4F" transform="translate(185,246)"/>
<path d="M0 0 C0.5775 0.45375 1.155 0.9075 1.75 1.375 C3.7800333 2.84113516 5.73539843 3.94857784 8 5 C7.34 6.32 6.68 7.64 6 9 C4.85073734 8.04578192 3.70569459 7.08647955 2.5625 6.125 C1.92441406 5.59132813 1.28632813 5.05765625 0.62890625 4.5078125 C-1 3 -1 3 -2 1 C-1.34 0.67 -0.68 0.34 0 0 Z " fill="#C9C9CA" transform="translate(168,266)"/>
<path d="M0 0 C0 2.64 0 5.28 0 8 C-1.16959987 7.02433888 -2.33561177 6.044375 -3.5 5.0625 C-4.1496875 4.51722656 -4.799375 3.97195313 -5.46875 3.41015625 C-5.9740625 2.94480469 -6.479375 2.47945313 -7 2 C-7 1.67 -7 1.34 -7 1 C-1.125 0 -1.125 0 0 0 Z " fill="#C2C2C5" transform="translate(185,278)"/>
<path d="M0 0 C4.75 0.75 4.75 0.75 7 3 C7 3.99 7 4.98 7 6 C2.25 5.25 2.25 5.25 0 3 C0 2.01 0 1.02 0 0 Z " fill="#C1C1BF" transform="translate(375,228)"/>
<path d="M0 0 C4.95 0 9.9 0 15 0 C15 0.66 15 1.32 15 2 C9.91913204 2.84681133 5.15171623 3.09038099 0 3 C0 2.01 0 1.02 0 0 Z " fill="#D2D0D7" transform="translate(392,262)"/>
<path d="M0 0 C0.99 0.33 1.98 0.66 3 1 C3.94921875 3.06640625 3.94921875 3.06640625 4.6875 5.5625 C4.93886719 6.38878906 5.19023437 7.21507812 5.44921875 8.06640625 C5.63097656 8.70449219 5.81273437 9.34257812 6 10 C2.15625 8.234375 2.15625 8.234375 0.75 6.125 C0 4 0 4 0 0 Z " fill="#454659" transform="translate(265,226)"/>
<path d="M0 0 C0.33 0.99 0.66 1.98 1 3 C0.67 3.66 0.34 4.32 0 5 C1.32 5.33 2.64 5.66 4 6 C4.33 7.32 4.66 8.64 5 10 C4.34 10 3.68 10 3 10 C3 9.34 3 8.68 3 8 C2.34 8 1.68 8 1 8 C1 7.34 1 6.68 1 6 C0.34 6 -0.32 6 -1 6 C-1 5.34 -1 4.68 -1 4 C-1.66 4 -2.32 4 -3 4 C-3 3.01 -3 2.02 -3 1 C-2.01 0.67 -1.02 0.34 0 0 Z " fill="#595A6C" transform="translate(137,223)"/>
<path d="M0 0 C3.63 0 7.26 0 11 0 C12.07349791 4.29399165 11.79682816 5.19495213 10 9 C9.67 9 9.34 9 9 9 C9 6.36 9 3.72 9 1 C6.03 1 3.06 1 0 1 C0 0.67 0 0.34 0 0 Z " fill="#6E6F80" transform="translate(293,196)"/>
<path d="M0 0 C0.66 0 1.32 0 2 0 C2.12375 0.639375 2.2475 1.27875 2.375 1.9375 C2.684375 2.9584375 2.684375 2.9584375 3 4 C3.66 4.33 4.32 4.66 5 5 C4.01 6.485 4.01 6.485 3 8 C1.35 7.67 -0.3 7.34 -2 7 C-1.34 6.67 -0.68 6.34 0 6 C0 4.02 0 2.04 0 0 Z " fill="#BCBCBE" transform="translate(256,312)"/>
<path d="M0 0 C0.66 0.33 1.32 0.66 2 1 C2 1.99 2 2.98 2 4 C3.32 4.33 4.64 4.66 6 5 C6.33 6.65 6.66 8.3 7 10 C5.85073734 9.04578192 4.70569459 8.08647955 3.5625 7.125 C2.92441406 6.59132812 2.28632813 6.05765625 1.62890625 5.5078125 C0 4 0 4 -1 2 C-0.67 1.34 -0.34 0.68 0 0 Z " fill="#36364C" transform="translate(152,240)"/>
<path d="M0 0 C4.2742558 1.5830577 6.26531794 4.50568404 9 8 C3.51219512 7.51219512 3.51219512 7.51219512 1.125 5.125 C0 3 0 3 0 0 Z " fill="#6B6A79" transform="translate(337,197)"/>
<path d="M0 0 C0.33 1.32 0.66 2.64 1 4 C-2.96 4 -6.92 4 -11 4 C-7.54941314 1.69960876 -5.05904498 1.5261725 -1 1 C-0.67 0.67 -0.34 0.34 0 0 Z " fill="#535465" transform="translate(125,255)"/>
<path d="M0 0 C0.66 0 1.32 0 2 0 C2 0.99 2 1.98 2 3 C1.34 3 0.68 3 0 3 C0 3.66 0 4.32 0 5 C1.32 5.33 2.64 5.66 4 6 C3.34 6.66 2.68 7.32 2 8 C1.01 8 0.02 8 -1 8 C-1 7.01 -1 6.02 -1 5 C-1.66 4.67 -2.32 4.34 -3 4 C-1.625 2 -1.625 2 0 0 Z " fill="#14163A" transform="translate(229,235)"/>
<path d="M0 0 C2.64 0 5.28 0 8 0 C7.67 1.32 7.34 2.64 7 4 C6.34 3.67 5.68 3.34 5 3 C4.67 3.66 4.34 4.32 4 5 C1.48916886 3.74458443 1.12874554 2.49936512 0 0 Z " fill="#131530" transform="translate(241,198)"/>
<path d="M0 0 C1.32 0.66 2.64 1.32 4 2 C2.68 3.65 1.36 5.3 0 7 C-0.99 6.01 -1.98 5.02 -3 4 C-2.01 2.68 -1.02 1.36 0 0 Z " fill="#C1C1C1" transform="translate(228,276)"/>
<path d="M0 0 C0.99 0.33 1.98 0.66 3 1 C3 1.99 3 2.98 3 4 C3.99 3.01 4.98 2.02 6 1 C6.6875 2.8125 6.6875 2.8125 7 5 C5.5625 6.75 5.5625 6.75 4 8 C2.35 6.02 0.7 4.04 -1 2 C-0.67 1.34 -0.34 0.68 0 0 Z " fill="#4D4D63" transform="translate(376,249)"/>
<path d="M0 0 C2 1.375 2 1.375 4 3 C4 3.66 4 4.32 4 5 C4.66 5 5.32 5 6 5 C6 5.66 6 6.32 6 7 C6.66 7 7.32 7 8 7 C7.67 7.66 7.34 8.32 7 9 C5.35 8.67 3.7 8.34 2 8 C2.33 7.01 2.66 6.02 3 5 C2.34 5 1.68 5 1 5 C0.67 3.35 0.34 1.7 0 0 Z " fill="#626272" transform="translate(384,243)"/>
<path d="M0 0 C1.20628008 2.33214148 2.1654738 4.49642139 3 7 C1.02 7 -0.96 7 -3 7 C-2.38722388 4.03824877 -1.74627478 2.61941217 0 0 Z " fill="#BFBFC3" transform="translate(341,313)"/>
<path d="M0 0 C0.99 0 1.98 0 3 0 C4.52448631 2.9826906 5.93940067 5.818202 7 9 C5.0625 8.3125 5.0625 8.3125 3 7 C2.25 4.375 2.25 4.375 2 2 C1.01 1.67 0.02 1.34 -1 1 C-0.67 0.67 -0.34 0.34 0 0 Z " fill="#B8B7B9" transform="translate(394,246)"/>
<path d="M0 0 C1.32 1.32 2.64 2.64 4 4 C3.01 5.485 3.01 5.485 2 7 C2.99 7.99 3.98 8.98 5 10 C1.125 9.125 1.125 9.125 0 8 C-0.14115161 5.32941149 -0.04247107 2.67567762 0 0 Z " fill="#30314B" transform="translate(115,220)"/>
<path d="M0 0 C2.0625 0.4375 2.0625 0.4375 4 1 C4 1.99 4 2.98 4 4 C3.01 4.33 2.02 4.66 1 5 C0.26676204 7.01508358 0.26676204 7.01508358 0 9 C-0.33 9 -0.66 9 -1 9 C-1.09765625 2.84765625 -1.09765625 2.84765625 -1 1 C-0.67 0.67 -0.34 0.34 0 0 Z " fill="#ABABAD" transform="translate(233,285)"/>
<path d="M0 0 C1.32 1.32 2.64 2.64 4 4 C3.01 5.32 2.02 6.64 1 8 C0.01 6.68 -0.98 5.36 -2 4 C-1.34 2.68 -0.68 1.36 0 0 Z " fill="#D0D0D0" transform="translate(155,250)"/>
<path d="M0 0 C0.66 0 1.32 0 2 0 C1.5206753 4.31392226 0.2542015 6.16569547 -3 9 C-3.33 8.01 -3.66 7.02 -4 6 C-3.01 6 -2.02 6 -1 6 C-1.33 4.68 -1.66 3.36 -2 2 C-1.34 2 -0.68 2 0 2 C0 1.34 0 0.68 0 0 Z " fill="#42425B" transform="translate(237,240)"/>
<path d="M0 0 C1.32 1.32 2.64 2.64 4 4 C3.01 4 2.02 4 1 4 C0.34 4.66 -0.32 5.32 -1 6 C-2.32 4.35 -3.64 2.7 -5 1 C-2.525 1.495 -2.525 1.495 0 2 C0 1.34 0 0.68 0 0 Z " fill="#D1D3D4" transform="translate(147,242)"/>
<path d="M0 0 C2.125 0.9375 2.125 0.9375 4 2 C4 3.98 4 5.96 4 8 C-0.875 3.25 -0.875 3.25 -2 1 C-1.34 0.67 -0.68 0.34 0 0 Z " fill="#46475B" transform="translate(360,230)"/>
<path d="M0 0 C1.7074998 1.28062485 3.37373596 2.61767557 5 4 C5 4.66 5 5.32 5 6 C5.66 6 6.32 6 7 6 C6.67 6.66 6.34 7.32 6 8 C3.5625 6.8125 3.5625 6.8125 1 5 C0.1875 2.3125 0.1875 2.3125 0 0 Z " fill="#56576E" transform="translate(150,226)"/>
<path d="M0 0 C2.475 0.99 2.475 0.99 5 2 C2.04816899 4.95183101 -0.95511947 5.08663988 -5 6 C-3.35 4.02 -1.7 2.04 0 0 Z " fill="#404259" transform="translate(190,201)"/>
<path d="M0 0 C0.99 0.33 1.98 0.66 3 1 C3 3.64 3 6.28 3 9 C2.01 8.67 1.02 8.34 0 8 C0 5.36 0 2.72 0 0 Z " fill="#BCBCBC" transform="translate(320,180)"/>
<path d="M0 0 C-0.639375 0.268125 -1.27875 0.53625 -1.9375 0.8125 C-4.33131686 1.88667752 -4.33131686 1.88667752 -5 5 C-5 4.34 -5 3.68 -5 3 C-5.66 3 -6.32 3 -7 3 C-7 2.01 -7 1.02 -7 0 C-4.3333581 -1.33332095 -2.83319697 -0.67102033 0 0 Z " fill="#C6C6C6" transform="translate(346,275)"/>
<path d="M0 0 C0.66 0 1.32 0 2 0 C2.66 1.98 3.32 3.96 4 6 C2.35 6 0.7 6 -1 6 C-0.67 4.02 -0.34 2.04 0 0 Z " fill="#BBBBBD" transform="translate(203,314)"/>
<path d="M0 0 C5.875 4.625 5.875 4.625 7 8 C6.01 7.67 5.02 7.34 4 7 C4 6.34 4 5.68 4 5 C3.01 5 2.02 5 1 5 C0.67 3.35 0.34 1.7 0 0 Z " fill="#CECED0" transform="translate(408,258)"/>
<path d="M0 0 C0.33 1.32 0.66 2.64 1 4 C-0.96466413 5.06775224 -2.96855359 6.06553465 -5 7 C-5.66 6.67 -6.32 6.34 -7 6 C-4.69 4.02 -2.38 2.04 0 0 Z " fill="#5E5F74" transform="translate(225,239)"/>
<path d="M0 0 C1.485 0.99 1.485 0.99 3 2 C1.25 7.75 1.25 7.75 -1 10 C-0.67 6.7 -0.34 3.4 0 0 Z " fill="#5B5B6D" transform="translate(284,235)"/>
<path d="M0 0 C0.66 0.33 1.32 0.66 2 1 C1.01 2.98 0.02 4.96 -1 7 C-1.99 7 -2.98 7 -4 7 C-2.79618552 4.50638429 -1.54571278 2.31856917 0 0 Z " fill="#C4C4C5" transform="translate(369,275)"/>
<path d="M0 0 C1.32 1.32 2.64 2.64 4 4 C3.01 5.32 2.02 6.64 1 8 C0.67 7.01 0.34 6.02 0 5 C-0.66 4.67 -1.32 4.34 -2 4 C-1.01 4 -0.02 4 1 4 C0.67 2.68 0.34 1.36 0 0 Z " fill="#D3D0D4" transform="translate(162,257)"/>
<path d="M0 0 C1.98 1.65 3.96 3.3 6 5 C4 6 4 6 0.875 5.0625 C-0.07375 4.711875 -1.0225 4.36125 -2 4 C-1.34 2.68 -0.68 1.36 0 0 Z " fill="#727384" transform="translate(378,237)"/>
<path d="M0 0 C0.33 0.66 0.66 1.32 1 2 C1.66 2.33 2.32 2.66 3 3 C1.625 5 1.625 5 0 7 C-0.66 7 -1.32 7 -2 7 C-1.125 2.25 -1.125 2.25 0 0 Z " fill="#535268" transform="translate(281,219)"/>
<path d="M0 0 C0.66 0 1.32 0 2 0 C1.40072174 3.35595828 0.15377564 5.37801226 -2 8 C-2.125 5.125 -2.125 5.125 -2 2 C-1.34 1.34 -0.68 0.68 0 0 Z " fill="#3F4255" transform="translate(194,212)"/>
<path d="M0 0 C1.9375 0.75 1.9375 0.75 4 2 C4.75 4.125 4.75 4.125 5 6 C3.68 5.67 2.36 5.34 1 5 C0.67 3.35 0.34 1.7 0 0 Z " fill="#C3C2C1" transform="translate(345,196)"/>
<path d="M0 0 C0.99 1.32 1.98 2.64 3 4 C1.02 4.33 -0.96 4.66 -3 5 C-3.33 4.34 -3.66 3.68 -4 3 C-3.34 2.34 -2.68 1.68 -2 1 C-1.34 1.33 -0.68 1.66 0 2 C0 1.34 0 0.68 0 0 Z " fill="#33334E" transform="translate(147,222)"/>
</svg>
