<?xml version="1.0" encoding="UTF-8"?>
<svg version="1.1" xmlns="http://www.w3.org/2000/svg" width="333" height="171">
<path d="M0 0 C5.62510642 1.12502128 5.62510642 1.12502128 8.33467102 3.8401947 C8.94736343 4.44449814 9.56005585 5.04880157 10.1913147 5.67141724 C10.84659149 6.33793304 11.50186829 7.00444885 12.17700195 7.69116211 C12.87998917 8.39035263 13.58297638 9.08954315 14.30726624 9.80992126 C16.62749015 12.12273758 18.93300391 14.44963664 21.23828125 16.77734375 C22.84466342 18.38610976 24.45178519 19.99413757 26.05961609 21.60145569 C29.42561961 24.97058735 32.78479556 28.34633373 36.13891602 31.72729492 C40.44769362 36.07010662 44.76957511 40.39958107 49.09615803 44.72464657 C52.41404199 48.04307313 55.72669729 51.36667691 59.03758812 54.69207954 C60.63007022 56.29094378 62.22378229 57.8885839 63.81871986 59.4849987 C66.0408961 61.71148975 68.25637321 63.94442742 70.4699707 66.17944336 C71.46806763 67.17618073 71.46806763 67.17618073 72.48632812 68.1930542 C73.08492142 68.80017746 73.68351471 69.40730072 74.30024719 70.03282166 C74.82470586 70.56063201 75.34916452 71.08844236 75.88951588 71.63224697 C77 73 77 73 77 75 C77.59401611 75.26949463 78.18803223 75.53898926 78.80004883 75.81665039 C80.99350722 76.99650755 82.44231273 78.18434906 84.19921875 79.93359375 C84.76833984 80.50013672 85.33746094 81.06667969 85.92382812 81.65039062 C86.50583984 82.24013672 87.08785156 82.82988281 87.6875 83.4375 C88.57791992 84.31631836 88.57791992 84.31631836 89.48632812 85.21289062 C90.33420898 86.06463867 90.33420898 86.06463867 91.19921875 86.93359375 C91.71315186 87.44978271 92.22708496 87.96597168 92.7565918 88.49780273 C94 90 94 90 95 93 C93.12641196 94.87358804 90.42268426 94.12281958 87.92962164 94.12908131 C87.04928922 94.12616847 86.16895679 94.12325563 85.26194763 94.12025452 C84.33412682 94.12110894 83.40630601 94.12196337 82.45036942 94.12284368 C79.31642179 94.12450133 76.18252675 94.11897248 73.04858398 94.11352539 C70.81201173 94.11324355 68.57543939 94.11340118 66.33886719 94.1139679 C60.24613747 94.11425601 54.15342725 94.10835707 48.06070209 94.10139394 C41.70120005 94.09516267 35.34169761 94.09455678 28.98219299 94.09336853 C18.30135723 94.09060883 7.6205292 94.0843533 -3.06030273 94.07543945 C-14.06355758 94.06626605 -25.06681047 94.05918487 -36.07006836 94.05493164 C-37.08674627 94.05453756 -37.08674627 94.05453756 -38.12396313 94.05413551 C-41.52407665 94.05283051 -44.9241902 94.05156679 -48.32430375 94.05032361 C-76.549541 94.03995013 -104.77476968 94.02205663 -133 94 C-133 100.27 -133 106.54 -133 113 C-137.53408905 111.86647774 -138.74125522 110.63328264 -141.984375 107.37890625 C-142.67506073 106.68896828 -142.67506073 106.68896828 -143.37969971 105.98509216 C-144.34805383 105.01440344 -145.31273083 104.04003424 -146.27392578 103.06225586 C-147.75005487 101.56244425 -149.23914838 100.07648806 -150.73046875 98.59179688 C-158 91.2668115 -158 91.2668115 -158 89 C-158.66 89 -159.32 89 -160 89 C-160 88.34 -160 87.68 -160 87 C-160.66 87 -161.32 87 -162 87 C-162 86.34 -162 85.68 -162 85 C-162.8813562 84.60760132 -162.8813562 84.60760132 -163.78051758 84.20727539 C-166.12725861 82.93077837 -167.64398578 81.58487727 -169.51171875 79.68359375 C-170.51295776 78.67244507 -170.51295776 78.67244507 -171.53442383 77.64086914 C-172.24493896 76.91375732 -172.9554541 76.18664551 -173.6875 75.4375 C-174.42701904 74.69040771 -175.16653809 73.94331543 -175.9284668 73.17358398 C-179.09040906 69.97894463 -182.24040775 66.77261914 -185.39160156 63.56738281 C-187.69450086 61.22836706 -190.00332756 58.89532014 -192.3125 56.5625 C-193.02301514 55.83538818 -193.73353027 55.10827637 -194.46557617 54.35913086 C-195.13306885 53.68503174 -195.80056152 53.01093262 -196.48828125 52.31640625 C-197.07134033 51.72287354 -197.65439941 51.12934082 -198.25512695 50.51782227 C-199.95140077 48.91290795 -199.95140077 48.91290795 -202.11499023 47.95239258 C-204.50999109 46.74232933 -205.28655329 45.06627615 -206.66992188 42.83691406 C-210.30468126 37.81710319 -215.3165769 33.7105658 -219.796875 29.45703125 C-220.5909375 28.68488281 -221.385 27.91273437 -222.203125 27.1171875 C-222.93176758 26.42222168 -223.66041016 25.72725586 -224.41113281 25.01123047 C-226 23 -226 23 -226 19 C-222.13715464 19.55696334 -220.41878055 21.24139101 -217.7421875 24 C-216.55689453 25.2065625 -216.55689453 25.2065625 -215.34765625 26.4375 C-214.53167969 27.283125 -213.71570313 28.12875 -212.875 29 C-211.24951299 30.66873158 -209.62200893 32.33550152 -207.9921875 34 C-207.27401855 34.7425 -206.55584961 35.485 -205.81591797 36.25 C-204.10759631 38.0706351 -204.10759631 38.0706351 -202 39 C-202 39.66 -202 40.32 -202 41 C-201.34 41 -200.68 41 -200 41 C-200 41.66 -200 42.32 -200 43 C-199.34 43 -198.68 43 -198 43 C-198 43.66 -198 44.32 -198 45 C-197.34 45 -196.68 45 -196 45 C-194.27375161 46.62591109 -192.64131545 48.29054506 -191 50 C-189.65122575 51.34460267 -188.29892328 52.68567078 -186.9440918 54.02416992 C-182.75378589 58.17890292 -178.56957416 62.33971674 -174.38745117 66.50268555 C-172.58029627 68.29970901 -170.7713613 70.09494404 -168.96069336 71.88842773 C-166.34803553 74.47696217 -163.74177011 77.07178235 -161.13671875 79.66796875 C-160.32120041 80.47316452 -159.50568207 81.27836029 -158.66545105 82.10795593 C-157.92080093 82.85245499 -157.17615082 83.59695404 -156.40893555 84.36401367 C-155.74895065 85.01955734 -155.08896576 85.67510101 -154.40898132 86.35050964 C-153 88 -153 88 -153 90 C-152.34 90 -151.68 90 -151 90 C-149.375 91.375 -149.375 91.375 -148 93 C-148 93.66 -148 94.32 -148 95 C-147.34 95 -146.68 95 -146 95 C-146 95.66 -146 96.32 -146 97 C-145.34 97 -144.68 97 -144 97 C-144 97.66 -144 98.32 -144 99 C-143.34 99 -142.68 99 -142 99 C-140.68 100.65 -139.36 102.3 -138 104 C-137.67 99.38 -137.34 94.76 -137 90 C-115.75004507 89.82739181 -94.50004634 89.660943 -73.25 89.5 C-72.46558312 89.49405146 -71.68116625 89.48810292 -70.87297916 89.48197412 C-30.04030627 89.17269427 10.79085514 88.89775874 51.625 88.9375 C52.51132614 88.93835602 53.39765228 88.93921204 54.31083679 88.94009399 C64.54058412 88.95076923 74.77029126 88.96954581 85 89 C84.34 87.68 83.68 86.36 83 85 C82.34 85 81.68 85 81 85 C81 84.34 81 83.68 81 83 C80.34 83 79.68 83 79 83 C76.875 81.125 76.875 81.125 75 79 C75 78.34 75 77.68 75 77 C74.01 76.67 73.02 76.34 72 76 C72 75.34 72 74.68 72 74 C71.34 74 70.68 74 70 74 C70 73.34 70 72.68 70 72 C69.34 72 68.68 72 68 72 C68 71.34 68 70.68 68 70 C67.34 70 66.68 70 66 70 C66 69.34 66 68.68 66 68 C65.34 68 64.68 68 64 68 C64 67.34 64 66.68 64 66 C63.34 66 62.68 66 62 66 C62 65.34 62 64.68 62 64 C61.34 64 60.68 64 60 64 C60 63.34 60 62.68 60 62 C59.34 62 58.68 62 58 62 C55.375 59.625 55.375 59.625 53 57 C53 56.34 53 55.68 53 55 C52.34 55 51.68 55 51 55 C51 54.34 51 53.68 51 53 C50.34 53 49.68 53 49 53 C49 52.34 49 51.68 49 51 C48.34 51 47.68 51 47 51 C47 50.34 47 49.68 47 49 C46.34 49 45.68 49 45 49 C42.375 46.625 42.375 46.625 40 44 C40 43.34 40 42.68 40 42 C39.34 42 38.68 42 38 42 C38 41.34 38 40.68 38 40 C37.34 40 36.68 40 36 40 C36 39.34 36 38.68 36 38 C35.34 38 34.68 38 34 38 C31.375 35.625 31.375 35.625 29 33 C29 32.34 29 31.68 29 31 C28.34 31 27.68 31 27 31 C27 30.34 27 29.68 27 29 C26.34 29 25.68 29 25 29 C25 28.34 25 27.68 25 27 C24.34 27 23.68 27 23 27 C23 26.34 23 25.68 23 25 C22.34 25 21.68 25 21 25 C21 24.34 21 23.68 21 23 C20.34 23 19.68 23 19 23 C19 22.34 19 21.68 19 21 C18.34 21 17.68 21 17 21 C17 20.34 17 19.68 17 19 C16.34 19 15.68 19 15 19 C13.4140625 17.390625 13.4140625 17.390625 11.625 15.25 C9.18382134 12.3756268 6.72350008 9.61456008 4 7 C3.67 9.97 3.34 12.94 3 16 C2.01 15.67 1.02 15.34 0 15 C0 10.05 0 5.1 0 0 Z " fill="#D6D5D9" transform="translate(226,0)"/>
<path d="M0 0 C8.09835853 6.64229003 11.45470568 14.13494246 13.5625 24.1875 C14.575488 35.2643036 10.27370318 42.78352944 3.5 51.0625 C-5.51418555 58.43774272 -14.84919549 60.20261629 -26.25 59.3125 C-32.14615871 57.79724217 -37.47849697 55.07947608 -42.25 51.3125 C-42.25 50.6525 -42.25 49.9925 -42.25 49.3125 C-42.91 49.3125 -43.57 49.3125 -44.25 49.3125 C-49.54182713 43.13870168 -51.6194502 34.72634861 -52.75 26.8125 C-51.04721243 14.89298702 -47.06320873 6.33654959 -37.390625 -1.12109375 C-26.12780486 -8.17327242 -10.79648621 -7.53290958 0 0 Z M-33.0625 12.5 C-37.28115268 17.92398202 -38.98942316 23.41121716 -38.25 30.3125 C-36.8753181 35.8751663 -34.81889984 39.67814785 -30.25 43.3125 C-25.17904581 46.08717305 -20.91873605 47.10791553 -15.25 46.3125 C-9.15012899 44.52460677 -5.71467375 41.48183752 -2.25 36.3125 C0.06659225 31.25811691 0.67463365 26.47950865 -0.90234375 21.078125 C-3.06944033 15.53482216 -5.86086463 11.10649822 -11.25 8.3125 C-19.55175566 6.11934962 -26.33599042 7.26827033 -33.0625 12.5 Z " fill="#212341" transform="translate(135.25,27.6875)"/>
<path d="M0 0 C1.42407227 2.23461914 1.42407227 2.23461914 2.81640625 5.16015625 C3.33356201 6.24466064 3.85071777 7.32916504 4.38354492 8.4465332 C7.14148203 14.50932954 9.78208654 20.61550739 12.375 26.75 C12.92543602 28.04441769 13.47621565 29.33868932 14.02734375 30.6328125 C15.35492718 33.75379811 16.67907847 36.87619043 18 40 C20.29268035 37.14764682 21.84127375 34.39948913 23.26953125 31.03515625 C23.88634766 29.5958374 23.88634766 29.5958374 24.515625 28.12744141 C24.94359375 27.11601074 25.3715625 26.10458008 25.8125 25.0625 C26.70351988 22.98789138 27.59544263 20.9136703 28.48828125 18.83984375 C28.91834473 17.83808105 29.3484082 16.83631836 29.79150391 15.80419922 C31.33169186 12.23034087 32.89856183 8.67188898 34.5 5.125 C35.16515625 3.64386719 35.16515625 3.64386719 35.84375 2.1328125 C37 0 37 0 39 -1 C40.87379605 -1.07033769 42.75001102 -1.0843022 44.625 -1.0625 C46.12933594 -1.04896484 46.12933594 -1.04896484 47.6640625 -1.03515625 C48.43492187 -1.02355469 49.20578125 -1.01195313 50 -1 C51.08458333 2.22727484 50.97478322 3.82846365 49.55859375 6.90625 C49.22545166 7.64351318 48.89230957 8.38077637 48.54907227 9.14038086 C48.18225342 9.91905518 47.81543457 10.69772949 47.4375 11.5 C47.06616943 12.31025635 46.69483887 13.1205127 46.31225586 13.95532227 C43.86060113 19.26926672 41.29461787 24.52052357 38.63671875 29.734375 C36.48725857 34.02303541 34.42850204 38.35223595 32.375 42.6875 C32.0025415 43.47181396 31.63008301 44.25612793 31.24633789 45.06420898 C30.88403076 45.83063721 30.52172363 46.59706543 30.1484375 47.38671875 C29.61041504 48.52052979 29.61041504 48.52052979 29.06152344 49.67724609 C28.33179609 51.27398619 27.63890265 52.8879132 26.97753906 54.51416016 C26.6472168 55.32030762 26.31689453 56.12645508 25.9765625 56.95703125 C25.69119629 57.68510986 25.40583008 58.41318848 25.11181641 59.16333008 C23.71267924 61.47464077 22.5086427 62.07092813 20 63 C17.0625 63.25 17.0625 63.25 14 62 C12.78076172 60.05078125 12.78076172 60.05078125 11.6171875 57.5625 C11.18704346 56.65790039 10.75689941 55.75330078 10.3137207 54.82128906 C9.88019287 53.89026367 9.44666504 52.95923828 9 52 C8.17989183 50.3065613 7.35830449 48.61383806 6.53515625 46.921875 C5.70921675 45.19874041 4.88503449 43.47476256 4.0625 41.75 C3.62574951 40.83468506 3.18899902 39.91937012 2.73901367 38.97631836 C-0.18614899 32.80880673 -2.92111579 26.59601634 -5.55078125 20.296875 C-7.71441869 15.37474561 -10.18771718 10.62607301 -12.6796875 5.86328125 C-14 3 -14 3 -14 0 C-4.54724409 -1.73622047 -4.54724409 -1.73622047 0 0 Z " fill="#262845" transform="translate(160,24)"/>
<path d="M0 0 C2.0078125 0.1328125 2.0078125 0.1328125 5.0078125 1.1328125 C5.0078125 1.7928125 5.0078125 2.4528125 5.0078125 3.1328125 C5.6678125 3.1328125 6.3278125 3.1328125 7.0078125 3.1328125 C7.0078125 3.7928125 7.0078125 4.4528125 7.0078125 5.1328125 C7.6678125 5.1328125 8.3278125 5.1328125 9.0078125 5.1328125 C10.3828125 6.49609375 10.3828125 6.49609375 12.0078125 8.4453125 C15.8897432 13.03304878 19.96419722 17.42295293 24.06640625 21.8125 C26.0078125 24.1328125 26.0078125 24.1328125 26.0078125 26.1328125 C26.6678125 26.1328125 27.3278125 26.1328125 28.0078125 26.1328125 C29.734375 27.8828125 29.734375 27.8828125 31.6328125 30.1328125 C32.26445313 30.8753125 32.89609375 31.6178125 33.546875 32.3828125 C34.27003906 33.2490625 34.27003906 33.2490625 35.0078125 34.1328125 C35.04539673 32.64116577 35.04539673 32.64116577 35.08374023 31.11938477 C35.17766132 27.44232503 35.27791869 23.765461 35.38012695 20.08862305 C35.42353396 18.4949195 35.46520469 16.9011677 35.50512695 15.30737305 C35.56269057 13.02117342 35.62642399 10.73521801 35.69140625 8.44921875 C35.70811874 7.73254532 35.72483124 7.01587189 35.74205017 6.27748108 C35.89394079 1.24668421 35.89394079 1.24668421 37.0078125 0.1328125 C39.00580822 0.03407434 41.00738408 0.00309451 43.0078125 0.0078125 C44.1009375 0.00523438 45.1940625 0.00265625 46.3203125 0 C49.0078125 0.1328125 49.0078125 0.1328125 50.0078125 1.1328125 C50.1018192 3.09650403 50.12524631 5.06360449 50.12133789 7.02954102 C50.12126236 8.29077286 50.12118683 9.5520047 50.12110901 10.85145569 C50.1160016 12.23821044 50.11078559 13.62496479 50.10546875 15.01171875 C50.10360451 16.42276459 50.10218064 17.83381107 50.10118103 19.24485779 C50.09735629 22.96521785 50.0875264 26.6855391 50.07647705 30.40588379 C50.06626198 34.19962031 50.06168321 37.99336308 50.05664062 41.78710938 C50.04590408 49.23569481 50.0288282 56.68424822 50.0078125 64.1328125 C46.59999158 62.52298452 44.39598796 60.74298848 41.75 58.03515625 C40.95980469 57.23400391 40.16960937 56.43285156 39.35546875 55.60742188 C38.53949219 54.77017578 37.72351562 53.93292969 36.8828125 53.0703125 C35.25742544 51.41058628 33.62992623 49.75292503 32 48.09765625 C31.28183105 47.361521 30.56366211 46.62538574 29.82373047 45.86694336 C28.11259705 44.06258243 28.11259705 44.06258243 26.0078125 43.1328125 C26.0078125 42.4728125 26.0078125 41.8128125 26.0078125 41.1328125 C25.3478125 41.1328125 24.6878125 41.1328125 24.0078125 41.1328125 C21.8828125 39.2578125 21.8828125 39.2578125 20.0078125 37.1328125 C20.0078125 36.4728125 20.0078125 35.8128125 20.0078125 35.1328125 C19.3478125 35.1328125 18.6878125 35.1328125 18.0078125 35.1328125 C18.0078125 34.4728125 18.0078125 33.8128125 18.0078125 33.1328125 C17.3478125 33.1328125 16.6878125 33.1328125 16.0078125 33.1328125 C16.0078125 32.4728125 16.0078125 31.8128125 16.0078125 31.1328125 C15.3478125 31.1328125 14.6878125 31.1328125 14.0078125 31.1328125 C14.0078125 30.4728125 14.0078125 29.8128125 14.0078125 29.1328125 C13.3478125 29.1328125 12.6878125 29.1328125 12.0078125 29.1328125 C12.0078125 28.4728125 12.0078125 27.8128125 12.0078125 27.1328125 C11.3478125 27.1328125 10.6878125 27.1328125 10.0078125 27.1328125 C10.0078125 26.4728125 10.0078125 25.8128125 10.0078125 25.1328125 C9.3478125 25.1328125 8.6878125 25.1328125 8.0078125 25.1328125 C8.0078125 24.4728125 8.0078125 23.8128125 8.0078125 23.1328125 C7.3478125 23.1328125 6.6878125 23.1328125 6.0078125 23.1328125 C4.32048973 21.15020824 2.65415193 19.1495783 1.0078125 17.1328125 C0.3478125 16.8028125 -0.3121875 16.4728125 -0.9921875 16.1328125 C-0.9921875 15.4728125 -0.9921875 14.8128125 -0.9921875 14.1328125 C-1.9203125 13.6996875 -1.9203125 13.6996875 -2.8671875 13.2578125 C-4.9921875 12.1328125 -4.9921875 12.1328125 -6.9921875 10.1328125 C-7.22265625 8.00390625 -7.22265625 8.00390625 -7.1796875 5.5703125 C-7.17324219 4.76464844 -7.16679687 3.95898438 -7.16015625 3.12890625 C-6.79549621 -1.20461193 -3.65751528 0.01349637 0 0 Z " fill="#292B49" transform="translate(25.9921875,22.8671875)"/>
<path d="M0 0 C3.23585361 1.61792681 4.83246068 2.55804109 7.25 5 C8.03117188 5.7734375 8.03117188 5.7734375 8.828125 6.5625 C10 8 10 8 10 10 C10.81210938 10.32484375 10.81210938 10.32484375 11.640625 10.65625 C14.81645344 12.46499997 17.20728081 14.91723799 19.75 17.5 C20.25660156 17.99886719 20.76320313 18.49773438 21.28515625 19.01171875 C25 22.74658861 25 22.74658861 25 25 C25.56203125 25.2371875 26.1240625 25.474375 26.703125 25.71875 C29.51894042 27.28947697 31.47955416 29.21471464 33.75 31.5 C34.54921875 32.2940625 35.3484375 33.088125 36.171875 33.90625 C38 36 38 36 38 38 C38.66 38 39.32 38 40 38 C40 38.66 40 39.32 40 40 C40.87398438 40.38671875 40.87398438 40.38671875 41.765625 40.78125 C44.1802903 42.09834017 45.81740177 43.55088384 47.75 45.5 C48.67039062 46.41265625 48.67039062 46.41265625 49.609375 47.34375 C51 49 51 49 51 51 C51.66 51 52.32 51 53 51 C53 51.66 53 52.32 53 53 C53.66 53 54.32 53 55 53 C56.36623674 55.73247348 56.128426 57.98198902 56 61 C53.8882464 63.1117536 50.74297634 62.81198854 47.921875 62.82421875 C41.73017452 61.07762944 37.66409116 55.02941791 34 50 C34 49.34 34 48.68 34 48 C33.34 48 32.68 48 32 48 C30.52483679 46.34191655 29.119287 44.62153953 27.75 42.875 C25.10704701 39.55743219 22.5028587 36.37117264 19.4375 33.4375 C18.633125 32.633125 17.82875 31.82875 17 31 C17 30.34 17 29.68 17 29 C16.34 29 15.68 29 15 29 C14.67 28.34 14.34 27.68 14 27 C13.97494385 28.02472412 13.9498877 29.04944824 13.92407227 30.10522461 C13.83015516 33.89409676 13.72989683 37.68277881 13.62768555 41.47143555 C13.58427703 43.11364303 13.54260642 44.75589739 13.50268555 46.39819336 C13.4451256 48.75388745 13.38139108 51.10934428 13.31640625 53.46484375 C13.29133751 54.57266457 13.29133751 54.57266457 13.26576233 55.7028656 C13.11387171 60.88612829 13.11387171 60.88612829 12 62 C8.04 62 4.08 62 0 62 C0 41.54 0 21.08 0 0 Z " fill="#333450" transform="translate(243,24)"/>
<path d="M0 0 C3.86284536 0.55696334 5.58121945 2.24139101 8.2578125 5 C9.44310547 6.2065625 9.44310547 6.2065625 10.65234375 7.4375 C11.46832031 8.283125 12.28429688 9.12875 13.125 10 C14.75048701 11.66873158 16.37799107 13.33550152 18.0078125 15 C18.72598145 15.7425 19.44415039 16.485 20.18408203 17.25 C21.89240369 19.0706351 21.89240369 19.0706351 24 20 C24 20.66 24 21.32 24 22 C24.66 22 25.32 22 26 22 C26 22.66 26 23.32 26 24 C26.66 24 27.32 24 28 24 C28 24.66 28 25.32 28 26 C28.66 26 29.32 26 30 26 C31.72624839 27.62591109 33.35868455 29.29054506 35 31 C36.34877425 32.34460267 37.70107672 33.68567078 39.0559082 35.02416992 C43.24621411 39.17890292 47.43042584 43.33971674 51.61254883 47.50268555 C53.41970373 49.29970901 55.2286387 51.09494404 57.03930664 52.88842773 C59.65196447 55.47696217 62.25822989 58.07178235 64.86328125 60.66796875 C65.67879959 61.47316452 66.49431793 62.27836029 67.33454895 63.10795593 C68.07919907 63.85245499 68.82384918 64.59695404 69.59106445 65.36401367 C70.25104935 66.01955734 70.91103424 66.67510101 71.59101868 67.35050964 C73 69 73 69 73 71 C73.66 71 74.32 71 75 71 C76.625 72.375 76.625 72.375 78 74 C78 74.66 78 75.32 78 76 C78.66 76 79.32 76 80 76 C80 76.66 80 77.32 80 78 C80.66 78 81.32 78 82 78 C82 78.66 82 79.32 82 80 C82.66 80 83.32 80 84 80 C85.32 81.65 86.64 83.3 88 85 C88.33 80.38 88.66 75.76 89 71 C94.51960953 70.97441527 100.03918139 70.95674572 105.55883789 70.94506836 C107.41887007 70.9401781 109.27889875 70.9334698 111.13891602 70.92456055 C122.4399059 70.87196903 133.71317193 71.03251497 145.00759113 71.43335044 C162.01616004 72.02348881 179.00509261 72.11060223 196.02215385 72.04459953 C200.88545384 72.02579523 205.74874751 72.01658297 210.61207581 72.00868225 C224.40881575 71.98488458 238.20550822 71.94817859 252.00219727 71.90405273 C259.69080379 71.87954521 267.37939395 71.86217075 275.06803375 71.85249335 C279.90381871 71.84596696 284.73946413 71.83045518 289.57520092 71.80817592 C292.55802207 71.79648827 295.54080903 71.79308144 298.52365112 71.79207802 C299.90803571 71.78992427 301.29241972 71.78431123 302.67677498 71.7750473 C304.55945858 71.76292816 306.4422144 71.76418878 308.32493591 71.76622009 C309.37900855 71.76307769 310.43308119 71.75993528 311.51909542 71.75669765 C314 72 314 72 316 74 C242.08 74 168.16 74 92 74 C92 80.6 92 87.2 92 94 C88.18884012 92.09442006 86.20484314 90.46226566 83.234375 87.5 C82.34492187 86.613125 81.45546875 85.72625 80.5390625 84.8125 C79.61867188 83.884375 78.69828125 82.95625 77.75 82 C76.81414062 81.071875 75.87828125 80.14375 74.9140625 79.1875 C74.02976562 78.300625 73.14546875 77.41375 72.234375 76.5 C71.42194336 75.6853125 70.60951172 74.870625 69.77246094 74.03125 C68 72 68 72 68 70 C67.34 70 66.68 70 66 70 C66 69.34 66 68.68 66 68 C65.34 68 64.68 68 64 68 C64 67.34 64 66.68 64 66 C63.1186438 65.60760132 63.1186438 65.60760132 62.21948242 65.20727539 C59.87274139 63.93077837 58.35601422 62.58487727 56.48828125 60.68359375 C55.82078857 60.00949463 55.1532959 59.33539551 54.46557617 58.64086914 C53.75506104 57.91375732 53.0445459 57.18664551 52.3125 56.4375 C51.57298096 55.69040771 50.83346191 54.94331543 50.0715332 54.17358398 C46.90959094 50.97894463 43.75959225 47.77261914 40.60839844 44.56738281 C38.30549914 42.22836706 35.99667244 39.89532014 33.6875 37.5625 C32.97698486 36.83538818 32.26646973 36.10827637 31.53442383 35.35913086 C30.86693115 34.68503174 30.19943848 34.01093262 29.51171875 33.31640625 C28.92865967 32.72287354 28.34560059 32.12934082 27.74487305 31.51782227 C26.04859923 29.91290795 26.04859923 29.91290795 23.88500977 28.95239258 C21.49000891 27.74232933 20.71344671 26.06627615 19.33007812 23.83691406 C15.69531874 18.81710319 10.6834231 14.7105658 6.203125 10.45703125 C5.4090625 9.68488281 4.615 8.91273437 3.796875 8.1171875 C3.06823242 7.42222168 2.33958984 6.72725586 1.58886719 6.01123047 C0 4 0 4 0 0 Z " fill="#C7C7C7" transform="translate(0,19)"/>
<path d="M0 0 C1.50046875 0.00386719 1.50046875 0.00386719 3.03125 0.0078125 C4.0315625 0.00523438 5.031875 0.00265625 6.0625 0 C8.53125 0.1328125 8.53125 0.1328125 9.53125 1.1328125 C9.63040795 3.02980099 9.65924314 4.93050037 9.66064453 6.83007812 C9.66379669 8.04804077 9.66694885 9.26600342 9.67019653 10.52087402 C9.66840675 11.86027055 9.6663558 13.19966674 9.6640625 14.5390625 C9.6647356 15.9028729 9.66570567 17.26668318 9.66696167 18.63049316 C9.66843838 21.49211771 9.66628497 24.3537111 9.66162109 27.21533203 C9.65592381 30.89099864 9.65920296 34.56659224 9.66519356 38.24225616 C9.66879991 41.05943354 9.66766025 43.87659348 9.66506577 46.69377136 C9.6643967 48.04941313 9.66522421 49.40505646 9.66754532 50.76069641 C9.67007301 52.65231294 9.66554014 54.54393499 9.66064453 56.43554688 C9.65984894 57.51396851 9.65905334 58.59239014 9.65823364 59.70349121 C9.53125 62.1328125 9.53125 62.1328125 8.53125 63.1328125 C6.51160801 63.20525303 4.48957876 63.21658438 2.46875 63.1953125 C1.36402344 63.18628906 0.25929687 63.17726562 -0.87890625 63.16796875 C-2.16087891 63.15056641 -2.16087891 63.15056641 -3.46875 63.1328125 C-3.49187737 55.06629076 -3.50966709 46.99978278 -3.52056217 38.93323612 C-3.52579014 35.18798213 -3.53288622 31.44275074 -3.54418945 27.69750977 C-3.55502141 24.08599563 -3.56102749 20.47450329 -3.56362724 16.86297417 C-3.56548094 15.48220921 -3.56910049 14.1014455 -3.57448006 12.72068977 C-3.58169447 10.79305298 -3.58215809 8.86539443 -3.58227539 6.93774414 C-3.584496 5.83854141 -3.58671661 4.73933868 -3.58900452 3.60682678 C-3.42709651 0.27586898 -3.32883894 0.17908311 0 0 Z " fill="#131635" transform="translate(220.46875,22.8671875)"/>
<path d="M0 0 C4.37477474 -0.11651725 8.74914827 -0.18736 13.125 -0.25 C14.3625 -0.28351563 15.6 -0.31703125 16.875 -0.3515625 C25.09653402 -0.43996609 28.9007038 0.04205885 34.8125 5.75 C37.56103931 10.9577587 37.4535314 16.62788653 35.87109375 22.171875 C34.05853624 25.97580735 30.71130198 28.14434901 27 30 C25.47851674 30.08372659 23.95344222 30.10730027 22.4296875 30.09765625 C21.53378906 30.09443359 20.63789062 30.09121094 19.71484375 30.08789062 C18.77769531 30.07951172 17.84054688 30.07113281 16.875 30.0625 C15.93011719 30.05798828 14.98523438 30.05347656 14.01171875 30.04882812 C11.67441613 30.03702357 9.33723939 30.02055759 7 30 C7.01160156 30.91523438 7.02320312 31.83046875 7.03515625 32.7734375 C7.04417969 33.96195313 7.05320312 35.15046875 7.0625 36.375 C7.07410156 37.55835938 7.08570312 38.74171875 7.09765625 39.9609375 C7 43 7 43 6 45 C4.33388095 45.042721 2.66617115 45.04063832 1 45 C0 44 0 44 -0.12025452 42.20933533 C-0.11803391 41.42990067 -0.11581329 40.650466 -0.11352539 39.84741211 C-0.11341209 38.52615578 -0.11341209 38.52615578 -0.11329651 37.1782074 C-0.10555458 35.74227989 -0.10555458 35.74227989 -0.09765625 34.27734375 C-0.0962413 33.30213272 -0.09482635 32.32692169 -0.09336853 31.32215881 C-0.08775133 28.19390857 -0.07519593 25.06572877 -0.0625 21.9375 C-0.05748722 19.82226666 -0.05292393 17.70703219 -0.04882812 15.59179688 C-0.03777631 10.39450704 -0.02102146 5.19725855 0 0 Z M6 5 C6.33 11.6 6.66 18.2 7 25 C11.021875 25.1546875 11.021875 25.1546875 15.125 25.3125 C15.95789551 25.35802002 16.79079102 25.40354004 17.64892578 25.45043945 C21.69150479 25.52519485 24.27139767 25.23516734 27.4921875 22.66796875 C30.37334064 19.60281673 31 18.17274053 31 14 C29.92447279 9.4827857 27.9028361 7.43227595 24 5 C20.87418983 4.52129201 17.84007997 4.6216131 14.6875 4.75 C11.820625 4.8325 8.95375 4.915 6 5 Z " fill="#AAAAAC" transform="translate(107,102)"/>
<path d="M0 0 C2.0078125 0.1328125 2.0078125 0.1328125 5.0078125 1.1328125 C5.0078125 1.7928125 5.0078125 2.4528125 5.0078125 3.1328125 C5.6678125 3.1328125 6.3278125 3.1328125 7.0078125 3.1328125 C7.0078125 3.7928125 7.0078125 4.4528125 7.0078125 5.1328125 C7.6678125 5.1328125 8.3278125 5.1328125 9.0078125 5.1328125 C10.3828125 6.49609375 10.3828125 6.49609375 12.0078125 8.4453125 C15.8897432 13.03304878 19.96419722 17.42295293 24.06640625 21.8125 C26.0078125 24.1328125 26.0078125 24.1328125 26.0078125 26.1328125 C26.6678125 26.1328125 27.3278125 26.1328125 28.0078125 26.1328125 C30.3178125 28.7728125 32.6278125 31.4128125 35.0078125 34.1328125 C35.3378125 23.2428125 35.6678125 12.3528125 36.0078125 1.1328125 C36.3378125 1.1328125 36.6678125 1.1328125 37.0078125 1.1328125 C37.0078125 13.3428125 37.0078125 25.5528125 37.0078125 38.1328125 C35.3578125 37.8028125 33.7078125 37.4728125 32.0078125 37.1328125 C28.9332769 37.9092057 28.9332769 37.9092057 27.0078125 40.1328125 C26.0178125 40.4628125 25.0278125 40.7928125 24.0078125 41.1328125 C22.63218396 39.84316074 21.30014857 38.50591957 20.0078125 37.1328125 C20.0078125 36.4728125 20.0078125 35.8128125 20.0078125 35.1328125 C19.3478125 35.1328125 18.6878125 35.1328125 18.0078125 35.1328125 C18.0078125 34.4728125 18.0078125 33.8128125 18.0078125 33.1328125 C17.3478125 33.1328125 16.6878125 33.1328125 16.0078125 33.1328125 C16.0078125 32.4728125 16.0078125 31.8128125 16.0078125 31.1328125 C15.3478125 31.1328125 14.6878125 31.1328125 14.0078125 31.1328125 C14.0078125 30.4728125 14.0078125 29.8128125 14.0078125 29.1328125 C13.3478125 29.1328125 12.6878125 29.1328125 12.0078125 29.1328125 C12.0078125 28.4728125 12.0078125 27.8128125 12.0078125 27.1328125 C11.3478125 27.1328125 10.6878125 27.1328125 10.0078125 27.1328125 C10.0078125 26.4728125 10.0078125 25.8128125 10.0078125 25.1328125 C9.3478125 25.1328125 8.6878125 25.1328125 8.0078125 25.1328125 C8.0078125 24.4728125 8.0078125 23.8128125 8.0078125 23.1328125 C7.3478125 23.1328125 6.6878125 23.1328125 6.0078125 23.1328125 C4.32048973 21.15020824 2.65415193 19.1495783 1.0078125 17.1328125 C0.3478125 16.8028125 -0.3121875 16.4728125 -0.9921875 16.1328125 C-0.9921875 15.4728125 -0.9921875 14.8128125 -0.9921875 14.1328125 C-1.9203125 13.6996875 -1.9203125 13.6996875 -2.8671875 13.2578125 C-4.9921875 12.1328125 -4.9921875 12.1328125 -6.9921875 10.1328125 C-7.22265625 8.00390625 -7.22265625 8.00390625 -7.1796875 5.5703125 C-7.17324219 4.76464844 -7.16679687 3.95898438 -7.16015625 3.12890625 C-6.79549621 -1.20461193 -3.65751528 0.01349637 0 0 Z " fill="#2C2E47" transform="translate(25.9921875,22.8671875)"/>
<path d="M0 0 C3.85575257 1.37267024 5.59503778 4.11856996 7.88671875 7.3359375 C8.32435547 7.92632812 8.76199219 8.51671875 9.21289062 9.125 C11.10887329 11.69543145 12.92745813 14.30329657 14.69921875 16.9609375 C15.24191406 16.14109375 15.78460938 15.32125 16.34375 14.4765625 C17.05917969 13.39890625 17.77460938 12.32125 18.51171875 11.2109375 C19.21941406 10.14359375 19.92710937 9.07625 20.65625 7.9765625 C21.66751953 6.48382813 21.66751953 6.48382813 22.69921875 4.9609375 C23.20453125 4.1771875 23.70984375 3.3934375 24.23046875 2.5859375 C25.69921875 0.9609375 25.69921875 0.9609375 29.38671875 0.7109375 C30.47984375 0.7934375 31.57296875 0.8759375 32.69921875 0.9609375 C31.38728279 5.76900552 29.4955334 8.81580876 26.26171875 12.5859375 C23.65091378 15.65696675 21.07656909 18.70450263 18.69921875 21.9609375 C19.69775541 23.39945437 20.69817151 24.83666658 21.69921875 26.2734375 C22.64474609 27.63082031 22.64474609 27.63082031 23.609375 29.015625 C26.39377778 32.93981135 29.28815174 36.77935956 32.1953125 40.61328125 C33.69921875 42.9609375 33.69921875 42.9609375 33.69921875 45.9609375 C30.94921875 46.2109375 30.94921875 46.2109375 27.69921875 45.9609375 C24.07093742 42.92745639 21.57223258 39.09846614 18.94921875 35.2109375 C18.33240234 34.30794922 18.33240234 34.30794922 17.703125 33.38671875 C16.69798443 31.91407093 15.69806397 30.43786248 14.69921875 28.9609375 C11.37189067 32.04207315 9.01640673 35.33658136 6.57421875 39.1484375 C2.91985932 44.85061722 2.91985932 44.85061722 0.69921875 45.9609375 C-1.30038137 46.0009295 -3.30125367 46.00440549 -5.30078125 45.9609375 C-4.68577383 42.55591977 -3.42614264 40.49905006 -1.32421875 37.7734375 C-0.4425 36.60167969 -0.4425 36.60167969 0.45703125 35.40625 C1.70470602 33.77226589 2.95734431 32.14206023 4.21484375 30.515625 C4.80007812 29.73445313 5.3853125 28.95328125 5.98828125 28.1484375 C6.53178223 27.44074219 7.0752832 26.73304687 7.63525391 26.00390625 C8.8927271 24.03889611 8.8927271 24.03889611 8.51147461 21.91064453 C7.66935623 19.88925668 6.72495753 18.32989943 5.4140625 16.578125 C4.96611328 15.96839844 4.51816406 15.35867187 4.05664062 14.73046875 C3.58806641 14.10527344 3.11949219 13.48007813 2.63671875 12.8359375 C-2.30078125 6.22116942 -2.30078125 6.22116942 -2.30078125 3.9609375 C-2.96078125 3.9609375 -3.62078125 3.9609375 -4.30078125 3.9609375 C-4.30078125 2.9709375 -4.30078125 1.9809375 -4.30078125 0.9609375 C-2.30078125 -0.0390625 -2.30078125 -0.0390625 0 0 Z " fill="#BBBBBC" transform="translate(249.30078125,101.0390625)"/>
<path d="M0 0 C2 3 2 3 2 5 C4.31 5.33 6.62 5.66 9 6 C9 6.66 9 7.32 9 8 C9.56203125 8.2371875 10.1240625 8.474375 10.703125 8.71875 C13.51894042 10.28947697 15.47955416 12.21471464 17.75 14.5 C18.54921875 15.2940625 19.3484375 16.088125 20.171875 16.90625 C22 19 22 19 22 21 C20.68 21 19.36 21 18 21 C18 21.66 18 22.32 18 23 C17.01 23.33 16.02 23.66 15 24 C12.8125 22.5625 12.8125 22.5625 11 21 C9.78922299 24.63233102 9.87555836 27.95121987 9.90234375 31.73046875 C9.90446617 32.85609978 9.90446617 32.85609978 9.90663147 34.00447083 C9.9122244 36.3988546 9.92477556 38.79314453 9.9375 41.1875 C9.94251592 42.81184761 9.94707866 44.43619668 9.95117188 46.06054688 C9.96219152 50.04040069 9.97945127 54.02018444 10 58 C8 59 8 59 0 59 C0 39.53 0 20.06 0 0 Z " fill="#171938" transform="translate(244,26)"/>
<path d="M0 0 C2.10546875 0.1328125 2.10546875 0.1328125 6.10546875 1.1328125 C6.10546875 14.9928125 6.10546875 28.8528125 6.10546875 43.1328125 C4.45546875 42.1428125 2.80546875 41.1528125 1.10546875 40.1328125 C1.10546875 39.4728125 1.10546875 38.8128125 1.10546875 38.1328125 C0.44546875 38.1328125 -0.21453125 38.1328125 -0.89453125 38.1328125 C-0.89453125 37.4728125 -0.89453125 36.8128125 -0.89453125 36.1328125 C-1.55453125 36.1328125 -2.21453125 36.1328125 -2.89453125 36.1328125 C-2.89453125 35.4728125 -2.89453125 34.8128125 -2.89453125 34.1328125 C-4.21453125 33.4728125 -5.53453125 32.8128125 -6.89453125 32.1328125 C-6.91918629 27.73625077 -6.93736967 23.3397253 -6.94946289 18.94311523 C-6.95450246 17.44636332 -6.96133412 15.94961634 -6.9699707 14.45288086 C-6.98205284 12.30581443 -6.98776316 10.15881288 -6.9921875 8.01171875 C-6.99742432 6.7182251 -7.00266113 5.42473145 -7.00805664 4.09204102 C-6.80901866 -1.09621575 -4.67119476 0.01752794 0 0 Z " fill="#222640" transform="translate(292.89453125,22.8671875)"/>
<path d="M0 0 C3.42448724 1.65070421 6.12850202 3.4786847 9 6 C9.87011719 6.75152344 10.74023438 7.50304688 11.63671875 8.27734375 C15.67981268 13.20178858 14.55722974 19.8020606 14.375 25.8125 C14.35373047 27.69098633 14.35373047 27.69098633 14.33203125 29.60742188 C14.18210494 38.81789506 14.18210494 38.81789506 13 40 C11.00200428 40.09873816 9.00042842 40.12971799 7 40.125 C5.906875 40.12757812 4.81375 40.13015625 3.6875 40.1328125 C1 40 1 40 0 39 C-0.08865208 36.1156618 -0.11521296 33.25537842 -0.09765625 30.37109375 C-0.0962413 29.50686295 -0.09482635 28.64263214 -0.09336853 27.75221252 C-0.08775239 24.98060708 -0.07519719 22.2090812 -0.0625 19.4375 C-0.05748708 17.5631522 -0.05292381 15.68880315 -0.04882812 13.81445312 C-0.03777772 9.20960456 -0.0205023 4.60481579 0 0 Z " fill="#242743" transform="translate(19,46)"/>
<path d="M0 0 C5.51960953 -0.02558473 11.03918139 -0.04325428 16.55883789 -0.05493164 C18.41887007 -0.0598219 20.27889875 -0.0665302 22.13891602 -0.07543945 C33.4399059 -0.12803097 44.71317193 0.03251497 56.00759113 0.43335044 C73.01616004 1.02348881 90.00509261 1.11060223 107.02215385 1.04459953 C111.88545384 1.02579523 116.74874751 1.01658297 121.61207581 1.00868225 C135.40881575 0.98488458 149.20550822 0.94817859 163.00219727 0.90405273 C170.69080379 0.87954521 178.37939395 0.86217075 186.06803375 0.85249335 C190.90381871 0.84596696 195.73946413 0.83045518 200.57520092 0.80817592 C203.55802207 0.79648827 206.54080903 0.79308144 209.52365112 0.79207802 C210.90803571 0.78992427 212.29241972 0.78431123 213.67677498 0.7750473 C215.55945858 0.76292816 217.4422144 0.76418878 219.32493591 0.76622009 C220.37900855 0.76307769 221.43308119 0.75993528 222.51909542 0.75669765 C225 1 225 1 227 3 C153.08 3 79.16 3 3 3 C3 9.6 3 16.2 3 23 C2.01 22.67 1.02 22.34 0 22 C0 21.34 0 20.68 0 20 C0.66 20 1.32 20 2 20 C2 19.01 2 18.02 2 17 C0.68 17 -0.64 17 -2 17 C-1.505 15.515 -1.505 15.515 -1 14 C-0.77439324 11.60745424 -0.59151405 9.21071877 -0.4375 6.8125 C-0.35371094 5.54019531 -0.26992187 4.26789063 -0.18359375 2.95703125 C-0.12300781 1.98121094 -0.06242187 1.00539063 0 0 Z " fill="#B2B2B5" transform="translate(89,90)"/>
<path d="M0 0 C9.57 0 19.14 0 29 0 C29.33 1.32 29.66 2.64 30 4 C27.43863779 6.56136221 26.33438669 6.29666857 22.7734375 6.4140625 C21.7421875 6.45273438 20.7109375 6.49140625 19.6484375 6.53125 C18.56820312 6.5621875 17.48796875 6.593125 16.375 6.625 C14.74304688 6.68300781 14.74304688 6.68300781 13.078125 6.7421875 C10.38558835 6.83666247 7.69306243 6.92222431 5 7 C5.33 7.99 5.66 8.98 6 10 C6.0685495 11.89470816 6.08480372 13.7916834 6.0625 15.6875 C6.05347656 16.68136719 6.04445312 17.67523438 6.03515625 18.69921875 C6.02355469 19.45847656 6.01195312 20.21773437 6 21 C7.1281311 20.94670532 7.1281311 20.94670532 8.27905273 20.89233398 C11.66497853 20.73536707 15.05120711 20.58632785 18.4375 20.4375 C19.62150391 20.38142578 20.80550781 20.32535156 22.02539062 20.26757812 C23.15009766 20.21923828 24.27480469 20.17089844 25.43359375 20.12109375 C26.47572021 20.0739624 27.51784668 20.02683105 28.59155273 19.97827148 C31 20 31 20 32 21 C32 22.65 32 24.3 32 26 C21.11 26 10.22 26 -1 26 C-1 5 -1 5 0 0 Z " fill="#B2B2B4" transform="translate(201,121)"/>
<path d="M0 0 C5.32545717 1.06509143 7.19600411 2.62663934 10.80004883 6.29833984 C11.35673248 6.84962051 11.91341614 7.40090118 12.48696899 7.96888733 C14.32036733 9.78979992 16.13888572 11.62480461 17.95703125 13.4609375 C19.22718188 14.73093317 20.49799936 16.00026222 21.76945496 17.26895142 C24.42944849 19.92756113 27.08233613 22.59300701 29.73022461 25.26367188 C33.12929969 28.69117447 36.54376135 32.10284375 39.96342945 35.50978661 C42.58809335 38.12750659 45.20535307 40.75252693 47.82031822 43.3799324 C49.07699015 44.64112829 50.33577003 45.90022732 51.59665871 47.15720749 C53.3542141 48.91186226 55.10178781 50.67587557 56.84692383 52.44287109 C57.3720607 52.96350632 57.89719757 53.48414154 58.43824768 54.02055359 C62 57.65698683 62 57.65698683 62 61 C58.21213403 60.4739075 55.82847776 59.61896089 53 57 C53 56.34 53 55.68 53 55 C52.34 55 51.68 55 51 55 C51 54.34 51 53.68 51 53 C50.34 53 49.68 53 49 53 C49 52.34 49 51.68 49 51 C48.34 51 47.68 51 47 51 C47 50.34 47 49.68 47 49 C46.34 49 45.68 49 45 49 C42.375 46.625 42.375 46.625 40 44 C40 43.34 40 42.68 40 42 C39.34 42 38.68 42 38 42 C38 41.34 38 40.68 38 40 C37.34 40 36.68 40 36 40 C36 39.34 36 38.68 36 38 C35.34 38 34.68 38 34 38 C31.375 35.625 31.375 35.625 29 33 C29 32.34 29 31.68 29 31 C28.34 31 27.68 31 27 31 C27 30.34 27 29.68 27 29 C26.34 29 25.68 29 25 29 C25 28.34 25 27.68 25 27 C24.34 27 23.68 27 23 27 C23 26.34 23 25.68 23 25 C22.34 25 21.68 25 21 25 C21 24.34 21 23.68 21 23 C20.34 23 19.68 23 19 23 C19 22.34 19 21.68 19 21 C18.34 21 17.68 21 17 21 C17 20.34 17 19.68 17 19 C16.34 19 15.68 19 15 19 C13.4140625 17.390625 13.4140625 17.390625 11.625 15.25 C9.18382134 12.3756268 6.72350008 9.61456008 4 7 C3.67 9.97 3.34 12.94 3 16 C2.01 15.67 1.02 15.34 0 15 C0 10.05 0 5.1 0 0 Z " fill="#C8C8C8" transform="translate(226,0)"/>
<path d="M0 0 C1.98 0 3.96 0 6 0 C6.02505615 1.11036621 6.0501123 2.22073242 6.07592773 3.36474609 C6.16994915 7.47603319 6.27018257 11.58714923 6.37231445 15.69824219 C6.4156833 17.47912603 6.45735694 19.26005198 6.49731445 21.04101562 C6.5549699 23.59778548 6.6186777 26.15434298 6.68359375 28.7109375 C6.70030624 29.50994476 6.71701874 30.30895203 6.73423767 31.13217163 C6.75392991 35.19806368 6.75392991 35.19806368 8 39 C15.59 39.33 23.18 39.66 31 40 C31 41.65 31 43.3 31 45 C26.93763598 45.08729047 22.87551411 45.14048992 18.8125 45.1875 C17.66201172 45.21263672 16.51152344 45.23777344 15.32617188 45.26367188 C14.21435547 45.27333984 13.10253906 45.28300781 11.95703125 45.29296875 C10.42526245 45.31653442 10.42526245 45.31653442 8.86254883 45.34057617 C5.53922541 44.94517863 3.68257842 43.96790197 1 42 C-0.69196504 38.61606992 -0.11986549 34.77522209 -0.09765625 31.0546875 C-0.0962413 30.1696756 -0.09482635 29.2846637 -0.09336853 28.37283325 C-0.0877614 25.54018809 -0.07520771 22.70762136 -0.0625 19.875 C-0.05748592 17.95703239 -0.05292285 16.03906354 -0.04882812 14.12109375 C-0.03778966 9.41403218 -0.02052025 4.7070294 0 0 Z " fill="#AFAFB0" transform="translate(157,102)"/>
<path d="M0 0 C0.33 0.99 0.66 1.98 1 3 C3.97 3.495 3.97 3.495 7 4 C7 4.66 7 5.32 7 6 C7.58265625 6.2578125 8.1653125 6.515625 8.765625 6.78125 C11.1802903 8.09834017 12.81740177 9.55088384 14.75 11.5 C15.36359375 12.1084375 15.9771875 12.716875 16.609375 13.34375 C18 15 18 15 18 17 C18.66 17 19.32 17 20 17 C20 17.66 20 18.32 20 19 C20.66 19 21.32 19 22 19 C23.36623674 21.73247348 23.128426 23.98198902 23 27 C20.8882464 29.1117536 17.74297634 28.81198854 14.921875 28.82421875 C8.73017452 27.07762944 4.66409116 21.02941791 1 16 C1 15.34 1 14.68 1 14 C0.34 14 -0.32 14 -1 14 C-2.6875 12.3125 -2.6875 12.3125 -4 10 C-3.6875 7.25 -3.6875 7.25 -3 5 C-2.34 5 -1.68 5 -1 5 C-0.67 3.35 -0.34 1.7 0 0 Z " fill="#161937" transform="translate(276,58)"/>
<path d="M0 0 C4.43353442 1.35469107 6.58269455 3.02871248 9 7 C10.2764535 12.56169024 10.50710163 17.73845937 8 23 C5.70165336 25.58644023 3.10494687 27.44752657 0 29 C-1.52148326 29.08372659 -3.04655778 29.10730027 -4.5703125 29.09765625 C-5.46621094 29.09443359 -6.36210938 29.09121094 -7.28515625 29.08789062 C-8.22230469 29.07951172 -9.15945312 29.07113281 -10.125 29.0625 C-11.06988281 29.05798828 -12.01476562 29.05347656 -12.98828125 29.04882812 C-15.3255477 29.03702375 -17.66278169 29.01908799 -20 29 C-20 33.29 -20 37.58 -20 42 C-20.33 42 -20.66 42 -21 42 C-21.09087891 40.66195312 -21.09087891 40.66195312 -21.18359375 39.296875 C-21.26738281 38.12640625 -21.35117188 36.9559375 -21.4375 35.75 C-21.51871094 34.58984375 -21.59992188 33.4296875 -21.68359375 32.234375 C-21.93247787 29.69022624 -22.28114942 27.44046752 -23 25 C-22.34 25 -21.68 25 -21 25 C-21 18.73 -21 12.46 -21 6 C-20.67 6 -20.34 6 -20 6 C-20 11.94 -20 17.88 -20 24 C-17.298125 23.9175 -14.59625 23.835 -11.8125 23.75 C-10.97050049 23.73420898 -10.12850098 23.71841797 -9.26098633 23.70214844 C-4.33492709 23.47964725 -1.52410804 22.75036401 2 19 C3.054337 15.69641073 3.1900744 13.72573862 2.3125 10.375 C0.86705595 7.75943458 -0.78664892 5.99201597 -3 4 C-2.01 2.68 -1.02 1.36 0 0 Z " fill="#BDBCBE" transform="translate(134,103)"/>
<path d="M0 0 C4.19653803 5.61383847 5.79571912 12.21223503 7 19 C5.68 18.34 4.36 17.68 3 17 C1.33378575 18.1645201 1.33378575 18.1645201 0 20 C0.23043864 22.65466049 0.23043864 22.65466049 1 25 C-0.98 25.99 -0.98 25.99 -3 27 C-3.31130859 26.16082031 -3.31130859 26.16082031 -3.62890625 25.3046875 C-5.96017711 19.23753071 -8.68487033 13.4791794 -11.71313477 7.73583984 C-13.16355809 4.93297875 -14 3.20738332 -14 0 C-9.04864089 -0.90943331 -4.8013187 -1.68935288 0 0 Z " fill="#272843" transform="translate(160,24)"/>
<path d="M0 0 C0.33 0 0.66 0 1 0 C1 12.21 1 24.42 1 37 C-0.65 36.67 -2.3 36.34 -4 36 C-7.0745356 36.7763932 -7.0745356 36.7763932 -9 39 C-10.485 39.495 -10.485 39.495 -12 40 C-13.37562854 38.71034824 -14.70766393 37.37310707 -16 36 C-16 35.34 -16 34.68 -16 34 C-16.66 34 -17.32 34 -18 34 C-18 33.34 -18 32.68 -18 32 C-18.66 32 -19.32 32 -20 32 C-20 31.34 -20 30.68 -20 30 C-20.66 30 -21.32 30 -22 30 C-22 29.34 -22 28.68 -22 28 C-22.66 28 -23.32 28 -24 28 C-24 27.34 -24 26.68 -24 26 C-24.66 26 -25.32 26 -26 26 C-26 25.34 -26 24.68 -26 24 C-26.66 24 -27.32 24 -28 24 C-27.67 23.34 -27.34 22.68 -27 22 C-26.34 22.33 -25.68 22.66 -25 23 C-25 23.66 -25 24.32 -25 25 C-24.2575 24.525625 -23.515 24.05125 -22.75 23.5625 C-20 22 -20 22 -17.75 21.5 C-16.88375 21.2525 -16.88375 21.2525 -16 21 C-15.67 20.01 -15.34 19.02 -15 18 C-13.29115995 19.62339805 -11.62553283 21.29319053 -10 23 C-10 23.66 -10 24.32 -10 25 C-9.34 25 -8.68 25 -8 25 C-5.69 27.64 -3.38 30.28 -1 33 C-0.67 22.11 -0.34 11.22 0 0 Z " fill="#32334D" transform="translate(62,24)"/>
<path d="M0 0 C1.98 0 3.96 0 6 0 C6 14.85 6 29.7 6 45 C4.35 45 2.7 45 1 45 C0 44 0 44 -0.12025452 42.20933533 C-0.11803391 41.42990067 -0.11581329 40.650466 -0.11352539 39.84741211 C-0.11341209 38.52615578 -0.11341209 38.52615578 -0.11329651 37.1782074 C-0.10555458 35.74227989 -0.10555458 35.74227989 -0.09765625 34.27734375 C-0.0962413 33.30213272 -0.09482635 32.32692169 -0.09336853 31.32215881 C-0.08775133 28.19390857 -0.07519593 25.06572877 -0.0625 21.9375 C-0.05748722 19.82226666 -0.05292393 17.70703219 -0.04882812 15.59179688 C-0.03777631 10.39450704 -0.02102146 5.19725855 0 0 Z " fill="#B8B8BA" transform="translate(296,102)"/>
<path d="M0 0 C10.89 0 21.78 0 33 0 C33 1.65 33 3.3 33 5 C24.09 5 15.18 5 6 5 C6 9.29 6 13.58 6 18 C4.02 18 2.04 18 0 18 C0 12.06 0 6.12 0 0 Z " fill="#B3B3B6" transform="translate(200,102)"/>
<path d="M0 0 C1.20011719 0.04769531 2.40023437 0.09539062 3.63671875 0.14453125 C6.46641155 0.25771896 9.29576516 0.37598598 12.125 0.5 C12.125 0.83 12.125 1.16 12.125 1.5 C-8.74389044 2.80859062 -29.63132154 2.65363079 -50.53125 2.63037109 C-55.68170822 2.62471203 -60.83211428 2.6280269 -65.98257065 2.63382339 C-89.63224584 2.65622627 -113.24210569 2.43034428 -136.875 1.5 C-136.875 1.17 -136.875 0.84 -136.875 0.5 C-125.52821802 0.36757173 -114.18141548 0.23707412 -102.83458519 0.10884857 C-97.56223868 0.04921154 -92.28990053 -0.01101954 -87.01757812 -0.07275391 C-19.57095004 -0.86102872 -19.57095004 -0.86102872 0 0 Z " fill="#D2D2D3" transform="translate(268.875,89.5)"/>
<path d="M0 0 C1.20970459 0.00523682 2.41940918 0.01047363 3.66577148 0.01586914 C4.97094727 0.0190918 6.27612305 0.02231445 7.62084961 0.02563477 C9.00952213 0.03399138 10.39819401 0.04245634 11.78686523 0.05102539 C13.17944179 0.05603873 14.57202005 0.06060193 15.96459961 0.06469727 C19.38456394 0.07653105 22.80444367 0.09301659 26.22436523 0.11352539 C26.84936523 1.98852539 26.84936523 1.98852539 27.22436523 4.11352539 C24.46997008 6.86792055 22.75833321 6.42341815 18.90405273 6.52758789 C17.01879883 6.5855957 17.01879883 6.5855957 15.09545898 6.64477539 C13.11739258 6.69118164 13.11739258 6.69118164 11.09936523 6.73852539 C9.75949605 6.77670568 8.4196514 6.81575745 7.07983398 6.85571289 C3.79481905 6.95024569 0.50981386 7.03579695 -2.77563477 7.11352539 C-3.15696775 5.12211979 -3.48889059 3.12073462 -3.77563477 1.11352539 C-2.77563477 0.11352539 -2.77563477 0.11352539 0 0 Z " fill="#BCBCC1" transform="translate(203.775634765625,120.886474609375)"/>
<path d="M0 0 C1.50046875 0.00386719 1.50046875 0.00386719 3.03125 0.0078125 C4.0315625 0.00523438 5.031875 0.00265625 6.0625 0 C8.53125 0.1328125 8.53125 0.1328125 9.53125 1.1328125 C9.63040795 3.02980099 9.65924314 4.93050037 9.66064453 6.83007812 C9.66379669 8.04804077 9.66694885 9.26600342 9.67019653 10.52087402 C9.66840675 11.86027055 9.6663558 13.19966674 9.6640625 14.5390625 C9.6647356 15.9028729 9.66570567 17.26668318 9.66696167 18.63049316 C9.66843838 21.49211771 9.66628497 24.3537111 9.66162109 27.21533203 C9.65592381 30.89099864 9.65920296 34.56659224 9.66519356 38.24225616 C9.66879991 41.05943354 9.66766025 43.87659348 9.66506577 46.69377136 C9.6643967 48.04941313 9.66522421 49.40505646 9.66754532 50.76069641 C9.67007301 52.65231294 9.66554014 54.54393499 9.66064453 56.43554688 C9.65984894 57.51396851 9.65905334 58.59239014 9.65823364 59.70349121 C9.53125 62.1328125 9.53125 62.1328125 8.53125 63.1328125 C6.51160801 63.20525303 4.48957876 63.21658438 2.46875 63.1953125 C1.36402344 63.18628906 0.25929687 63.17726562 -0.87890625 63.16796875 C-2.16087891 63.15056641 -2.16087891 63.15056641 -3.46875 63.1328125 C-3.49187737 55.06629076 -3.50966709 46.99978278 -3.52056217 38.93323612 C-3.52579014 35.18798213 -3.53288622 31.44275074 -3.54418945 27.69750977 C-3.55502141 24.08599563 -3.56102749 20.47450329 -3.56362724 16.86297417 C-3.56548094 15.48220921 -3.56910049 14.1014455 -3.57448006 12.72068977 C-3.58169447 10.79305298 -3.58215809 8.86539443 -3.58227539 6.93774414 C-3.584496 5.83854141 -3.58671661 4.73933868 -3.58900452 3.60682678 C-3.42709651 0.27586898 -3.32883894 0.17908311 0 0 Z M-2.46875 2.1328125 C-2.46875 21.9328125 -2.46875 41.7328125 -2.46875 62.1328125 C1.16125 62.1328125 4.79125 62.1328125 8.53125 62.1328125 C8.55380523 54.45744273 8.57216753 46.78208521 8.58306217 39.10669041 C8.58828995 35.54303828 8.59538569 31.97940993 8.60668945 28.41577148 C8.61959176 24.32275153 8.62447906 20.2297567 8.62890625 16.13671875 C8.63406754 14.85132706 8.63922882 13.56593536 8.64454651 12.24159241 C8.64462204 11.06044357 8.64469757 9.87929474 8.64477539 8.66235352 C8.646996 7.61644547 8.64921661 6.57053741 8.65150452 5.49293518 C8.79775985 3.17591955 8.79775985 3.17591955 7.53125 2.1328125 C4.23125 2.1328125 0.93125 2.1328125 -2.46875 2.1328125 Z " fill="#646675" transform="translate(220.46875,22.8671875)"/>
<path d="M0 0 C0.33 0.99 0.66 1.98 1 3 C1.94875 3.061875 2.8975 3.12375 3.875 3.1875 C4.90625 3.455625 5.9375 3.72375 7 4 C8.375 6.5625 8.375 6.5625 9 9 C8.67 9.33 8.34 9.66 8 10 C9.32 10.66 10.64 11.32 12 12 C10.68 13.32 9.36 14.64 8 16 C8.33 16.99 8.66 17.98 9 19 C9.66 19.33 10.32 19.66 11 20 C4.52443609 19.38909774 4.52443609 19.38909774 2.0625 17.5625 C1 16 1 16 1 14 C0.34 14 -0.32 14 -1 14 C-2.6875 12.3125 -2.6875 12.3125 -4 10 C-3.6875 7.25 -3.6875 7.25 -3 5 C-2.34 5 -1.68 5 -1 5 C-0.67 3.35 -0.34 1.7 0 0 Z " fill="#1C1F3C" transform="translate(276,58)"/>
<path d="M0 0 C0.33 0 0.66 0 1 0 C1 5.94 1 11.88 1 18 C3.7225 17.87625 6.445 17.7525 9.25 17.625 C10.10110352 17.59100098 10.95220703 17.55700195 11.82910156 17.52197266 C17.18043152 17.24678163 17.18043152 17.24678163 22 15 C22 15.66 22 16.32 22 17 C21.34 17.66 20.68 18.32 20 19 C20.33 20.32 20.66 21.64 21 23 C14.4 23 7.8 23 1 23 C1 27.29 1 31.58 1 36 C0.67 36 0.34 36 0 36 C-0.09087891 34.66195312 -0.09087891 34.66195312 -0.18359375 33.296875 C-0.26738281 32.12640625 -0.35117188 30.9559375 -0.4375 29.75 C-0.51871094 28.58984375 -0.59992188 27.4296875 -0.68359375 26.234375 C-0.93247787 23.69022624 -1.28114942 21.44046752 -2 19 C-1.34 19 -0.68 19 0 19 C0 12.73 0 6.46 0 0 Z " fill="#C7C7C9" transform="translate(113,109)"/>
<path d="M0 0 C8.91 0 17.82 0 27 0 C23 4 23 4 20.89355469 4.45410156 C19.79382324 4.42268066 19.79382324 4.42268066 18.671875 4.390625 C17.87265625 4.37773438 17.0734375 4.36484375 16.25 4.3515625 C15.425 4.31804687 14.6 4.28453125 13.75 4.25 C12.90953125 4.23195313 12.0690625 4.21390625 11.203125 4.1953125 C9.13492605 4.14830798 7.06731559 4.07656724 5 4 C5 3.34 5 2.68 5 2 C4.01 2 3.02 2 2 2 C1.67 15.86 1.34 29.72 1 44 C0.67 44 0.34 44 0 44 C0 29.48 0 14.96 0 0 Z " fill="#CCCCCF" transform="translate(107,102)"/>
<path d="M0 0 C5.9962178 0.85001235 9.74063982 6.22867256 13.8125 10.3125 C14.70904297 11.18068359 15.60558594 12.04886719 16.52929688 12.94335938 C17.37169922 13.78318359 18.21410156 14.62300781 19.08203125 15.48828125 C19.85780518 16.25696533 20.6335791 17.02564941 21.43286133 17.81762695 C23 20 23 20 22.74487305 22.28198242 C22.49906494 22.84892822 22.25325684 23.41587402 22 24 C16.56366698 20.94276721 12.57427177 16.94191759 8.1875 12.5625 C7.39923828 11.79873047 6.61097656 11.03496094 5.79882812 10.24804688 C5.05439453 9.50748047 4.30996094 8.76691406 3.54296875 8.00390625 C2.86258545 7.33174072 2.18220215 6.6595752 1.48120117 5.96704102 C0 4 0 4 0 0 Z " fill="#C1C1C1" transform="translate(0,19)"/>
<path d="M0 0 C6.73792979 1.34758596 9.74994904 4.75908938 14 10 C15.41526817 12.69743902 16.19312789 15.04146894 17 18 C13.31930113 16.46356148 11.01224796 14.21849055 8.25 11.375 C7.45078125 10.55773438 6.6515625 9.74046875 5.828125 8.8984375 C4.92320312 7.95871094 4.92320312 7.95871094 4 7 C3.67 9.97 3.34 12.94 3 16 C2.01 15.67 1.02 15.34 0 15 C0 10.05 0 5.1 0 0 Z " fill="#BEBEBE" transform="translate(226,0)"/>
<path d="M0 0 C1.98 0 3.96 0 6 0 C6 12.21 6 24.42 6 37 C5.67 37 5.34 37 5 37 C4.67 28.42 4.34 19.84 4 11 C3.34 10.67 2.68 10.34 2 10 C1.67 19.9 1.34 29.8 1 40 C0.67 40 0.34 40 0 40 C0 26.8 0 13.6 0 0 Z " fill="#CFCFCF" transform="translate(157,102)"/>
<path d="M0 0 C0.598125 0.165 1.19625 0.33 1.8125 0.5 C4.11344336 1.1114124 4.11344336 1.1114124 7 1 C14.33333333 1 21.66666667 1 29 1 C29.33 2.32 29.66 3.64 30 5 C25.93763598 5.08729047 21.87551411 5.14048992 17.8125 5.1875 C16.66201172 5.21263672 15.51152344 5.23777344 14.32617188 5.26367188 C13.21435547 5.27333984 12.10253906 5.28300781 10.95703125 5.29296875 C9.42526245 5.31653442 9.42526245 5.31653442 7.86254883 5.34057617 C4.54370734 4.94571188 2.65445835 4.00447394 0 2 C0 1.34 0 0.68 0 0 Z " fill="#B7B7B9" transform="translate(158,142)"/>
<path d="M0 0 C4.53786224 2.26893112 5.94678157 4.09866534 9 8 C6.0625 7.625 6.0625 7.625 3 7 C2.67 6.34 2.34 5.68 2 5 C1.67 23.48 1.34 41.96 1 61 C4.63 61 8.26 61 12 61 C12 61.33 12 61.66 12 62 C8.04 62 4.08 62 0 62 C0 41.54 0 21.08 0 0 Z " fill="#646375" transform="translate(243,24)"/>
<path d="M0 0 C0.33 0 0.66 0 1 0 C1 12.87 1 25.74 1 39 C-2.59454845 37.20272577 -4.50111529 36.03436 -7 33 C-7 31.68 -7 30.36 -7 29 C-6.38125 28.87625 -5.7625 28.7525 -5.125 28.625 C-2.80879168 28.12802644 -2.80879168 28.12802644 -1 26 C-0.62792646 23.28384136 -0.62792646 23.28384136 -0.5859375 20.1171875 C-0.54726562 18.95058594 -0.50859375 17.78398438 -0.46875 16.58203125 C-0.4378125 15.35871094 -0.406875 14.13539062 -0.375 12.875 C-0.31699219 11.02841797 -0.31699219 11.02841797 -0.2578125 9.14453125 C-0.1633001 6.09650624 -0.07774506 3.04849138 0 0 Z " fill="#121128" transform="translate(74,47)"/>
<path d="M0 0 C0.99 0.33 1.98 0.66 3 1 C3.33 1.99 3.66 2.98 4 4 C3.01 4 2.02 4 1 4 C1 15.55 1 27.1 1 39 C-0.32 38.67 -1.64 38.34 -3 38 C-2.34 38 -1.68 38 -1 38 C-1.33 25.79 -1.66 13.58 -2 1 C-1.34 0.67 -0.68 0.34 0 0 Z " fill="#39384E" transform="translate(255,46)"/>
<path d="M0 0 C0.33 0 0.66 0 1 0 C1 12.21 1 24.42 1 37 C-0.65 36.67 -2.3 36.34 -4 36 C-7.0745356 36.7763932 -7.0745356 36.7763932 -9 39 C-10.485 39.495 -10.485 39.495 -12 40 C-12.495 38.515 -12.495 38.515 -13 37 C-12.34 37 -11.68 37 -11 37 C-10.67 36.01 -10.34 35.02 -10 34 C-8.1875 32.25 -8.1875 32.25 -6 31 C-3.83031791 31.24796367 -2.55766393 31.44233607 -1 33 C-0.67 22.11 -0.34 11.22 0 0 Z " fill="#7D7F90" transform="translate(62,24)"/>
<path d="M0 0 C0.66 0 1.32 0 2 0 C3.31134718 3.90313437 3.03043509 7.77542704 2.87890625 11.828125 C2.85529526 12.57713074 2.83168427 13.32613647 2.80735779 14.09783936 C2.73099344 16.48209888 2.64685283 18.86601105 2.5625 21.25 C2.50925201 22.86977486 2.4565118 24.48956651 2.40429688 26.109375 C2.27541537 30.07313521 2.13956072 34.03660201 2 38 C2.66 38.33 3.32 38.66 4 39 C2.68 39 1.36 39 0 39 C0 26.13 0 13.26 0 0 Z " fill="#747680" transform="translate(19,46)"/>
<path d="M0 0 C-0.99 0.33 -1.98 0.66 -3 1 C-3.80212628 2.87387216 -3.80212628 2.87387216 -4.1875 5.0625 C-4.34605469 5.79597656 -4.50460938 6.52945312 -4.66796875 7.28515625 C-4.77753906 7.85105469 -4.88710937 8.41695312 -5 9 C-5.825 8.79375 -6.65 8.5875 -7.5 8.375 C-11.87818732 7.9059085 -14.79269734 8.76682508 -19 10 C-14.95582105 4.6077614 -11.20250443 1.51757104 -4.75 -0.8125 C-3 -1 -3 -1 0 0 Z " fill="#31334E" transform="translate(110,24)"/>
<path d="M0 0 C3.63 0 7.26 0 11 0 C12.08644535 4.3457814 11.90680911 4.94960548 10.0625 8.75 C9.68222656 9.54921875 9.30195313 10.3484375 8.91015625 11.171875 C8.60980469 11.77515625 8.30945313 12.3784375 8 13 C7.67 12.34 7.34 11.68 7 11 C6.01 10.67 5.02 10.34 4 10 C2.875 4.25 2.875 4.25 4 2 C2.68 1.34 1.36 0.68 0 0 Z " fill="#292C49" transform="translate(199,23)"/>
<path d="M0 0 C0.66 1.32 1.32 2.64 2 4 C3.65 3.67 5.3 3.34 7 3 C7.99 4.485 7.99 4.485 9 6 C8.1028125 6.37125 8.1028125 6.37125 7.1875 6.75 C4.86706787 7.87980389 4.86706787 7.87980389 3.4375 10.125 C2.963125 10.74375 2.48875 11.3625 2 12 C1.01 12 0.02 12 -1 12 C-1.268125 11.195625 -1.53625 10.39125 -1.8125 9.5625 C-2.204375 8.716875 -2.59625 7.87125 -3 7 C-3.99 6.67 -4.98 6.34 -6 6 C-5.67 5.01 -5.34 4.02 -5 3 C-3.67696283 2.6278958 -2.34262065 2.29369827 -1 2 C-0.67 1.34 -0.34 0.68 0 0 Z " fill="#161834" transform="translate(49,49)"/>
<path d="M0 0 C3.63 0 7.26 0 11 0 C11 0.33 11 0.66 11 1 C9.329375 1.12375 9.329375 1.12375 7.625 1.25 C4.03340387 1.57347716 4.03340387 1.57347716 2.78125 3.64404297 C1.7726104 6.68572175 1.80975357 9.24144072 1.875 12.4453125 C1.89046875 13.68667969 1.9059375 14.92804687 1.921875 16.20703125 C1.94765625 17.49996094 1.9734375 18.79289062 2 20.125 C2.0508412 22.68993873 2.09296783 25.25506993 2.125 27.8203125 C2.14820312 28.95742676 2.17140625 30.09454102 2.1953125 31.26611328 C2 34 2 34 0 36 C0 24.12 0 12.24 0 0 Z " fill="#12142A" transform="translate(63,24)"/>
<path d="M0 0 C7.48291572 6.15034169 7.48291572 6.15034169 10 10 C9.34 10 8.68 10 8 10 C8 10.99 8 11.98 8 13 C7.34 13 6.68 13 6 13 C6 12.34 6 11.68 6 11 C5.34 11 4.68 11 4 11 C4 10.34 4 9.68 4 9 C3.34 9 2.68 9 2 9 C2 8.34 2 7.68 2 7 C1.34 7 0.68 7 0 7 C0 6.34 0 5.68 0 5 C-0.66 5 -1.32 5 -2 5 C-2 4.34 -2 3.68 -2 3 C-2.66 2.67 -3.32 2.34 -4 2 C-2.68 2 -1.36 2 0 2 C0 1.34 0 0.68 0 0 Z " fill="#CECDCC" transform="translate(288,59)"/>
<path d="M0 0 C0.99 0 1.98 0 3 0 C3 6.93 3 13.86 3 21 C2.01 21 1.02 21 0 21 C0 14.07 0 7.14 0 0 Z " fill="#B5B5B7" transform="translate(109,104)"/>
<path d="M0 0 C1.65 0 3.3 0 5 0 C5 0.99 5 1.98 5 3 C6.32 3.66 7.64 4.32 9 5 C7.68 6.32 6.36 7.64 5 9 C5.33 9.99 5.66 10.98 6 12 C6.66 12.33 7.32 12.66 8 13 C5.03 12.505 5.03 12.505 2 12 C2 10.68 2 9.36 2 8 C1.34 8 0.68 8 0 8 C0.33 6.35 0.66 4.7 1 3 C0.34 3 -0.32 3 -1 3 C-0.67 2.01 -0.34 1.02 0 0 Z " fill="#141536" transform="translate(279,65)"/>
<path d="M0 0 C1.99954746 -0.04254356 4.00041636 -0.04080783 6 0 C7 1 7 1 7 6 C-0.59 6 -8.18 6 -16 6 C-16 5.67 -16 5.34 -16 5 C-11.05 4.67 -6.1 4.34 -1 4 C-0.67 2.68 -0.34 1.36 0 0 Z " fill="#B9B8B9" transform="translate(226,141)"/>
<path d="M0 0 C2.71097227 0.37392721 3.82000467 0.81357627 5.75 2.8125 C7 5 7 5 7 9 C8.32 9 9.64 9 11 9 C11 9.99 11 10.98 11 12 C10.01 12.33 9.02 12.66 8 13 C6.65176834 11.78719339 5.32183918 10.55401909 4 9.3125 C3.2575 8.62800781 2.515 7.94351563 1.75 7.23828125 C-0.3231932 4.58663012 -0.36795695 3.2828659 0 0 Z " fill="#BABABA" transform="translate(80,98)"/>
<path d="M0 0 C5 1 5 1 6.8125 3.0625 C7.204375 3.701875 7.59625 4.34125 8 5 C5.50907189 6.24546405 4.58919267 5.7767578 2 5 C2.165 5.515625 2.33 6.03125 2.5 6.5625 C3.15049 9.73363876 3.0620734 12.77218334 3 16 C2.01 15.67 1.02 15.34 0 15 C0 10.05 0 5.1 0 0 Z " fill="#C3C3C3" transform="translate(226,0)"/>
<path d="M0 0 C7.48291572 6.15034169 7.48291572 6.15034169 10 10 C9.34 11.32 8.68 12.64 8 14 C7.01 13.34 6.02 12.68 5 12 C5 11.34 5 10.68 5 10 C4.34 10 3.68 10 3 10 C3 9.34 3 8.68 3 8 C2.34 7.67 1.68 7.34 1 7 C1.66 7 2.32 7 3 7 C2.505 6.401875 2.01 5.80375 1.5 5.1875 C0 3 0 3 0 0 Z " fill="#C8C8C8" transform="translate(304,75)"/>
<path d="M0 0 C0.33 0.99 0.66 1.98 1 3 C1.66 3.33 2.32 3.66 3 4 C1.71034824 5.37562854 0.37310707 6.70766393 -1 8 C-1.66 8 -2.32 8 -3 8 C-3.33 8.99 -3.66 9.98 -4 11 C-7.07692308 5.58461538 -7.07692308 5.58461538 -6.6875 2.625 C-6.460625 2.08875 -6.23375 1.5525 -6 1 C-5.34 1.99 -4.68 2.98 -4 4 C-3.67 3.01 -3.34 2.02 -3 1 C-2.34 1.33 -1.68 1.66 -1 2 C-0.67 1.34 -0.34 0.68 0 0 Z " fill="#2E2F4D" transform="translate(155,26)"/>
<path d="M0 0 C2.97 0 5.94 0 9 0 C9 0.66 9 1.32 9 2 C8.34 2 7.68 2 7 2 C7 2.66 7 3.32 7 4 C2.38 4 -2.24 4 -7 4 C-7 3.34 -7 2.68 -7 2 C-7.66 1.67 -8.32 1.34 -9 1 C-6.03 1 -3.06 1 0 1 C0 0.67 0 0.34 0 0 Z " fill="#3D3C52" transform="translate(116,83)"/>
<path d="M0 0 C0.99 0.33 1.98 0.66 3 1 C3.6875 3.0625 3.6875 3.0625 4 5 C3.34 5 2.68 5 2 5 C2 5.66 2 6.32 2 7 C0.02 7.33 -1.96 7.66 -4 8 C-4.33 6.35 -4.66 4.7 -5 3 C-4.34 3 -3.68 3 -3 3 C-2.67 2.34 -2.34 1.68 -2 1 C-1.34 0.67 -0.68 0.34 0 0 Z " fill="#151736" transform="translate(268,50)"/>
<path d="M0 0 C1.12894876 0.93274109 2.25300876 1.87140122 3.375 2.8125 C4.00148438 3.33457031 4.62796875 3.85664062 5.2734375 4.39453125 C7 6 7 6 9 9 C8.01 10.32 7.02 11.64 6 13 C4.02 10.69 2.04 8.38 0 6 C0.99 5.67 1.98 5.34 3 5 C2.2575 4.319375 2.2575 4.319375 1.5 3.625 C0 2 0 2 0 0 Z " fill="#CECECE" transform="translate(56,72)"/>
<path d="M0 0 C1.32 0.99 2.64 1.98 4 3 C3.360625 3.78375 2.72125 4.5675 2.0625 5.375 C0.01857687 7.79539281 0.01857687 7.79539281 -1 10 C-1.99 9.34 -2.98 8.68 -4 8 C-4.1875 4.875 -4.1875 4.875 -4 2 C-2.68 2 -1.36 2 0 2 C0 1.34 0 0.68 0 0 Z " fill="#131635" transform="translate(135,34)"/>
<path d="M0 0 C0.99 0 1.98 0 3 0 C3 0.66 3 1.32 3 2 C3.66 2 4.32 2 5 2 C6.36623674 4.73247348 6.128426 6.98198902 6 10 C5 11 5 11 2.71484375 11.09765625 C1.34005859 11.08025391 1.34005859 11.08025391 -0.0625 11.0625 C-0.98160156 11.05347656 -1.90070313 11.04445313 -2.84765625 11.03515625 C-3.55792969 11.02355469 -4.26820313 11.01195313 -5 11 C-5 10.67 -5 10.34 -5 10 C-2.36 9.67 0.28 9.34 3 9 C3.33 7.02 3.66 5.04 4 3 C2.35 3 0.7 3 -1 3 C-0.67 2.01 -0.34 1.02 0 0 Z " fill="#5A5A6B" transform="translate(293,75)"/>
<path d="M0 0 C0.33 1.32 0.66 2.64 1 4 C1.66 4 2.32 4 3 4 C2.67 4.66 2.34 5.32 2 6 C1.34 5.67 0.68 5.34 0 5 C0 6.65 0 8.3 0 10 C0.99 10.33 1.98 10.66 3 11 C3.33 12.65 3.66 14.3 4 16 C3.34 16 2.68 16 2 16 C1.67 16.99 1.34 17.98 1 19 C-0.80181481 12.58103475 -2.09835343 6.55735447 0 0 Z " fill="#5D5E71" transform="translate(84,47)"/>
<path d="M0 0 C0.66 0.33 1.32 0.66 2 1 C2 1.66 2 2.32 2 3 C2.66 3 3.32 3 4 3 C4 3.99 4 4.98 4 6 C2 7.6875 2 7.6875 0 9 C-1.32 8.34 -2.64 7.68 -4 7 C-3.625 5.0625 -3.625 5.0625 -3 3 C-2.34 2.67 -1.68 2.34 -1 2 C-0.67 1.34 -0.34 0.68 0 0 Z " fill="#141537" transform="translate(42,39)"/>
<path d="M0 0 C0.556875 0.45375 1.11375 0.9075 1.6875 1.375 C4.05313439 3.03733768 6.29015658 4.02144543 9 5 C9 6.65 9 8.3 9 10 C5.535 8.02 5.535 8.02 2 6 C2 5.34 2 4.68 2 4 C1.34 4 0.68 4 0 4 C0 2.68 0 1.36 0 0 Z " fill="#36364A" transform="translate(91,73)"/>
<path d="M0 0 C8.58 0 17.16 0 26 0 C24.35 1.32 22.7 2.64 21 4 C20.34 3.34 19.68 2.68 19 2 C16.96939341 1.63105418 16.96939341 1.63105418 14.6484375 1.5859375 C13.79765625 1.54726562 12.946875 1.50859375 12.0703125 1.46875 C11.18085937 1.4378125 10.29140625 1.406875 9.375 1.375 C8.4778125 1.33632812 7.580625 1.29765625 6.65625 1.2578125 C4.4377073 1.16340643 2.21917597 1.07783252 0 1 C0 0.67 0 0.34 0 0 Z " fill="#BDBDBE" transform="translate(108,102)"/>
<path d="M0 0 C2.64 0.33 5.28 0.66 8 1 C7.67 2.65 7.34 4.3 7 6 C7.66 6 8.32 6 9 6 C8.67 7.32 8.34 8.64 8 10 C6.5 8.625 6.5 8.625 5 7 C5 6.34 5 5.68 5 5 C4.34 5 3.68 5 3 5 C1.375 2.5 1.375 2.5 0 0 Z " fill="#43445B" transform="translate(272,67)"/>
<path d="M0 0 C2.97 0.495 2.97 0.495 6 1 C6 1.66 6 2.32 6 3 C7.32 2.67 8.64 2.34 10 2 C9.835 2.763125 9.67 3.52625 9.5 4.3125 C8.90854604 7.03596236 8.90854604 7.03596236 9 10 C8.34 8.68 7.68 7.36 7 6 C6.34 6 5.68 6 5 6 C5 5.34 5 4.68 5 4 C4.34 4 3.68 4 3 4 C3 3.34 3 2.68 3 2 C2.01 1.67 1.02 1.34 0 1 C0 0.67 0 0.34 0 0 Z " fill="#525366" transform="translate(287,55)"/>
<path d="M0 0 C7.92 0 15.84 0 24 0 C24 1.65 24 3.3 24 5 C23.01 4.67 22.02 4.34 21 4 C21.33 3.01 21.66 2.02 22 1 C14.74 1 7.48 1 0 1 C0 0.67 0 0.34 0 0 Z " fill="#BEBEBF" transform="translate(209,102)"/>
<path d="M0 0 C-0.01160156 0.62648437 -0.02320312 1.25296875 -0.03515625 1.8984375 C-0.04417969 2.71570313 -0.05320312 3.53296875 -0.0625 4.375 C-0.07410156 5.18710938 -0.08570312 5.99921875 -0.09765625 6.8359375 C-0.14466334 9.04937142 -0.14466334 9.04937142 1 11 C-0.65 11 -2.3 11 -4 11 C-3.8864371 9.35333797 -3.75882619 7.70763918 -3.625 6.0625 C-3.55539063 5.14597656 -3.48578125 4.22945312 -3.4140625 3.28515625 C-3.27742188 2.53105469 -3.14078125 1.77695313 -3 1 C-1 0 -1 0 0 0 Z " fill="#B8B8BA" transform="translate(112,136)"/>
<path d="M0 0 C2.475 0.99 2.475 0.99 5 2 C4.1875 3.9375 4.1875 3.9375 3 6 C2.01 6.33 1.02 6.66 0 7 C-0.99 6.01 -1.98 5.02 -3 4 C-2.01 2.68 -1.02 1.36 0 0 Z " fill="#BEBEBE" transform="translate(134,103)"/>
<path d="M0 0 C0.66 0.33 1.32 0.66 2 1 C2 1.66 2 2.32 2 3 C3.2065625 3.433125 3.2065625 3.433125 4.4375 3.875 C7 5 7 5 8 7 C1.9453125 7.9765625 1.9453125 7.9765625 0 8 C-0.66 7.34 -1.32 6.68 -2 6 C-1.34 4.02 -0.68 2.04 0 0 Z " fill="#3F4158" transform="translate(100,66)"/>
<path d="M0 0 C7.48291572 6.15034169 7.48291572 6.15034169 10 10 C8.02 9.34 6.04 8.68 4 8 C4 7.01 4 6.02 4 5 C1.03 4.505 1.03 4.505 -2 4 C-1.34 2.68 -0.68 1.36 0 0 Z " fill="#717181" transform="translate(284,64)"/>
<path d="M0 0 C2.66666667 0 5.33333333 0 8 0 C8 2.31 8 4.62 8 7 C4.2047869 5.50902342 2.38957269 3.24299151 0 0 Z " fill="#2D2E40" transform="translate(67,79)"/>
<path d="M0 0 C0.66 0 1.32 0 2 0 C2 0.99 2 1.98 2 3 C1.34 3 0.68 3 0 3 C0 3.66 0 4.32 0 5 C1.32 5.33 2.64 5.66 4 6 C3.34 6.66 2.68 7.32 2 8 C0.65737935 7.70630173 -0.67696283 7.3721042 -2 7 C-2.99 7.495 -2.99 7.495 -4 8 C-2.87548273 5.0280615 -1.77706209 2.66559313 0 0 Z " fill="#141638" transform="translate(135,62)"/>
<path d="M0 0 C1.9375 0.75 1.9375 0.75 4 2 C4.75 4.125 4.75 4.125 5 6 C3.02 6 1.04 6 -1 6 C-1.33 5.01 -1.66 4.02 -2 3 C-1.34 2.01 -0.68 1.02 0 0 Z " fill="#B9B9BA" transform="translate(278,141)"/>
<path d="M0 0 C0.99 0 1.98 0 3 0 C3.33 1.98 3.66 3.96 4 6 C4.66 6 5.32 6 6 6 C5.67 7.32 5.34 8.64 5 10 C2.69 7.36 0.38 4.72 -2 2 C-1.34 1.34 -0.68 0.68 0 0 Z " fill="#4A4B5E" transform="translate(266,57)"/>
<path d="M0 0 C2.4375 0.375 2.4375 0.375 5 1 C5.33 1.66 5.66 2.32 6 3 C5.38125 3.28875 4.7625 3.5775 4.125 3.875 C1.86674235 4.93720042 1.86674235 4.93720042 0 7 C-0.66 6.34 -1.32 5.68 -2 5 C-1.34 3.35 -0.68 1.7 0 0 Z " fill="#242545" transform="translate(52,52)"/>
<path d="M0 0 C0.66 0.66 1.32 1.32 2 2 C4.58354218 2.16687448 4.58354218 2.16687448 7 2 C7 2.99 7 3.98 7 5 C4.03 5 1.06 5 -2 5 C-1 1 -1 1 0 0 Z " fill="#181733" transform="translate(289,80)"/>
<path d="M0 0 C0.98120464 3.05263664 0.98120464 4.94736336 0 8 C-0.99 8 -1.98 8 -3 8 C-3 7.34 -3 6.68 -3 6 C-3.99 6 -4.98 6 -6 6 C-6 5.01 -6 4.02 -6 3 C-5.38125 2.87625 -4.7625 2.7525 -4.125 2.625 C-1.80879168 2.12802644 -1.80879168 2.12802644 0 0 Z " fill="#141632" transform="translate(73,73)"/>
<path d="M0 0 C0.33 0.66 0.66 1.32 1 2 C2.65 1.67 4.3 1.34 6 1 C6.6875 2.8125 6.6875 2.8125 7 5 C5.5625 6.75 5.5625 6.75 4 8 C2.35 6.02 0.7 4.04 -1 2 C-0.67 1.34 -0.34 0.68 0 0 Z " fill="#46465B" transform="translate(282,76)"/>
<path d="M0 0 C0.99 0.33 1.98 0.66 3 1 C3.94921875 3.06640625 3.94921875 3.06640625 4.6875 5.5625 C4.93886719 6.38878906 5.19023437 7.21507812 5.44921875 8.06640625 C5.63097656 8.70449219 5.81273437 9.34257813 6 10 C2.15625 8.234375 2.15625 8.234375 0.75 6.125 C0 4 0 4 0 0 Z " fill="#444558" transform="translate(171,53)"/>
<path d="M0 0 C0.33 0.99 0.66 1.98 1 3 C0.67 3.66 0.34 4.32 0 5 C1.32 5.33 2.64 5.66 4 6 C4.33 7.32 4.66 8.64 5 10 C4.34 10 3.68 10 3 10 C3 9.34 3 8.68 3 8 C2.34 8 1.68 8 1 8 C1 7.34 1 6.68 1 6 C0.34 6 -0.32 6 -1 6 C-1 5.34 -1 4.68 -1 4 C-1.66 4 -2.32 4 -3 4 C-3 3.01 -3 2.02 -3 1 C-2.01 0.67 -1.02 0.34 0 0 Z " fill="#595A6B" transform="translate(43,50)"/>
<path d="M0 0 C0.99 0.33 1.98 0.66 3 1 C2.34 2.98 1.68 4.96 1 7 C-0.32 6.67 -1.64 6.34 -3 6 C-2.67 4.68 -2.34 3.36 -2 2 C-1.34 2 -0.68 2 0 2 C0 1.34 0 0.68 0 0 Z " fill="#B1B1B4" transform="translate(135,124)"/>
<path d="M0 0 C1.65 0 3.3 0 5 0 C5 1.32 5 2.64 5 4 C1.37 4 -2.26 4 -6 4 C-6 3.67 -6 3.34 -6 3 C-5.195625 2.87625 -4.39125 2.7525 -3.5625 2.625 C-2.716875 2.41875 -1.87125 2.2125 -1 2 C-0.67 1.34 -0.34 0.68 0 0 Z " fill="#AEAEAE" transform="translate(226,103)"/>
<path d="M0 0 C1.9375 0.75 1.9375 0.75 4 2 C4.75 4.125 4.75 4.125 5 6 C3.35 5.67 1.7 5.34 0 5 C-0.5625 3.0625 -0.5625 3.0625 -1 1 C-0.67 0.67 -0.34 0.34 0 0 Z " fill="#C1C1BF" transform="translate(283,55)"/>
<path d="M0 0 C4.2742558 1.5830577 6.26531794 4.50568404 9 8 C3.51219512 7.51219512 3.51219512 7.51219512 1.125 5.125 C0 3 0 3 0 0 Z " fill="#6B6A79" transform="translate(243,24)"/>
<path d="M0 0 C0.33 1.32 0.66 2.64 1 4 C-2.96 4 -6.92 4 -11 4 C-7.54941314 1.69960876 -5.05904498 1.5261725 -1 1 C-0.67 0.67 -0.34 0.34 0 0 Z " fill="#535365" transform="translate(31,82)"/>
<path d="M0 0 C0.99 0.66 1.98 1.32 3 2 C2.34 2 1.68 2 1 2 C1.33 3.98 1.66 5.96 2 8 C0.02 6.35 -1.96 4.7 -4 3 C-2.68 2.01 -1.36 1.02 0 0 Z " fill="#2F2E47" transform="translate(63,69)"/>
<path d="M0 0 C2.64 0 5.28 0 8 0 C7.67 1.32 7.34 2.64 7 4 C6.34 3.67 5.68 3.34 5 3 C4.67 3.66 4.34 4.32 4 5 C1.48916886 3.74458443 1.12874554 2.49936512 0 0 Z " fill="#131530" transform="translate(147,25)"/>
<path d="M0 0 C2.875 0.6875 2.875 0.6875 6 2 C7.375 4.625 7.375 4.625 8 7 C6.35 5.68 4.7 4.36 3 3 C2.01 3.99 1.02 4.98 0 6 C0 4.02 0 2.04 0 0 Z " fill="#AFAFAF" transform="translate(227,4)"/>
<path d="M0 0 C1.99954746 -0.04254356 4.00041636 -0.04080783 6 0 C7 1 7 1 7.0625 3.5625 C7.041875 4.366875 7.02125 5.17125 7 6 C6.01 5.67 5.02 5.34 4 5 C4 4.34 4 3.68 4 3 C2.35 2.67 0.7 2.34 -1 2 C-0.67 1.34 -0.34 0.68 0 0 Z " fill="#C0C0C0" transform="translate(226,141)"/>
<path d="M0 0 C1.98 1.65 3.96 3.3 6 5 C5.34 6.65 4.68 8.3 4 10 C3.67 9.34 3.34 8.68 3 8 C2.34 7.67 1.68 7.34 1 7 C1.66 7 2.32 7 3 7 C2.505 6.401875 2.01 5.80375 1.5 5.1875 C0 3 0 3 0 0 Z " fill="#CFCFD0" transform="translate(304,75)"/>
<path d="M0 0 C0.99 0 1.98 0 3 0 C4.52448631 2.9826906 5.93940067 5.818202 7 9 C5.0625 8.3125 5.0625 8.3125 3 7 C2.25 4.375 2.25 4.375 2 2 C1.01 1.67 0.02 1.34 -1 1 C-0.67 0.67 -0.34 0.34 0 0 Z " fill="#B8B7B8" transform="translate(300,73)"/>
<path d="M0 0 C3.63 0 7.26 0 11 0 C11.33 1.32 11.66 2.64 12 4 C11.34 4.66 10.68 5.32 10 6 C9.67 4.35 9.34 2.7 9 1 C6.03 1 3.06 1 0 1 C0 0.67 0 0.34 0 0 Z " fill="#6C6E7F" transform="translate(199,23)"/>
<path d="M0 0 C0.598125 0.165 1.19625 0.33 1.8125 0.5 C4.11344336 1.1114124 4.11344336 1.1114124 7 1 C7.66 1.33 8.32 1.66 9 2 C8.01 3.485 8.01 3.485 7 5 C4.0625 4.1875 4.0625 4.1875 1 3 C0.67 2.01 0.34 1.02 0 0 Z " fill="#BFBFC0" transform="translate(158,142)"/>
<path d="M0 0 C0.66 0 1.32 0 2 0 C1.5206753 4.31392226 0.2542015 6.16569547 -3 9 C-3.33 8.01 -3.66 7.02 -4 6 C-3.01 6 -2.02 6 -1 6 C-1.33 4.68 -1.66 3.36 -2 2 C-1.34 2 -0.68 2 0 2 C0 1.34 0 0.68 0 0 Z " fill="#42415A" transform="translate(143,67)"/>
<path d="M0 0 C2.475 0.99 2.475 0.99 5 2 C2.04816899 4.95183101 -0.95511947 5.08663988 -5 6 C-3.35 4.02 -1.7 2.04 0 0 Z " fill="#3F4159" transform="translate(96,28)"/>
<path d="M0 0 C1.98 0.495 1.98 0.495 4 1 C4 1.99 4 2.98 4 4 C3.01 4.33 2.02 4.66 1 5 C0.26676204 7.01508358 0.26676204 7.01508358 0 9 C-0.33 9 -0.66 9 -1 9 C-1.125 2.25 -1.125 2.25 0 0 Z " fill="#ABABAD" transform="translate(139,112)"/>
<path d="M0 0 C0.66 0 1.32 0 2 0 C2.33 1.98 2.66 3.96 3 6 C2.34 6 1.68 6 1 6 C1 6.99 1 7.98 1 9 C0.34 9 -0.32 9 -1 9 C-1.042721 7.33388095 -1.04063832 5.66617115 -1 4 C-0.67 3.67 -0.34 3.34 0 3 C0 2.01 0 1.02 0 0 Z " fill="#131330" transform="translate(85,48)"/>
<path d="M0 0 C-5 2.5 -5 2.5 -10 5 C-10 3.68 -10 2.36 -10 1 C-6.78548731 -0.60725635 -3.56387464 -0.05748185 0 0 Z " fill="#545365" transform="translate(113,35)"/>
<path d="M0 0 C-0.639375 0.268125 -1.27875 0.53625 -1.9375 0.8125 C-4.33131686 1.88667752 -4.33131686 1.88667752 -5 5 C-5 4.34 -5 3.68 -5 3 C-5.66 3 -6.32 3 -7 3 C-7 2.01 -7 1.02 -7 0 C-4.3333581 -1.33332095 -2.83319697 -0.67102033 0 0 Z " fill="#C5C5C5" transform="translate(252,102)"/>
<path d="M0 0 C1.32 0 2.64 0 4 0 C4 2.64 4 5.28 4 8 C1.44971017 6.72485508 1.06918289 5.59658703 0 3 C0 2.01 0 1.02 0 0 Z " fill="#4D4E60" transform="translate(152,37)"/>
<path d="M0 0 C2.125 0.9375 2.125 0.9375 4 2 C3.67 2.99 3.34 3.98 3 5 C1.0625 4.6875 1.0625 4.6875 -1 4 C-1.33 3.01 -1.66 2.02 -2 1 C-1.34 0.67 -0.68 0.34 0 0 Z " fill="#C0BFBE" transform="translate(260,32)"/>
<path d="M0 0 C2.97 0 5.94 0 9 0 C9.33 1.32 9.66 2.64 10 4 C9.01 4 8.02 4 7 4 C6.67 3.34 6.34 2.68 6 2 C2.97065509 1.34227572 2.97065509 1.34227572 0 1 C0 0.67 0 0.34 0 0 Z " fill="#BEBEBE" transform="translate(221,121)"/>
<path d="M0 0 C2.31 0.33 4.62 0.66 7 1 C7 1.99 7 2.98 7 4 C6.01 4.33 5.02 4.66 4 5 C2.68 3.35 1.36 1.7 0 0 Z " fill="#C5C5C7" transform="translate(84,106)"/>
<path d="M0 0 C0.33 0.66 0.66 1.32 1 2 C-0.125 4.625 -0.125 4.625 -2 7 C-4.6875 7.3125 -4.6875 7.3125 -7 7 C-4.66666667 4.66666667 -2.33333333 2.33333333 0 0 Z " fill="#5E5F74" transform="translate(131,66)"/>
<path d="M0 0 C1.485 0.99 1.485 0.99 3 2 C1.25 7.75 1.25 7.75 -1 10 C-0.67 6.7 -0.34 3.4 0 0 Z " fill="#5A5B6D" transform="translate(190,62)"/>
<path d="M0 0 C0.90105469 0.01804687 1.80210938 0.03609375 2.73046875 0.0546875 C3.41753906 0.07789062 4.10460937 0.10109375 4.8125 0.125 C4.8125 0.455 4.8125 0.785 4.8125 1.125 C3.21046533 1.48868892 1.60575797 1.84061952 0 2.1875 C-0.89332031 2.38472656 -1.78664063 2.58195312 -2.70703125 2.78515625 C-5.1875 3.125 -5.1875 3.125 -8.1875 2.125 C-4.87379 -0.08414 -3.8428979 -0.09981553 0 0 Z " fill="#0E0F29" transform="translate(115.1875,22.875)"/>
<path d="M0 0 C-0.66 2.31 -1.32 4.62 -2 7 C-2.66 6.34 -3.32 5.68 -4 5 C-4 3.68 -4 2.36 -4 1 C-2 0 -2 0 0 0 Z " fill="#B3B3B3" transform="translate(252,103)"/>
<path d="M0 0 C1.98 0 3.96 0 6 0 C5.34 1.65 4.68 3.3 4 5 C2 3.625 2 3.625 0 2 C0 1.34 0 0.68 0 0 Z " fill="#C8C8CA" transform="translate(76,97)"/>
<path d="M0 0 C0.66 0 1.32 0 2 0 C1.40072174 3.35595828 0.15377564 5.37801226 -2 8 C-2.125 5.125 -2.125 5.125 -2 2 C-1.34 1.34 -0.68 0.68 0 0 Z " fill="#3F4255" transform="translate(100,39)"/>
<path d="M0 0 C0.99 0.33 1.98 0.66 3 1 C3 2.65 3 4.3 3 6 C2.01 6 1.02 6 0 6 C-1.125 2.25 -1.125 2.25 0 0 Z " fill="#C3C2C1" transform="translate(253,25)"/>
<path d="M0 0 C1.98 1.65 3.96 3.3 6 5 C4.68 5.33 3.36 5.66 2 6 C2 5.01 2 4.02 2 3 C1.01 3 0.02 3 -1 3 C-0.67 2.01 -0.34 1.02 0 0 Z " fill="#6C6B84" transform="translate(275,55)"/>
<path d="M0 0 C1.98 1.65 3.96 3.3 6 5 C4.125 5.625 4.125 5.625 2 6 C1.34 5.34 0.68 4.68 0 4 C0 2.68 0 1.36 0 0 Z " fill="#6C6C7F" transform="translate(256,36)"/>
</svg>
