<svg width="53" height="50" viewBox="0 0 53 50" fill="none" xmlns="http://www.w3.org/2000/svg">
<path d="M14.7642 35.2375H45.1137C46.4597 35.3472 47.3105 36.2708 47.3363 37.4182C47.229 38.7573 46.2969 39.6108 45.1297 39.6282H11.5664C10.047 39.4817 9.18134 38.3014 9.33442 36.9919L10.7695 29.208L10.7823 29.1382L10.7753 29.0677L8.58965 7.16049L8.55687 6.83195L8.24185 6.73307L2.04799 4.78899C0.792094 4.2841 0.297922 3.18941 0.574197 2.03127C1.07698 0.814297 2.22259 0.28622 3.35149 0.579427L11.2643 3.09495C12.137 3.42551 12.6392 4.12924 12.7727 4.98085L13.2315 9.32732L13.2738 9.72719L13.6734 9.77175L49.653 13.7832C51.0478 14.0948 51.7508 15.1617 51.5983 16.3684L49.4155 28.8542C49.1914 29.9921 48.2983 30.6678 47.2581 30.6819H15.3968H14.9779L14.9045 31.0943L14.2719 34.6499L14.1674 35.2375H14.7642ZM19.2736 45.7877C19.2736 47.7827 17.6512 49.4024 15.6467 49.4024C13.6423 49.4024 12.0199 47.7827 12.0199 45.7877C12.0199 43.7927 13.6423 42.1729 15.6467 42.1729C17.6512 42.173 19.2736 43.7928 19.2736 45.7877ZM43.9107 45.7877C43.9107 47.7827 42.2883 49.4024 40.2838 49.4024C38.2794 49.4024 36.657 47.7827 36.657 45.7877C36.657 43.7927 38.2794 42.1729 40.2838 42.1729C42.2883 42.173 43.9107 43.7928 43.9107 45.7877Z" fill="#31508C" stroke="white"/>
</svg>
